<?xml version="1.0" standalone="no"?>
<!DOCTYPE svg PUBLIC "-//W3C//DTD SVG 1.1//EN" "http://www.w3.org/Graphics/SVG/1.1/DTD/svg11.dtd" >
<svg xmlns="http://www.w3.org/2000/svg">
<metadata>
This is a custom SVG webfont generated by Font Squirrel.
Designer    : _PITA_ Rapee Suveeranont and Virot Chiraphadhanakul
Foundry     : IPTH
</metadata>
<defs>
<font id="webfontcAtw809h" horiz-adv-x="527" >
<font-face units-per-em="1000" ascent="800" descent="-200" />
<missing-glyph horiz-adv-x="452" />
<glyph unicode=" "  horiz-adv-x="452" />
<glyph unicode="&#x09;" horiz-adv-x="452" />
<glyph unicode="&#xa0;" horiz-adv-x="452" />
<glyph unicode="!" horiz-adv-x="272" d="M107 718h68v-554h-68v554zM142 98q22 0 37 -14.5t15 -38.5q0 -22 -14.5 -37.5t-37.5 -15.5t-38 15.5t-15 37.5t15 37.5t38 15.5z" />
<glyph unicode="&#x22;" horiz-adv-x="349" d="M223 761h71v-220h-71v220zM54 761h71v-220h-71v220z" />
<glyph unicode="#" horiz-adv-x="658" d="M433 199h-193v-199h-64v199h-119v63h119v208h-119v64h119v182h64v-182h193v182h63v-182h108v-64h-108v-208h108v-63h-108v-199h-63v199zM240 262h193v208h-193v-208z" />
<glyph unicode="$" horiz-adv-x="547" d="M517 179q0 -64 -53 -121.5t-128 -57.5h-21v-80h-63v80h-58q-70 0 -118.5 40t-48.5 112h68q0 -41 29.5 -62.5t69.5 -21.5h58v273l-83 36q-52 22 -85 60.5t-33 108.5q0 75 56.5 122.5t124.5 47.5h20v75h63v-75h21q71 0 119 -40t48 -112h-67q0 40 -29.5 62t-70.5 22h-21 v-267l84 -36q61 -26 89.5 -61t28.5 -105zM336 68q33 0 73 36t40 74q0 44 -14.5 67.5t-51.5 39.5l-68 29v-246h21zM232 648q-43 0 -78 -28.5t-35 -72.5q0 -24 6 -43.5t11.5 -29.5t18 -19.5t15.5 -10.5l15 -7l67 -28v239h-20z" />
<glyph unicode="%" horiz-adv-x="875" d="M203 -26l388 765h66l-384 -765h-70zM345 579v-131q0 -47 -33.5 -83t-82.5 -36h-33q-48 0 -75.5 27t-27.5 74v126q0 44 33 83t79 39h36q57 0 80.5 -28.5t23.5 -70.5zM285 460v104q0 51 -56 51h-6q-30 0 -49.5 -21.5t-19.5 -49.5v-99q0 -53 56 -53h6q27 0 48 20t21 48z M775 268v-131q0 -48 -34 -83.5t-82 -35.5h-33q-49 0 -76 26.5t-27 73.5v126q0 49 34 85.5t78 36.5h36q50 0 77 -25.5t27 -72.5zM715 149v104q0 51 -56 51h-6q-30 0 -50 -21t-20 -49v-100q0 -53 56 -53h6q28 0 49 20.5t21 47.5z" />
<glyph unicode="&#x26;" horiz-adv-x="657" d="M463 190q36 76 36 128h68q0 -92 -56 -185l78 -95q15 -19 34 -38h-85l-40 48q-8 8 -26 32q-83 -89 -187 -89h-44q-68 0 -127.5 58.5t-59.5 129.5v34q0 96 156 182l-26 30q-50 55 -50 109v12q0 74 52 122t118 48h40q58 0 99 -40t41 -100v-14q0 -56 -37.5 -99t-125.5 -83 l-12 -6zM122 179q0 -38 38 -79t81 -41h44q80 0 142 77l-177 211q-49 -24 -88.5 -61t-39.5 -73v-34zM304 651q-43 0 -73.5 -30.5t-30.5 -74.5v-11q0 -9 2.5 -17t5.5 -13t10.5 -16t12.5 -19q3 -7 36 -46l18 8q46 20 75 40t40.5 37.5t14.5 28t3 24.5v12q0 33 -23 55t-54 22h-37 z" />
<glyph unicode="'" horiz-adv-x="188" d="M54 761h71v-220h-71v220z" />
<glyph unicode="(" horiz-adv-x="327" d="M139 255q0 -234 143 -462h-74q-137 218 -137 462q0 251 137 461h74q-143 -218 -143 -461z" />
<glyph unicode=")" horiz-adv-x="327" d="M282 255q0 -242 -137 -462h-74q143 228 143 462q0 243 -143 461h74q137 -210 137 -461z" />
<glyph unicode="*" horiz-adv-x="471" d="M207 687v148h52v-146l127 74l27 -45l-130 -74l130 -74l-27 -45l-127 72v-145h-52v146l-127 -72l-27 45l125 73l-125 72l27 45z" />
<glyph unicode="+" horiz-adv-x="574" d="M320 300v-201h-64v201h-200v63h200v201h64v-201h200v-63h-200z" />
<glyph unicode="," horiz-adv-x="232" d="M23 -72q4 4 21 17.5t27 24t20 33t10 50.5v40h62v-40q0 -28 -6.5 -52.5t-14.5 -40t-22 -31t-22.5 -22t-23.5 -16.5t-17 -12z" />
<glyph unicode="-" horiz-adv-x="357" d="M42 282v69h272v-69h-272z" />
<glyph unicode="." horiz-adv-x="272" d="M142 -8q-23 0 -38 15.5t-15 37.5q0 23 15.5 38t37.5 15t37 -14.5t15 -38.5q0 -22 -14.5 -37.5t-37.5 -15.5z" />
<glyph unicode="/" horiz-adv-x="453" d="M-2 -26l388 765h66l-384 -765h-70z" />
<glyph unicode="0" horiz-adv-x="574" d="M48 464q0 100 71 180t157 80h41q103 0 157 -57.5t54 -152.5v-268q0 -101 -72.5 -177.5t-164.5 -76.5h-33q-101 0 -155.5 59t-54.5 154v259zM292 663q-75 0 -125.5 -65t-50.5 -134v-259q0 -59 32.5 -105.5t107.5 -46.5h26q69 0 123.5 61t54.5 132v268q0 26 -6.5 50 t-21.5 47.5t-44 37.5t-70 14h-26z" />
<glyph unicode="1" horiz-adv-x="410" d="M50 553q64 0 113.5 50.5t49.5 112.5h67v-716h-67v555q-60 -59 -163 -64v62z" />
<glyph unicode="2" horiz-adv-x="584" d="M66 629q41 50 99 78.5t124 28.5h25q101 0 156 -52.5t55 -149.5q0 -52 -20 -87.5t-69 -72.5l-252 -186q-62 -44 -62 -128h415v-60h-489v68q0 103 80 163l287 212q16 12 29 37.5t13 53.5q0 141 -142 141h-26q-95 0 -168 -87z" />
<glyph unicode="3" horiz-adv-x="590" d="M475 247q0 53 -38 95t-96 42h-134v61h141q39 3 65 25.5t26 63.5q0 141 -142 141h-26q-95 0 -168 -87l-55 41q38 48 95.5 77.5t127.5 29.5h24q60 0 103.5 -18t66 -49t32 -64t9.5 -71q0 -76 -51 -118q40 -28 64 -73.5t24 -95.5q0 -112 -76.5 -182.5t-190.5 -70.5 q-67 0 -125.5 24.5t-117.5 97.5l51 45q55 -62 99.5 -84.5t93.5 -22.5q82 0 140 57t58 136z" />
<glyph unicode="4" horiz-adv-x="589" d="M392 0v148h-276q-68 0 -68 63l344 505h68v-508h92v-60h-92v-148h-68zM392 598l-261 -390h261v390z" />
<glyph unicode="5" horiz-adv-x="605" d="M490 247q0 53 -38 95t-96 42h-243v332h406v-60h-338v-211h194q81 0 132 -62t51 -136q0 -112 -76.5 -182.5t-190.5 -70.5q-67 0 -125.5 24.5t-117.5 97.5l51 45q55 -62 99.5 -84.5t93.5 -22.5q82 0 140 57t58 136z" />
<glyph unicode="6" horiz-adv-x="598" d="M122 353q72 96 176 96h41q60 0 103.5 -17.5t66 -47.5t32 -63t9.5 -71v-10q0 -103 -74 -174.5t-162 -71.5h-34q-52 0 -92.5 17.5t-65.5 45.5t-40.5 67.5t-21.5 79t-6 84.5v161q0 124 86 205.5t199 81.5q91 0 155 -49l-40 -55q-62 43 -115 43q-88 0 -152.5 -66.5 t-64.5 -157.5v-98zM315 389q-71 0 -123.5 -57.5t-52.5 -131.5q0 -27 6.5 -50.5t21 -46t43.5 -36t69 -13.5h25q66 0 122 56t56 130v10q0 59 -32 99t-109 40h-26z" />
<glyph unicode="7" horiz-adv-x="554" d="M38 718h481v-46l-219 -458q-45 -93 -45 -214h-68q8 145 38 211l208 446h-395v61z" />
<glyph unicode="8" horiz-adv-x="592" d="M517 540q0 -44 -25 -84.5t-55 -63.5q47 -21 77 -68.5t30 -104.5q0 -52 -17.5 -93t-45 -65.5t-64 -40.5t-71 -22t-69.5 -6h-19q-88 0 -149 52.5t-61 143.5q0 55 32 106.5t75 82.5q-77 47 -77 137q0 87 61.5 149t146.5 62h38q55 0 94.5 -16.5t60 -45t29.5 -58.5t9 -65z M476 219q0 52 -43.5 94.5t-90.5 42.5h-50q-72 0 -124 -59t-52 -109q0 -64 40.5 -99.5t99.5 -35.5h20q82 0 141 43t59 123zM146 516q0 -30 13.5 -51.5t33 -31t35.5 -13.5t28 -4h56q54 4 95 43.5t41 80.5q0 52 -28 88.5t-96 36.5h-23q-62 0 -108.5 -43t-46.5 -106z" />
<glyph unicode="9" horiz-adv-x="592" d="M476 377q-29 -41 -74.5 -68t-101.5 -27h-41q-102 0 -156.5 50.5t-54.5 146.5v11q0 99 72 172.5t165 73.5h33q54 0 95 -18t65.5 -46.5t39.5 -69t20.5 -79.5t5.5 -83v-161q0 -116 -81.5 -200.5t-203.5 -84.5q-90 0 -155 48l41 56q59 -44 114 -44q89 0 153 66t64 159v98z M283 342q72 0 124.5 57.5t52.5 129.5q0 69 -37 107.5t-103 38.5h-26q-69 0 -123.5 -57.5t-54.5 -127.5v-11q0 -58 32 -97.5t110 -39.5h25z" />
<glyph unicode=":" horiz-adv-x="301" d="M160 27q-23 0 -38 15.5t-15 37.5q0 23 15.5 38t37.5 15t37.5 -15t15.5 -38t-15.5 -38t-37.5 -15zM160 396q-23 0 -38 15.5t-15 37.5q0 23 15.5 38t37.5 15t37.5 -15t15.5 -38t-15.5 -38t-37.5 -15z" />
<glyph unicode=";" horiz-adv-x="301" d="M160 396q-23 0 -38 15.5t-15 37.5q0 23 15.5 38t37.5 15t37.5 -15t15.5 -38t-15.5 -38t-37.5 -15zM60 -24q4 3 23 18.5t28 25t18.5 32t9.5 49.5v41h61v-41q0 -28 -6.5 -52.5t-14.5 -40t-22.5 -31t-22 -22t-23 -16.5t-16.5 -11z" />
<glyph unicode="&#x3c;" horiz-adv-x="621" d="M573 615v-68l-407 -246l407 -244v-68l-525 312z" />
<glyph unicode="=" d="M42 185v70h422v-70h-422zM42 378v70h422v-70h-422z" />
<glyph unicode="&#x3e;" horiz-adv-x="622" d="M573 301l-525 -312v68l407 244l-407 246v68z" />
<glyph unicode="?" horiz-adv-x="539" d="M232 -8q-23 0 -38 15.5t-15 37.5q0 23 15.5 38t37.5 15q23 0 38 -15.5t15 -37.5t-15 -37.5t-38 -15.5zM188 651q-93 0 -135 -50l-30 61q19 22 61.5 39t103.5 17h83q91 0 153.5 -50.5t62.5 -141.5q0 -118 -164 -190q-62 -25 -62 -113v-59h-68v59q0 49 27 98t95 81 q20 10 33 17.5t32 22.5t29 36.5t10 47.5q0 46 -26 76t-57 39.5t-65 9.5h-83z" />
<glyph unicode="@" horiz-adv-x="905" d="M428 197q48 0 80.5 31t34.5 80v129q-3 33 -27.5 55t-57.5 22h-49q-49 0 -82 -32t-33 -83v-119q0 -34 23.5 -58.5t59.5 -24.5h51zM125 222q0 -76 52.5 -131.5t134.5 -55.5h223q81 0 143 49l37 -49q-83 -62 -183 -62h-215q-111 0 -182.5 75.5t-71.5 177.5v210q0 131 91 219 t217 88h214q110 0 181.5 -74.5t71.5 -178.5v-106q0 -241 -158 -241q-78 0 -109 67q-21 -34 -59.5 -52.5t-83.5 -18.5h-51q-60 0 -101 40t-41 101v119q0 74 51.5 124t122.5 50h49q47 0 85 -26v26h58v-264q0 -42 20 -73t59 -31q96 0 96 181v108q0 82 -55 134.5t-132 52.5h-221 q-102 0 -172.5 -70.5t-70.5 -171.5v-217z" />
<glyph unicode="A" horiz-adv-x="788" d="M356 718q75 0 99 -55l296 -663h-76l-89 200h-386l-87 -200h-75zM226 261h333l-166 375z" />
<glyph unicode="B" horiz-adv-x="714" d="M669 203q0 -80 -55.5 -141.5t-128.5 -61.5h-355q-27 0 -45.5 21t-18.5 45v650h349q71 0 127 -54t56 -134q0 -69 -57 -132q53 -20 90.5 -73.5t37.5 -119.5zM598 203q0 49 -34.5 95t-78.5 46h-351v-284h351q47 0 80 48.5t33 94.5zM528 528q0 47 -34 87.5t-79 40.5h-281 v-252h281q46 0 79.5 38.5t33.5 85.5z" />
<glyph unicode="C" horiz-adv-x="705" d="M51 431q0 119 82 209.5t203 90.5h82q96 0 164.5 -64.5t68.5 -164.5h-68q0 70 -49 119.5t-116 49.5h-82q-88 0 -152.5 -73.5t-64.5 -166.5v-197q0 -73 49.5 -131t116.5 -58h84q92 0 154.5 61.5t62.5 148.5h68q0 -119 -82.5 -194.5t-202.5 -75.5h-84q-94 0 -164 73.5 t-70 175.5v197z" />
<glyph unicode="D" horiz-adv-x="735" d="M669 286q0 -122 -84.5 -204t-200.5 -82h-254q-27 0 -45.5 21t-18.5 45v650h368q103 0 169 -69t66 -166v-195zM601 481q0 75 -50 125t-117 50h-300v-596h250q88 0 152.5 65.5t64.5 160.5v195z" />
<glyph unicode="E" horiz-adv-x="705" d="M130 0q-27 0 -45.5 21t-18.5 45v650h573v-60h-505v-252h431v-60h-431v-284h505v-60h-509z" />
<glyph unicode="F" horiz-adv-x="705" d="M134 344v-344h-68v716h573v-60h-505v-252h431v-60h-431z" />
<glyph unicode="G" horiz-adv-x="705" d="M119 234q0 -73 49.5 -131t116.5 -58h84q93 0 155 62.5t62 147.5h-214v60h282v-60q0 -119 -82.5 -194.5t-202.5 -75.5h-84q-94 0 -164 73.5t-70 175.5v197q0 119 82 209.5t203 90.5h82q96 0 164.5 -64.5t68.5 -164.5h-68q0 70 -49 119.5t-116 49.5h-82q-88 0 -152.5 -73.5 t-64.5 -166.5v-197z" />
<glyph unicode="H" horiz-adv-x="705" d="M571 344h-437v-344h-68v716h68v-312h437v312h68v-716h-68v344z" />
<glyph unicode="I" horiz-adv-x="200" d="M66 716h68v-716h-68v716z" />
<glyph unicode="J" horiz-adv-x="615" d="M549 255q0 -119 -83.5 -194.5t-201.5 -75.5q-93 0 -163.5 73t-70.5 176h68q0 -70 48.5 -125.5t117.5 -55.5q92 0 154.5 59t62.5 143v461h68v-461z" />
<glyph unicode="K" horiz-adv-x="675" d="M543 0l-261 264q-40 40 -82 51q-44 11 -66 11v-326h-68v716h68v-309l401 309h103l-435 -342q57 0 131 -68l37 -35q2 -2 4.5 -5t9.5 -10.5t22 -21.5l231 -234h-95z" />
<glyph unicode="L" horiz-adv-x="616" d="M130 0q-27 0 -45.5 21t-18.5 45v650h68v-656h445v-60h-449z" />
<glyph unicode="M" horiz-adv-x="880" d="M814 0h-68v565l-306 -574l-306 574v-565h-68v718h68l306 -566l306 564h68v-716z" />
<glyph unicode="N" horiz-adv-x="735" d="M598 115v603h71v-718h-68l-467 603v-603h-68v718h68z" />
<glyph unicode="O" horiz-adv-x="706" d="M421 731q95 0 165 -73.5t70 -176.5v-195q0 -119 -83.5 -210t-201.5 -91h-83q-98 0 -166.5 74t-68.5 176v195q0 119 83 210t203 91h82zM371 45q87 0 152 74.5t65 166.5v195q0 72 -50 131t-117 59h-82q-85 0 -151.5 -73t-66.5 -168v-195q0 -74 49.5 -132t117.5 -58h83z" />
<glyph unicode="P" horiz-adv-x="676" d="M639 528q0 -78 -55 -131t-133 -53h-317v-344h-68v716h385q77 0 132.5 -55t55.5 -133zM571 528q0 47 -34.5 87.5t-85.5 40.5h-317v-252h317q49 0 84.5 36.5t35.5 87.5z" />
<glyph unicode="Q" horiz-adv-x="705" d="M654 286q0 -98 -59 -180l67 -71l-48 -49l-65 70q-81 -71 -180 -71h-83q-95 0 -165 73.5t-70 176.5v195q0 123 85 212t202 89h81q98 0 166.5 -74t68.5 -176v-195zM547 154q39 63 39 132v195q0 74 -49.5 132t-117.5 58h-81q-89 0 -154 -74.5t-65 -166.5v-195q0 -72 50 -131 t117 -59h83q75 0 134 56l-108 109l48 48z" />
<glyph unicode="R" horiz-adv-x="690" d="M639 528q0 -78 -55 -131t-133 -53h-21q14 0 51 -56l187 -288h-80l-189 288q-11 18 -33 37t-42 19h-190v-344h-68v716h385q77 0 132.5 -55t55.5 -133zM571 528q0 47 -34.5 87.5t-85.5 40.5h-317v-252h317q49 0 84.5 36.5t35.5 87.5z" />
<glyph unicode="S" horiz-adv-x="765" d="M713 208q0 -101 -80.5 -162t-184.5 -61h-151q-101 0 -173.5 67.5t-72.5 172.5h68q0 -75 52 -127.5t126 -52.5h151q84 0 140.5 50t56.5 113q0 121 -111 136l-299 37q-51 10 -84 27.5t-47 42t-18.5 45t-4.5 48.5q0 48 25 86t62.5 59.5t75.5 32.5t71 11h152q91 0 153.5 -58 t62.5 -149h-68q0 58 -43 103t-105 45h-152q-29 0 -66 -14t-68.5 -45t-31.5 -71q0 -18 2.5 -30t11.5 -26.5t30 -24t53 -14.5l295 -37q172 -31 172 -204z" />
<glyph unicode="T" horiz-adv-x="587" d="M261 656h-223v60h512v-60h-221v-656h-68v656z" />
<glyph unicode="U" horiz-adv-x="720" d="M294 -15q-98 0 -166.5 74t-68.5 176v481h68v-481q0 -74 49.5 -132t117.5 -58h83q87 0 152 74.5t65 166.5v430h68v-430q0 -122 -84 -211.5t-201 -89.5h-83z" />
<glyph unicode="V" horiz-adv-x="711" d="M601 716h73l-281 -724q-37 0 -63.5 16t-46.5 60l-245 648h72l243 -641z" />
<glyph unicode="W" horiz-adv-x="1064" d="M366 -8q-79 0 -113 76l-215 648h72l213 -641l173 649q66 0 84 -50l162 -599l212 641h73l-216 -648q-19 -44 -47 -60t-66 -16l-166 631z" />
<glyph unicode="X" horiz-adv-x="696" d="M124 0h-86l266 357l-266 359h86l223 -301l226 301h86l-269 -359l269 -357h-86l-225 300z" />
<glyph unicode="Y" horiz-adv-x="678" d="M372 0h-68v357l-266 359h77l223 -301l226 301h77l-269 -359v-357z" />
<glyph unicode="Z" horiz-adv-x="702" d="M62 656v60h603l-492 -656h468v-60h-603l491 656h-467z" />
<glyph unicode="[" horiz-adv-x="292" d="M56 689q0 58 43 84.5t108 26.5h36v-55h-36q-17 0 -34 -3.5t-35.5 -18t-18.5 -39.5v-785q0 -32 27.5 -44.5t60.5 -12.5h36v-56h-36q-61 0 -106 25t-45 83v795z" />
<glyph unicode="\" horiz-adv-x="455" d="M454 -26h-70l-384 765h66z" />
<glyph unicode="]" horiz-adv-x="292" d="M243 -106q0 -58 -45.5 -83t-105.5 -25h-36v56h36q87 0 87 57v785q0 24 -17 39t-34.5 18.5t-35.5 3.5h-36v55h36q61 0 106 -25.5t45 -85.5v-795z" />
<glyph unicode="^" horiz-adv-x="681" d="M338 663l-184 -289h-68l252 408l254 -408h-69z" />
<glyph unicode="_" horiz-adv-x="539" d="M-2 -137v60h543v-60h-543z" />
<glyph unicode="`" horiz-adv-x="179" d="M176 565h-70l-111 166h71z" />
<glyph unicode="a" horiz-adv-x="530" d="M48 308q0 87 60.5 149t143.5 62h60q42 0 61 -19l39 -36v47h67v-514h-67v72q-21 -30 -65.5 -53.5t-85.5 -23.5h-61q-67 0 -109.5 51.5t-42.5 123.5v141zM261 53q54 0 100 44t51 100v147q-5 43 -34 78.5t-66 35.5h-60q-60 0 -98 -47.5t-38 -102.5v-141q0 -39 21 -76.5 t63 -37.5h61z" />
<glyph unicode="b" horiz-adv-x="532" d="M484 203q0 -90 -59.5 -150.5t-139.5 -60.5h-60q-41 0 -61 16l-42 33v-41h-68v716h68v-267q43 41 72.5 55.5t66.5 14.5h60q67 0 115 -51t48 -124v-141zM285 53q55 0 93 46.5t38 107.5v140q0 40 -26.5 75.5t-68.5 35.5h-60q-47 0 -87 -34.5t-52 -90.5v-179q7 -39 38 -70 t65 -31h60z" />
<glyph unicode="c" horiz-adv-x="526" d="M48 308q0 87 60.5 149t143.5 62h59q72 0 119.5 -44.5t47.5 -115.5h-68q0 40 -29 69.5t-70 29.5h-59q-60 0 -98 -47.5t-38 -102.5v-141q0 -44 30 -79t70 -35h60q57 0 96.5 35.5t39.5 93.5h67q0 -88 -60.5 -139t-142.5 -51h-60q-71 0 -119.5 53t-48.5 122v141z" />
<glyph unicode="d" horiz-adv-x="533" d="M312 519q34 0 54 -8.5t46 -38.5v244h67v-719h-67v72q-18 -25 -62 -51t-89 -26h-61q-67 0 -109.5 51.5t-42.5 123.5v141q0 87 60.5 149t143.5 62h60zM261 53q54 0 100 44t51 100v154q-3 39 -31.5 73t-68.5 34h-60q-60 0 -98 -47.5t-38 -102.5v-141q0 -39 21 -76.5 t63 -37.5h61z" />
<glyph unicode="e" d="M312 519q70 0 118.5 -52t48.5 -123v-77h-363v-100q0 -44 30 -79t70 -35h60q59 0 97.5 41t38.5 94h67q0 -86 -59.5 -141t-143.5 -55h-60q-71 0 -119.5 53t-48.5 122v141q0 87 60.5 149t143.5 62h60zM412 344q0 38 -30 76t-70 38h-60q-60 0 -98 -41.5t-38 -96.5h296v24z " />
<glyph unicode="f" horiz-adv-x="319" d="M128 458h-98v53h98q0 79 58.5 141.5t145.5 62.5v-68q-60 0 -97.5 -39.5t-38.5 -96.5h93v-53h-93v-458h-68v458z" />
<glyph unicode="g" horiz-adv-x="533" d="M277 -130q50 0 92.5 35t42.5 86v98q-65 -59 -136 -59h-60q-68 0 -118 51t-50 124v103q0 87 60.5 149t143.5 62h60q56 0 100 -47v39h67v-520q0 -72 -67.5 -125t-138.5 -53h-60q-64 0 -104 35t-55 77h80q37 -55 83 -55h60zM276 90q52 0 91.5 43.5t44.5 101.5v116 q-3 39 -31.5 72.5t-68.5 33.5h-60q-57 0 -96.5 -46t-39.5 -103v-103q0 -46 31 -80.5t69 -34.5h60z" />
<glyph unicode="h" horiz-adv-x="538" d="M321 519q67 0 115 -51t48 -124v-344h-68v347q0 40 -26.5 75.5t-68.5 35.5h-60q-47 0 -87 -34.5t-52 -90.5v-333h-68v716h68v-259q66 62 139 62h60z" />
<glyph unicode="i" horiz-adv-x="248" d="M90 511h68v-511h-68v511zM125 600q-22 0 -37.5 15t-15.5 38t15.5 37.5t37.5 14.5q24 0 38.5 -15t14.5 -37q0 -23 -15.5 -38t-37.5 -15z" />
<glyph unicode="j" horiz-adv-x="248" d="M-45 -136q59 0 96.5 40t38.5 96v511h68v-511q0 -87 -60 -145t-143 -58h-61v67h61zM125 600q-22 0 -37.5 15t-15.5 38t15.5 37.5t37.5 14.5q24 0 38.5 -15t14.5 -37q0 -23 -15.5 -38t-37.5 -15z" />
<glyph unicode="k" horiz-adv-x="506" d="M196 304q24 -7 60 -43l249 -261h-92l-210 217q-35 35 -81 39v-256h-68v716h68v-390l243 185h104z" />
<glyph unicode="l" horiz-adv-x="248" d="M90 716h68v-716h-68v716z" />
<glyph unicode="m" horiz-adv-x="788" d="M567 458q-59 0 -99 -34.5t-40 -81.5v-342h-68v344q0 42 -31 78t-68 36q-52 0 -95.5 -37.5t-43.5 -87.5v-333h-68v511h68v-54q66 62 139 62q79 0 135 -77q69 77 171 77q67 0 117 -51.5t50 -123.5v-344h-68v347q0 41 -30 76t-69 35z" />
<glyph unicode="n" horiz-adv-x="542" d="M321 519q70 0 118.5 -52t48.5 -123v-344h-67v347q0 37 -29 74t-71 37h-60q-47 0 -87 -34.5t-52 -90.5v-333h-68v511h68v-54q66 62 139 62h60z" />
<glyph unicode="o" d="M312 519q70 0 118.5 -52t48.5 -123v-141q0 -89 -60.5 -150t-142.5 -61h-60q-71 0 -119.5 53t-48.5 122v141q0 87 60.5 149t143.5 62h60zM276 53q58 0 97 47.5t39 102.5v141q0 38 -30 76t-70 38h-60q-60 0 -98 -47.5t-38 -102.5v-141q0 -44 30 -79t70 -35h60z" />
<glyph unicode="p" horiz-adv-x="533" d="M222 -8q-50 0 -100 47v-227h-68v699h68v-59q8 11 20 22.5t45.5 28t70.5 16.5h60q70 0 118.5 -52t48.5 -123v-141q0 -89 -60.5 -150t-142.5 -61h-60zM282 53q59 0 97.5 48t38.5 102v141q0 38 -30 76t-70 38h-60q-55 0 -95.5 -44t-40.5 -100v-147q0 -44 30 -79t70 -35h60z " />
<glyph unicode="q" horiz-adv-x="533" d="M312 519q29 0 49.5 -9t50.5 -38v39h67v-699h-67v251q-22 -29 -59 -50t-77 -21h-60q-71 0 -119.5 53t-48.5 122v141q0 87 60.5 149t143.5 62h60zM276 53q54 0 93 44.5t43 99.5v154q-3 39 -31.5 72.5t-68.5 33.5h-60q-57 0 -96.5 -46t-39.5 -103v-141q0 -44 30 -79t70 -35 h60z" />
<glyph unicode="r" horiz-adv-x="349" d="M259 458q-52 0 -93.5 -45.5t-41.5 -104.5v-308h-68v511h68v-53q69 61 135 61h61v-61h-61z" />
<glyph unicode="s" horiz-adv-x="572" d="M357 53q33 0 73 24.5t40 62.5q0 24 -6.5 40t-18 24t-20 11t-21.5 5l-214 26q-118 17 -118 123q0 69 57 109.5t124 40.5h104q72 0 120 -44.5t48 -115.5h-68q0 40 -29 69.5t-71 29.5h-104q-40 0 -76.5 -26t-36.5 -61q0 -17 3.5 -27.5t19 -21t44.5 -16.5l214 -26 q117 -19 117 -138q0 -66 -53.5 -108t-127.5 -42h-141q-72 0 -120 44.5t-48 115.5h68q0 -40 29 -69.5t71 -29.5h141z" />
<glyph unicode="t" horiz-adv-x="319" d="M128 458h-98v53h98v205h68v-205h93v-53h-93v-458h-68v458z" />
<glyph unicode="u" horiz-adv-x="538" d="M217 -8q-67 0 -115 51t-48 124v344h68v-347q0 -40 26.5 -75.5t68.5 -35.5h60q50 0 90.5 37t48.5 88v333h68v-511h-68v65q-22 -30 -60 -51.5t-79 -21.5h-60z" />
<glyph unicode="v" horiz-adv-x="526" d="M300 -8q-73 0 -100 55l-170 464h71l161 -439l163 439h71z" />
<glyph unicode="w" horiz-adv-x="845" d="M422 422l-146 -430q-55 0 -71 43l-175 476h73l146 -431l146 440q26 0 45.5 -12t26.5 -32l130 -396l146 431h73l-174 -476q-8 -24 -29.5 -33.5t-42.5 -9.5z" />
<glyph unicode="x" horiz-adv-x="562" d="M430 511h84l-188 -241l215 -270h-86l-175 219l-173 -219h-86l214 270l-187 241h85l147 -190z" />
<glyph unicode="y" horiz-adv-x="539" d="M484 -9q0 -70 -66.5 -124t-140.5 -54h-60q-58 0 -100 32t-58 80h80q34 -55 83 -55h60q49 0 91.5 35t42.5 86v101q-64 -62 -139 -62h-60q-66 0 -114.5 50.5t-48.5 124.5v306h68v-309q0 -42 27 -76t68 -34h60q48 0 89.5 36t49.5 88v295h68v-520z" />
<glyph unicode="z" horiz-adv-x="565" d="M506 0h-458l339 458h-324v53h454l-341 -458h330v-53z" />
<glyph unicode="{" horiz-adv-x="428" d="M148 268q31 -18 61.5 -59.5t30.5 -89.5v-220q0 -32 27 -44.5t60 -12.5h36v-56h-36q-60 0 -105.5 25t-45.5 83v225q0 48 -54.5 98.5t-94.5 50.5q43 0 96 46.5t53 104.5v270q0 60 45 85.5t106 25.5h36v-55h-36q-17 0 -34 -3.5t-35 -18t-18 -39.5v-265q0 -58 -32 -101 t-60 -50z" />
<glyph unicode="|" horiz-adv-x="247" d="M90 867h68v-1018h-68v1018z" />
<glyph unicode="}" horiz-adv-x="428" d="M250 -106q0 -58 -45 -83t-106 -25h-36v56h36q20 0 37.5 3.5t34 17t16.5 36.5v220q0 43 27 85t65 64q-31 8 -61.5 51.5t-30.5 99.5v265q0 25 -18 39.5t-35 18t-35 3.5h-36v55h36q65 0 108 -26.5t43 -84.5v-270q0 -58 53 -104.5t96 -46.5q-40 0 -94.5 -50.5t-54.5 -98.5 v-225z" />
<glyph unicode="~" horiz-adv-x="602" d="M50 270q0 86 48.5 135t95.5 49q32 0 57.5 -13t42.5 -32l32 -37q16 -19 38.5 -32t51.5 -13q30 0 56 30t34 86h55q0 -86 -48.5 -135t-96.5 -49q-46 0 -81 20t-52 43.5t-40 43.5t-49 20q-29 0 -55 -31t-35 -85h-54z" />
<glyph unicode="&#xa1;" horiz-adv-x="233" d="M83 -204v554h68v-554h-68zM118 416q-23 0 -38 15.5t-15 37.5t15 37.5t38 15.5t37.5 -15.5t14.5 -37.5q0 -24 -15 -38.5t-37 -14.5z" />
<glyph unicode="&#xa2;" horiz-adv-x="575" d="M148 271q0 -45 30.5 -79.5t68.5 -34.5h83q34 0 73.5 34.5t39.5 94.5h68q0 -81 -53.5 -131.5t-127.5 -56.5v-119h-68v117h-15q-67 0 -117 51.5t-50 123.5v141q0 77 52.5 139t129.5 70v121h68v-119h12q72 0 120 -44.5t48 -115.5h-68q0 40 -29 69.5t-71 29.5h-80 q-49 -8 -81.5 -54.5t-32.5 -95.5v-141z" />
<glyph unicode="&#xa3;" horiz-adv-x="575" d="M258 513q0 -73 10 -130h196v-68h-184l18 -121q0 -41 -31 -87.5t-57 -46.5h324v-60h-466v60q47 0 105 43t58 93q-1 2 -9 54l-9 65h-148v68h135q-10 58 -10 97v33q0 83 58.5 147t144.5 64q66 0 113 -46l-45 -54q-30 32 -68 32q-59 0 -97 -43.5t-38 -99.5z" />
<glyph unicode="&#xa4;" horiz-adv-x="732" d="M365 66q-109 0 -174 65l-61 -65l-46 46l61 63q-61 73 -61 172q0 100 61 175l-61 61l46 47l61 -63q80 62 175 62q97 0 175 -62l65 63l44 -47l-62 -61q59 -68 59 -175q0 -102 -59 -172l62 -63l-46 -46l-63 65q-70 -65 -176 -65zM577 347q0 89 -64 153t-148 64 q-86 0 -148.5 -64.5t-62.5 -152.5q0 -89 62.5 -152.5t148.5 -63.5t149 63t63 153z" />
<glyph unicode="&#xa5;" horiz-adv-x="575" d="M243 262h-165v65h165v30l-237 359h77l193 -301l196 301h77l-238 -359v-30h167v-65h-167v-262h-68v262z" />
<glyph unicode="&#xa6;" horiz-adv-x="238" d="M90 445v422h68v-422h-68zM158 309v-460h-68v460h68z" />
<glyph unicode="&#xa7;" horiz-adv-x="601" d="M152 499q-57 36 -57 96q0 66 54.5 108t126.5 42h104q72 0 119.5 -44.5t47.5 -115.5h-68q0 42 -29.5 70.5t-69.5 28.5h-104q-40 0 -76.5 -25.5t-36.5 -61.5q0 -18 11 -31.5t22.5 -19.5t32.5 -14l214 -74q118 -41 118 -138q0 -78 -76 -123q47 -38 47 -101t-52.5 -106 t-128.5 -43h-141q-72 0 -120 44.5t-48 115.5h68q0 -42 30 -70.5t70 -28.5h141q33 0 73 24.5t40 62.5q0 34 -17 51.5t-49 28.5l-214 74q-73 24 -95.5 54.5t-22.5 68.5q0 83 86 127zM412 235q29 9 55 29.5t26 53.5q0 34 -17 51.5t-49 28.5l-184 63q-32 0 -70.5 -23.5 t-38.5 -63.5q0 -26 17.5 -40t48.5 -25z" />
<glyph unicode="&#xa8;" horiz-adv-x="348" d="M65 606q-23 0 -38 15.5t-15 37.5t14.5 37t38.5 15q22 0 37.5 -14.5t15.5 -37.5t-15.5 -38t-37.5 -15zM280 606q-22 0 -37 14.5t-15 38.5q0 23 15 37.5t37 14.5q24 0 38.5 -15t14.5 -37q0 -23 -15.5 -38t-37.5 -15z" />
<glyph unicode="&#xa9;" horiz-adv-x="734" d="M42 356q0 134 95 235t232 101q132 0 229.5 -99.5t97.5 -236.5q0 -139 -97.5 -236t-229.5 -97t-229.5 97t-97.5 236zM644 356q0 114 -82.5 198t-192.5 84q-117 0 -195.5 -87t-78.5 -195q0 -121 83 -200t191 -79q110 0 192.5 80.5t82.5 198.5zM214 398q0 59 42 104t101 45 h42q51 0 84 -32.5t33 -80.5h-55q0 27 -18.5 44.5t-44.5 17.5h-41q-37 0 -63 -31t-26 -70v-91q0 -28 20 -52t45 -24h41q40 0 65 23t25 61h55q0 -63 -43 -98.5t-102 -35.5h-42q-52 0 -85 37.5t-33 84.5v98z" />
<glyph unicode="&#xaa;" horiz-adv-x="379" d="M36.5977 502.423q0 60.2852 42.3467 103.247q42.3477 42.9619 100.443 42.9619h41.9971q29.3984 0 42.6973 -13.166l27.2979 -24.9453v32.5674h46.8965v-356.167h-46.8965v49.8916q-14.6992 -20.7881 -45.8467 -37.0723q-31.1484 -16.2832 -59.8457 -16.2832h-42.6973 q-46.8965 0 -76.6445 35.6855t-29.748 85.5771v97.7031zM185.688 325.726q37.7969 0 69.9951 30.4893q32.1973 30.4883 35.6973 69.293v101.861q-3.5 29.7959 -23.7979 54.3945q-20.2988 24.5996 -46.1973 24.5996h-41.9971q-41.9971 0 -68.5947 -32.915 q-26.5986 -32.9141 -26.5986 -71.0254v-97.7031q0 -27.0244 14.6992 -53.0098q14.6982 -25.9844 44.0967 -25.9844h42.6973z" />
<glyph unicode="&#xab;" horiz-adv-x="548" d="M300 540v-85l-182 -181l182 -181v-84l-270 265zM507 540v-85l-182 -181l182 -181v-84l-270 265z" />
<glyph unicode="&#xac;" horiz-adv-x="646" d="M534 140v231h-492v68h559v-299h-67z" />
<glyph unicode="&#xad;" horiz-adv-x="357" d="M42 282v69h272v-69h-272z" />
<glyph unicode="&#xae;" horiz-adv-x="553" d="M47 491q0 98 68 169t164 71q97 0 165.5 -73t68.5 -167q0 -91 -66.5 -163.5t-167.5 -72.5q-100 0 -166 71.5t-66 164.5zM475 491q0 85 -59.5 143t-136.5 58q-79 0 -137 -60t-58 -141q0 -79 57 -138t138 -59q78 0 137 57t59 140zM381 552q0 -27 -18.5 -44.5t-44.5 -17.5h-6 q5 0 17 -20l61 -92h-42l-60 94q-13 16 -29 16h-30v-110h-39v240h128q27 0 45 -20.5t18 -45.5zM341 552q0 12 -8.5 23t-21.5 11h-82v-66h82q13 0 21.5 10.5t8.5 21.5z" />
<glyph unicode="&#xaf;" horiz-adv-x="357" d="M42 636v60h272v-60h-272z" />
<glyph unicode="&#xb0;" horiz-adv-x="325" d="M163 484q-58 0 -95.5 38.5t-37.5 94.5q0 55 37.5 93.5t95.5 38.5q57 0 94.5 -38.5t37.5 -93.5q0 -56 -37.5 -94.5t-94.5 -38.5zM163 704q-37 0 -62.5 -25.5t-25.5 -61.5q0 -38 26 -63t62 -25t61.5 25t25.5 63q0 37 -25.5 62t-61.5 25z" />
<glyph unicode="&#xb1;" horiz-adv-x="646" d="M354 336v-200h-63v200h-201v63h201v201h63v-201h201v-63h-201zM555 0h-465v63h465v-63z" />
<glyph unicode="&#xb2;" horiz-adv-x="390" d="M51 665q56 71 142 71h14q64 0 98 -33.5t34 -93.5q0 -36 -12.5 -56.5t-43.5 -44.5l-150 -112q-33 -24 -35 -66h247v-48h-303v47q0 64 51 101l171 129q9 5 15.5 20t6.5 30q0 80 -78 80h-15q-51 0 -100 -56z" />
<glyph unicode="&#xb3;" horiz-adv-x="369" d="M291 436q0 30 -21.5 53.5t-53.5 23.5h-86v48h90q21 1 34.5 14t13.5 34q0 78 -78 78h-17q-57 0 -99 -54l-41 30q58 73 140 73h15q72 0 103.5 -38.5t31.5 -88.5q0 -45 -28 -72q47 -32 47 -101q0 -72 -47 -114.5t-119 -42.5q-50 0 -85.5 19.5t-69.5 60.5l39 34 q61 -66 118 -66q45 0 79 31t34 78z" />
<glyph unicode="&#xb4;" horiz-adv-x="179" d="M106 731h70l-110 -166h-71z" />
<glyph unicode="&#xb5;" horiz-adv-x="544" d="M416 65q-22 -30 -60 -51.5t-79 -21.5h-60q-54 0 -95 32v-211h-68v698h68v-347q0 -40 26.5 -75.5t68.5 -35.5h60q50 0 90.5 37t48.5 88v333h68v-511h-68v65z" />
<glyph unicode="&#xb6;" horiz-adv-x="619" d="M45 497q0 88 58 153.5t131 65.5l336 2v-777h-68v709h-66v-709h-68v342h-134q-73 0 -131 64t-58 150z" />
<glyph unicode="&#xb7;" horiz-adv-x="346" d="M173 271q-33 0 -54 21.5t-21 54.5t21 54t54 21q34 0 55 -21t21 -54t-20.5 -54.5t-55.5 -21.5z" />
<glyph unicode="&#xb8;" horiz-adv-x="325" d="M118 -106q0 -15 7.5 -24.5t19.5 -9.5h12q23 0 29.5 5.5t6.5 16.5q0 13 -17.5 25t-35.5 30t-18 46v23h56v-23q7 -21 29 -35t33 -29q12 -15 12 -38q0 -44 -28 -59t-67 -15h-12q-86 7 -86 87h59z" />
<glyph unicode="&#xb9;" horiz-adv-x="325" d="M71 620q40 0 67.5 29t28.5 67h53v-434h-53v319q-34 -28 -96 -28v47z" />
<glyph unicode="&#xba;" horiz-adv-x="379" d="M224.385 649.274q48.9961 0 82.9443 -36.3975q33.9473 -36.3975 33.9473 -86.0938v-98.6934q0 -62.2949 -42.3467 -104.992q-42.3477 -42.6973 -99.7432 -42.6973h-41.9971q-49.6963 0 -83.6445 37.0977q-33.9473 37.0977 -33.9473 85.3936v98.6934 q0 60.8955 42.3467 104.293q42.3477 43.3965 100.443 43.3965h41.9971zM199.187 323.098q40.5967 0 67.8955 33.2471q27.2979 33.248 27.2979 71.7451v98.6934q0 26.5977 -20.999 53.1963q-20.998 26.5986 -48.9961 26.5986h-41.9971q-41.9971 0 -68.5947 -33.248 q-26.5986 -33.248 -26.5986 -71.7451v-98.6934q0 -30.7979 20.999 -55.2959q20.998 -24.498 48.9961 -24.498h41.9971z" />
<glyph unicode="&#xbb;" horiz-adv-x="548" d="M305 274l-270 -265v84l183 181l-183 181v85zM514 274l-270 -265v84l183 181l-183 181v85z" />
<glyph unicode="&#xbc;" horiz-adv-x="824" d="M137 -26l388 765h66l-384 -765h-70zM696 0h-54v87h-157q-46 0 -46 46l206 301h51v-298h53v-49h-53v-87zM642 136v203l-137 -203h137zM44 573v47q40 0 67.5 29.5t28.5 66.5h53v-434h-53v319q-38 -28 -96 -28z" />
<glyph unicode="&#xbd;" horiz-adv-x="824" d="M137 -26l388 765h66l-384 -765h-70zM487 366q54 68 134 68h14q69 0 98.5 -35.5t29.5 -84.5q0 -35 -13.5 -56t-41.5 -41l-144 -107q-30 -22 -33 -63h239v-47h-292v45q0 59 48 97l164 123q21 17 21 49q0 30 -17 52.5t-58 22.5h-15q-53 0 -95 -53zM44 573v47q40 0 67.5 29.5 t28.5 66.5h53v-434h-53v319q-38 -28 -96 -28z" />
<glyph unicode="&#xbe;" horiz-adv-x="824" d="M288 609q0 78 -78 78h-17q-55 0 -100 -54l-42 30q58 73 142 73h15q72 0 102.5 -38.5t30.5 -88.5q0 -43 -26 -72q47 -38 47 -103q0 -71 -47 -114t-119 -43q-26 0 -46 3.5t-51 22.5t-58 54l39 35q34 -39 60.5 -52.5t56.5 -13.5q46 0 80 31.5t34 76.5q0 30 -21.5 54.5 t-54.5 24.5h-87v46h90q15 0 32.5 12t17.5 38zM696 0h-54v87h-157q-46 0 -46 46l206 301h51v-298h53v-49h-53v-87zM642 136v203l-137 -203h137zM211 -26l387 765h67l-385 -765h-69z" />
<glyph unicode="&#xbf;" horiz-adv-x="444" d="M273 521q23 0 38 -15.5t15 -37.5q0 -23 -15.5 -38t-37.5 -15q-23 0 -38 15.5t-15 37.5t15 37.5t38 15.5zM317 -138q93 0 135 50l30 -61q-19 -22 -61.5 -39t-103.5 -17h-83q-91 0 -153.5 50.5t-62.5 141.5q0 118 164 190q62 25 62 113v59h68v-59q0 -49 -27 -98t-95 -81 q-20 -10 -33 -17.5t-32 -22.5t-29 -36.5t-10 -47.5q0 -46 26 -76t57 -39.5t65 -9.5h83z" />
<glyph unicode="&#xc0;" horiz-adv-x="788" d="M356 718q75 0 99 -55l296 -663h-76l-89 200h-386l-87 -200h-75zM226 261h333l-166 375zM484 820h-70l-111 166h71z" />
<glyph unicode="&#xc1;" horiz-adv-x="788" d="M356 718q75 0 99 -55l296 -663h-76l-89 200h-386l-87 -200h-75zM226 261h333l-166 375zM414 984h70l-110 -166h-71z" />
<glyph unicode="&#xc2;" horiz-adv-x="788" d="M356 718q75 0 99 -55l296 -663h-76l-89 200h-386l-87 -200h-75zM226 261h333l-166 375zM364 995h58l124 -176h-65l-89 131l-87 -131h-65z" />
<glyph unicode="&#xc3;" horiz-adv-x="788" d="M356 718q75 0 99 -55l296 -663h-76l-89 200h-386l-87 -200h-75zM226 261h333l-166 375zM460 841q17 0 28 15t11 37h51q-4 -99 -99 -99q-19 0 -37 12t-29 26.5t-26 26.5t-31 12q-13 0 -26 -12.5t-13 -40.5h-51q7 100 97 100q23 0 43 -12t31.5 -26.5t25 -26.5t25.5 -12z " />
<glyph unicode="&#xc4;" horiz-adv-x="788" d="M356 718q75 0 99 -55l296 -663h-76l-89 200h-386l-87 -200h-75zM226 261h333l-166 375zM287 811q-23 0 -38 15.5t-15 37.5t14.5 37t38.5 15q22 0 37.5 -14.5t15.5 -37.5t-15.5 -38t-37.5 -15zM502 811q-22 0 -37 14.5t-15 38.5q0 23 15 37.5t37 14.5q24 0 38.5 -15 t14.5 -37q0 -23 -15.5 -38t-37.5 -15z" />
<glyph unicode="&#xc5;" horiz-adv-x="798" d="M500 794q0 -34 -20 -61.5t-50 -37.5q15 -14 25 -32l296 -663h-76l-89 200h-386l-87 -200h-75l309 699q-26 12 -42.5 37.5t-16.5 57.5q0 43 30.5 75t76.5 32q45 0 75 -32t30 -75zM226 261h333l-166 375zM395 850q-25 0 -40.5 -16.5t-15.5 -39.5q0 -22 16 -38t40 -16 q21 0 37.5 15.5t16.5 38.5t-16.5 39.5t-37.5 16.5z" />
<glyph unicode="&#xc6;" horiz-adv-x="955" d="M344 718q8 0 17 -1t13 -1h414v-60h-360l57 -252h367v-60h-353l63 -284h364v-60h-418l-45 200h-275l-87 -200h-75zM214 261h235l-84 372z" />
<glyph unicode="&#xc7;" horiz-adv-x="694" d="M51 431q0 119 82 209.5t203 90.5h82q96 0 164.5 -64.5t68.5 -164.5h-68q0 70 -49 119.5t-116 49.5h-82q-88 0 -152.5 -73.5t-64.5 -166.5v-197q0 -73 49.5 -131t116.5 -58h84q92 0 154.5 61.5t62.5 148.5h68q0 -119 -82.5 -193.5t-190.5 -76.5v-2q8 -23 30 -36t33 -28 q11 -16 11 -38q0 -44 -28 -59q-29 -15 -67 -15h-12q-86 7 -86 87h59q0 -15 7.5 -24.5t19.5 -9.5h12q23 0 29.5 5.5t6.5 16.5q0 12 -11 22t-24 17t-24 23.5t-11 40.5h-41q-94 0 -164 73.5t-70 175.5v197z" />
<glyph unicode="&#xc8;" horiz-adv-x="705" d="M130 0q-27 0 -45.5 21t-18.5 45v650h573v-60h-505v-252h431v-60h-431v-284h505v-60h-509zM447 820h-70l-111 166h71z" />
<glyph unicode="&#xc9;" horiz-adv-x="705" d="M130 0q-27 0 -45.5 21t-18.5 45v650h573v-60h-505v-252h431v-60h-431v-284h505v-60h-509zM377 986h70l-110 -166h-71z" />
<glyph unicode="&#xca;" horiz-adv-x="705" d="M130 0q-27 0 -45.5 21t-18.5 45v650h573v-60h-505v-252h431v-60h-431v-284h505v-60h-509zM337 995h58l124 -176h-65l-89 131l-87 -131h-65z" />
<glyph unicode="&#xcb;" horiz-adv-x="705" d="M130 0q-27 0 -45.5 21t-18.5 45v650h573v-60h-505v-252h431v-60h-431v-284h505v-60h-509zM256 811q-23 0 -38 15.5t-15 37.5t14.5 37t38.5 15q22 0 37.5 -14.5t15.5 -37.5t-15.5 -38t-37.5 -15zM471 811q-22 0 -37 14.5t-15 38.5q0 23 15 37.5t37 14.5q24 0 38.5 -15 t14.5 -37q0 -23 -15.5 -38t-37.5 -15z" />
<glyph unicode="&#xcc;" horiz-adv-x="195" d="M66 716h68v-716h-68v716zM184 818h-70l-111 166h71z" />
<glyph unicode="&#xcd;" horiz-adv-x="200" d="M68 716h68v-716h-68v716zM117 984h70l-110 -166h-71z" />
<glyph unicode="&#xce;" horiz-adv-x="293" d="M108 716h68v-716h-68v716zM118 995h58l124 -176h-65l-89 131l-87 -131h-65z" />
<glyph unicode="&#xcf;" horiz-adv-x="330" d="M129 716h68v-716h-68v716zM59 811q-23 0 -38 15.5t-15 37.5t14.5 37t38.5 15q22 0 37.5 -14.5t15.5 -37.5t-15.5 -38t-37.5 -15zM274 811q-22 0 -37 14.5t-15 38.5q0 23 15 37.5t37 14.5q24 0 38.5 -15t14.5 -37q0 -23 -15.5 -38t-37.5 -15z" />
<glyph unicode="&#xd0;" horiz-adv-x="803" d="M669 481q0 74 -50.5 124.5t-116.5 50.5h-300v-258h253v-63h-253v-275h250q88 0 152.5 65.5t64.5 160.5v195zM197 0q-24 0 -43.5 20t-19.5 46v269h-68v63h68v318h368q103 0 169 -69t66 -166v-195q0 -122 -84.5 -204t-200.5 -82h-255z" />
<glyph unicode="&#xd1;" horiz-adv-x="735" d="M598 115v603h71v-718h-68l-467 603v-603h-68v718h68zM425 841q17 0 28 15t11 37h51q-4 -99 -99 -99q-19 0 -37 12t-29 26.5t-26 26.5t-31 12q-13 0 -26 -12.5t-13 -40.5h-51q7 100 97 100q23 0 43 -12t31.5 -26.5t25 -26.5t25.5 -12z" />
<glyph unicode="&#xd2;" horiz-adv-x="706" d="M421 731q95 0 165 -73.5t70 -176.5v-195q0 -119 -83.5 -210t-201.5 -91h-83q-98 0 -166.5 74t-68.5 176v195q0 119 83 210t203 91h82zM371 45q87 0 152 74.5t65 166.5v195q0 72 -50 131t-117 59h-82q-85 0 -151.5 -73t-66.5 -168v-195q0 -74 49.5 -132t117.5 -58h83z M432 818h-70l-111 166h71z" />
<glyph unicode="&#xd3;" horiz-adv-x="706" d="M421 731q95 0 165 -73.5t70 -176.5v-195q0 -119 -83.5 -210t-201.5 -91h-83q-98 0 -166.5 74t-68.5 176v195q0 119 83 210t203 91h82zM371 45q87 0 152 74.5t65 166.5v195q0 72 -50 131t-117 59h-82q-85 0 -151.5 -73t-66.5 -168v-195q0 -74 49.5 -132t117.5 -58h83z M362 984h70l-110 -166h-71z" />
<glyph unicode="&#xd4;" horiz-adv-x="706" d="M421 731q95 0 165 -73.5t70 -176.5v-195q0 -119 -83.5 -210t-201.5 -91h-83q-98 0 -166.5 74t-68.5 176v195q0 119 83 210t203 91h82zM371 45q87 0 152 74.5t65 166.5v195q0 72 -50 131t-117 59h-82q-85 0 -151.5 -73t-66.5 -168v-195q0 -74 49.5 -132t117.5 -58h83z M315 995h58l124 -176h-65l-89 131l-87 -131h-65z" />
<glyph unicode="&#xd5;" horiz-adv-x="706" d="M421 731q95 0 165 -73.5t70 -176.5v-195q0 -119 -83.5 -210t-201.5 -91h-83q-98 0 -166.5 74t-68.5 176v195q0 119 83 210t203 91h82zM371 45q87 0 152 74.5t65 166.5v195q0 72 -50 131t-117 59h-82q-85 0 -151.5 -73t-66.5 -168v-195q0 -74 49.5 -132t117.5 -58h83z M421 841q17 0 28 15t11 37h51q-4 -99 -99 -99q-19 0 -37 12t-29 26.5t-26 26.5t-31 12q-13 0 -26 -12.5t-13 -40.5h-51q7 100 97 100q23 0 43 -12t31.5 -26.5t25 -26.5t25.5 -12z" />
<glyph unicode="&#xd6;" horiz-adv-x="706" d="M421 731q95 0 165 -73.5t70 -176.5v-195q0 -119 -83.5 -210t-201.5 -91h-83q-98 0 -166.5 74t-68.5 176v195q0 119 83 210t203 91h82zM371 45q87 0 152 74.5t65 166.5v195q0 72 -50 131t-117 59h-82q-85 0 -151.5 -73t-66.5 -168v-195q0 -74 49.5 -132t117.5 -58h83z M243 811q-23 0 -38 15.5t-15 37.5t14.5 37t38.5 15q22 0 37.5 -14.5t15.5 -37.5t-15.5 -38t-37.5 -15zM458 811q-22 0 -37 14.5t-15 38.5q0 23 15 37.5t37 14.5q24 0 38.5 -15t14.5 -37q0 -23 -15.5 -38t-37.5 -15z" />
<glyph unicode="&#xd7;" horiz-adv-x="646" d="M280 333q-13 11 -80.5 79t-78.5 81l43 44l160 -160l161 160l35 -37l9 -7l-160 -160q0 -1 160 -161l-44 -44l-161 161l-160 -161l-36 35l-7 9z" />
<glyph unicode="&#xd8;" horiz-adv-x="717" d="M288 -15q-67 0 -125 39l-35 -50h-68l59 88q-66 69 -66 173v195q0 119 83 210t203 91h82q70 0 128 -42l33 50h66l-59 -86q67 -76 67 -172v-195q0 -119 -83.5 -210t-201.5 -91h-83zM339 671q-85 0 -151.5 -73t-66.5 -168v-195q0 -66 37 -116l355 517q-45 35 -92 35h-82z M371 45q87 0 152 74.5t65 166.5v195q0 61 -38 114l-353 -518q41 -32 91 -32h83z" />
<glyph unicode="&#xd9;" horiz-adv-x="720" d="M294 -15q-98 0 -166.5 74t-68.5 176v481h68v-481q0 -74 49.5 -132t117.5 -58h83q87 0 152 74.5t65 166.5v430h68v-430q0 -122 -84 -211.5t-201 -89.5h-83zM444 818h-70l-111 166h71z" />
<glyph unicode="&#xda;" horiz-adv-x="720" d="M294 -15q-98 0 -166.5 74t-68.5 176v481h68v-481q0 -74 49.5 -132t117.5 -58h83q87 0 152 74.5t65 166.5v430h68v-430q0 -122 -84 -211.5t-201 -89.5h-83zM376 984h70l-110 -166h-71z" />
<glyph unicode="&#xdb;" horiz-adv-x="720" d="M294 -15q-98 0 -166.5 74t-68.5 176v481h68v-481q0 -74 49.5 -132t117.5 -58h83q87 0 152 74.5t65 166.5v430h68v-430q0 -122 -84 -211.5t-201 -89.5h-83zM332 995h58l124 -176h-65l-89 131l-87 -131h-65z" />
<glyph unicode="&#xdc;" horiz-adv-x="720" d="M294 -15q-98 0 -166.5 74t-68.5 176v481h68v-481q0 -74 49.5 -132t117.5 -58h83q87 0 152 74.5t65 166.5v430h68v-430q0 -122 -84 -211.5t-201 -89.5h-83zM253 811q-23 0 -38 15.5t-15 37.5t14.5 37t38.5 15q22 0 37.5 -14.5t15.5 -37.5t-15.5 -38t-37.5 -15zM468 811 q-22 0 -37 14.5t-15 38.5q0 23 15 37.5t37 14.5q24 0 38.5 -15t14.5 -37q0 -23 -15.5 -38t-37.5 -15z" />
<glyph unicode="&#xdd;" horiz-adv-x="678" d="M372 0h-68v357l-266 359h77l223 -301l226 301h77l-269 -359v-357zM353 984h70l-110 -166h-71z" />
<glyph unicode="&#xde;" horiz-adv-x="595" d="M537 389q0 -114 -79 -168t-205 -54h-95v-167h-68v733h68v-145h134q100 0 172.5 -51t72.5 -148zM469 389q0 67 -54.5 103t-122.5 36h-134v-300h95q216 0 216 161z" />
<glyph unicode="&#xdf;" horiz-adv-x="605" d="M270 668q-56 0 -96 -45.5t-40 -105.5v-707h-68v707q0 85 59.5 148t144.5 63h60q67 0 117 -50t50 -125v-69q-73 -32 -93 -51q-18 -18 -18 -40q0 -17 5 -29.5t10 -18.5t23.5 -22.5t29.5 -27.5q13 -13 34.5 -30.5t31.5 -27.5t18.5 -30.5t8.5 -49.5q0 -27 -8.5 -54.5t-28 -55 t-58 -44.5t-90.5 -17q-39 0 -80 13t-65 27l30 61q61 -33 115 -33q60 0 88.5 33t28.5 65q0 20 -6 33.5t-12 19.5t-25 20.5t-31 24.5q-44 39 -65.5 71.5t-21.5 71.5q0 73 112 133v27q0 39 -30 77t-70 38h-60z" />
<glyph unicode="&#xe0;" horiz-adv-x="530" d="M48 308q0 87 60.5 149t143.5 62h60q42 0 61 -19l39 -36v47h67v-514h-67v72q-21 -30 -65.5 -53.5t-85.5 -23.5h-61q-67 0 -109.5 51.5t-42.5 123.5v141zM261 53q54 0 100 44t51 100v147q-5 43 -34 78.5t-66 35.5h-60q-60 0 -98 -47.5t-38 -102.5v-141q0 -39 21 -76.5 t63 -37.5h61zM357 591h-70l-111 166h71z" />
<glyph unicode="&#xe1;" horiz-adv-x="533" d="M48 308q0 87 60.5 149t143.5 62h60q42 0 61 -19l39 -36v47h67v-514h-67v72q-21 -30 -65.5 -53.5t-85.5 -23.5h-61q-67 0 -109.5 51.5t-42.5 123.5v141zM261 53q54 0 100 44t51 100v147q-5 43 -34 78.5t-66 35.5h-60q-60 0 -98 -47.5t-38 -102.5v-141q0 -39 21 -76.5 t63 -37.5h61zM287 757h70l-110 -166h-71z" />
<glyph unicode="&#xe2;" horiz-adv-x="533" d="M48 308q0 87 60.5 149t143.5 62h60q42 0 61 -19l39 -36v47h67v-514h-67v72q-21 -30 -65.5 -53.5t-85.5 -23.5h-61q-67 0 -109.5 51.5t-42.5 123.5v141zM261 53q54 0 100 44t51 100v147q-5 43 -34 78.5t-66 35.5h-60q-60 0 -98 -47.5t-38 -102.5v-141q0 -39 21 -76.5 t63 -37.5h61zM243 769h58l124 -176h-65l-89 131l-87 -131h-65z" />
<glyph unicode="&#xe3;" horiz-adv-x="533" d="M48 308q0 87 60.5 149t143.5 62h60q42 0 61 -19l39 -36v47h67v-514h-67v72q-21 -30 -65.5 -53.5t-85.5 -23.5h-61q-67 0 -109.5 51.5t-42.5 123.5v141zM261 53q54 0 100 44t51 100v147q-5 43 -34 78.5t-66 35.5h-60q-60 0 -98 -47.5t-38 -102.5v-141q0 -39 21 -76.5 t63 -37.5h61zM335 615q17 0 28 15t11 37h51q-4 -99 -99 -99q-19 0 -37 12t-29 26.5t-26 26.5t-31 12q-13 0 -26 -12.5t-13 -40.5h-51q7 100 97 100q23 0 43 -12t31.5 -26.5t25 -26.5t25.5 -12z" />
<glyph unicode="&#xe4;" horiz-adv-x="533" d="M48 308q0 87 60.5 149t143.5 62h60q42 0 61 -19l39 -36v47h67v-514h-67v72q-21 -30 -65.5 -53.5t-85.5 -23.5h-61q-67 0 -109.5 51.5t-42.5 123.5v141zM261 53q54 0 100 44t51 100v147q-5 43 -34 78.5t-66 35.5h-60q-60 0 -98 -47.5t-38 -102.5v-141q0 -39 21 -76.5 t63 -37.5h61zM164 591q-23 0 -38 15.5t-15 37.5t14.5 37t38.5 15q22 0 37.5 -14.5t15.5 -37.5t-15.5 -38t-37.5 -15zM379 591q-22 0 -37 14.5t-15 38.5q0 23 15 37.5t37 14.5q24 0 38.5 -15t14.5 -37q0 -23 -15.5 -38t-37.5 -15z" />
<glyph unicode="&#xe5;" horiz-adv-x="533" d="M48 308q0 87 60.5 149t143.5 62h60q42 0 61 -19l39 -36v47h67v-514h-67v72q-21 -30 -65.5 -53.5t-85.5 -23.5h-61q-67 0 -109.5 51.5t-42.5 123.5v141zM261 53q54 0 100 44t51 100v147q-5 43 -34 78.5t-66 35.5h-60q-60 0 -98 -47.5t-38 -102.5v-141q0 -39 21 -76.5 t63 -37.5h61zM273 587q-50 0 -81 31t-31 78q0 48 31 80t81 32q46 0 77 -31.5t31 -80.5q0 -48 -31 -78.5t-77 -30.5zM273 759q-27 0 -45.5 -18.5t-18.5 -44.5q0 -24 18.5 -42t45.5 -18q25 0 42.5 18t17.5 42q0 27 -18 45t-42 18z" />
<glyph unicode="&#xe6;" horiz-adv-x="905" d="M228 460q-50 0 -83 -35l-38 53q54 42 121 42h92q42 0 80 -24.5t61 -61.5q64 85 162 85h60q67 0 117 -50.5t50 -124.5v-77h-363v-100q0 -40 29 -77t70 -37h61q58 0 96.5 38.5t38.5 96.5h68q0 -86 -62.5 -141t-140.5 -55h-61q-49 0 -87.5 26.5t-59.5 67.5 q-29 -40 -73.5 -66t-97.5 -26h-60q-63 0 -107 41.5t-44 106.5q0 76 63.5 127t138.5 51h160v33q-2 39 -32.5 73t-66.5 34h-92zM268 54q56 0 102.5 46t48.5 99v68h-160q-47 0 -90.5 -38.5t-43.5 -83.5q0 -36 23.5 -63.5t59.5 -27.5h60zM782 344q0 40 -29 77t-70 37h-60 q-59 0 -97.5 -40.5t-38.5 -97.5h295v24z" />
<glyph unicode="&#xe7;" horiz-adv-x="526" d="M234 -106q0 -15 7.5 -24.5t19.5 -9.5h12q23 0 29.5 5.5t6.5 16.5q0 13 -17.5 25t-35.5 30t-18 46v9h-22q-71 0 -119.5 53t-48.5 122v141q0 87 60.5 149t143.5 62h59q72 0 119.5 -44.5t47.5 -115.5h-68q0 40 -29 69.5t-70 29.5h-59q-60 0 -98 -47.5t-38 -102.5v-141 q0 -44 30 -79t70 -35h60q57 0 96.5 35.5t39.5 93.5h67q0 -86 -58.5 -136t-126.5 -52v-11q7 -21 29 -35t33 -29q12 -15 12 -38q0 -44 -28 -59t-67 -15h-12q-86 7 -86 87h59z" />
<glyph unicode="&#xe8;" d="M312 519q70 0 118.5 -52t48.5 -123v-77h-363v-100q0 -44 30 -79t70 -35h60q59 0 97.5 41t38.5 94h67q0 -86 -59.5 -141t-143.5 -55h-60q-71 0 -119.5 53t-48.5 122v141q0 87 60.5 149t143.5 62h60zM412 344q0 38 -30 76t-70 38h-60q-60 0 -98 -41.5t-38 -96.5h296v24z M357 591h-70l-111 166h71z" />
<glyph unicode="&#xe9;" d="M312 519q70 0 118.5 -52t48.5 -123v-77h-363v-100q0 -44 30 -79t70 -35h60q59 0 97.5 41t38.5 94h67q0 -86 -59.5 -141t-143.5 -55h-60q-71 0 -119.5 53t-48.5 122v141q0 87 60.5 149t143.5 62h60zM412 344q0 38 -30 76t-70 38h-60q-60 0 -98 -41.5t-38 -96.5h296v24z M287 757h70l-110 -166h-71z" />
<glyph unicode="&#xea;" d="M312 519q70 0 118.5 -52t48.5 -123v-77h-363v-100q0 -44 30 -79t70 -35h60q59 0 97.5 41t38.5 94h67q0 -86 -59.5 -141t-143.5 -55h-60q-71 0 -119.5 53t-48.5 122v141q0 87 60.5 149t143.5 62h60zM412 344q0 38 -30 76t-70 38h-60q-60 0 -98 -41.5t-38 -96.5h296v24z M243 769h58l124 -176h-65l-89 131l-87 -131h-65z" />
<glyph unicode="&#xeb;" d="M312 519q70 0 118.5 -52t48.5 -123v-77h-363v-100q0 -44 30 -79t70 -35h60q59 0 97.5 41t38.5 94h67q0 -86 -59.5 -141t-143.5 -55h-60q-71 0 -119.5 53t-48.5 122v141q0 87 60.5 149t143.5 62h60zM412 344q0 38 -30 76t-70 38h-60q-60 0 -98 -41.5t-38 -96.5h296v24z M163 592q-23 0 -38 15.5t-15 37.5t14.5 37t38.5 15q22 0 37.5 -14.5t15.5 -37.5t-15.5 -38t-37.5 -15zM378 592q-22 0 -37 14.5t-15 38.5q0 23 15 37.5t37 14.5q24 0 38.5 -15t14.5 -37q0 -23 -15.5 -38t-37.5 -15z" />
<glyph unicode="&#xec;" horiz-adv-x="244" d="M90 0v511h68v-511h-68zM209 591h-70l-111 166h71z" />
<glyph unicode="&#xed;" horiz-adv-x="244" d="M90 0v511h68v-511h-68zM141 757h70l-110 -166h-71z" />
<glyph unicode="&#xee;" horiz-adv-x="244" d="M90 0v511h68v-511h-68zM97 769h58l124 -176h-65l-89 131l-87 -131h-65z" />
<glyph unicode="&#xef;" horiz-adv-x="244" d="M90 0v511h68v-511h-68zM20 592q-23 0 -38 15.5t-15 37.5t14.5 37t38.5 15q22 0 37.5 -14.5t15.5 -37.5t-15.5 -38t-37.5 -15zM235 592q-22 0 -37 14.5t-15 38.5q0 23 15 37.5t37 14.5q24 0 38.5 -15t14.5 -37q0 -23 -15.5 -38t-37.5 -15z" />
<glyph unicode="&#xf0;" horiz-adv-x="627" d="M167 791q98 -40 159 -84l71 34q31 14 72 35l24 -52l-118 -53q2 -1 3 -2t1.5 -2t1.5 -2q195 -162 195 -389q0 -138 -79 -214t-193 -76q-115 0 -187 77t-72 192q0 127 81.5 204.5t182.5 77.5q93 0 155 -50q-48 79 -146 155l-86 -42l-86 -38l-21 50l140 65q-50 32 -125 59z M303 42q93 0 150 60.5t57 165.5q-6 157 -111 192q-59 20 -102 20q-84 0 -137.5 -66.5t-53.5 -157.5q0 -99 58.5 -156.5t138.5 -57.5z" />
<glyph unicode="&#xf1;" horiz-adv-x="542" d="M321 519q70 0 118.5 -52t48.5 -123v-344h-67v347q0 37 -29 74t-71 37h-60q-47 0 -87 -34.5t-52 -90.5v-333h-68v511h68v-54q66 62 139 62h60zM341 615q17 0 28 15t11 37h51q-4 -99 -99 -99q-19 0 -37 12t-29 26.5t-26 26.5t-31 12q-13 0 -26 -12.5t-13 -40.5h-51 q7 100 97 100q23 0 43 -12t31.5 -26.5t25 -26.5t25.5 -12z" />
<glyph unicode="&#xf2;" d="M312 519q70 0 118.5 -52t48.5 -123v-141q0 -89 -60.5 -150t-142.5 -61h-60q-71 0 -119.5 53t-48.5 122v141q0 87 60.5 149t143.5 62h60zM276 53q58 0 97 47.5t39 102.5v141q0 38 -30 76t-70 38h-60q-60 0 -98 -47.5t-38 -102.5v-141q0 -44 30 -79t70 -35h60zM357 591h-70 l-111 166h71z" />
<glyph unicode="&#xf3;" d="M312 519q70 0 118.5 -52t48.5 -123v-141q0 -89 -60.5 -150t-142.5 -61h-60q-71 0 -119.5 53t-48.5 122v141q0 87 60.5 149t143.5 62h60zM276 53q58 0 97 47.5t39 102.5v141q0 38 -30 76t-70 38h-60q-60 0 -98 -47.5t-38 -102.5v-141q0 -44 30 -79t70 -35h60zM287 757h70 l-110 -166h-71z" />
<glyph unicode="&#xf4;" d="M312 519q70 0 118.5 -52t48.5 -123v-141q0 -89 -60.5 -150t-142.5 -61h-60q-71 0 -119.5 53t-48.5 122v141q0 87 60.5 149t143.5 62h60zM276 53q58 0 97 47.5t39 102.5v141q0 38 -30 76t-70 38h-60q-60 0 -98 -47.5t-38 -102.5v-141q0 -44 30 -79t70 -35h60zM242 769h58 l124 -176h-65l-89 131l-87 -131h-65z" />
<glyph unicode="&#xf5;" d="M312 519q70 0 118.5 -52t48.5 -123v-141q0 -89 -60.5 -150t-142.5 -61h-60q-71 0 -119.5 53t-48.5 122v141q0 87 60.5 149t143.5 62h60zM276 53q58 0 97 47.5t39 102.5v141q0 38 -30 76t-70 38h-60q-60 0 -98 -47.5t-38 -102.5v-141q0 -44 30 -79t70 -35h60zM337 624 q17 0 28 15t11 37h51q-4 -99 -99 -99q-19 0 -37 12t-29 26.5t-26 26.5t-31 12q-13 0 -26 -12.5t-13 -40.5h-51q7 100 97 100q23 0 43 -12t31.5 -26.5t25 -26.5t25.5 -12z" />
<glyph unicode="&#xf6;" d="M312 519q70 0 118.5 -52t48.5 -123v-141q0 -89 -60.5 -150t-142.5 -61h-60q-71 0 -119.5 53t-48.5 122v141q0 87 60.5 149t143.5 62h60zM276 53q58 0 97 47.5t39 102.5v141q0 38 -30 76t-70 38h-60q-60 0 -98 -47.5t-38 -102.5v-141q0 -44 30 -79t70 -35h60zM164 592 q-23 0 -38 15.5t-15 37.5t14.5 37t38.5 15q22 0 37.5 -14.5t15.5 -37.5t-15.5 -38t-37.5 -15zM379 592q-22 0 -37 14.5t-15 38.5q0 23 15 37.5t37 14.5q24 0 38.5 -15t14.5 -37q0 -23 -15.5 -38t-37.5 -15z" />
<glyph unicode="&#xf7;" horiz-adv-x="646" d="M56 300v63h464v-63h-464zM295 425q-22 0 -37 14.5t-15 38.5q0 22 14.5 37.5t37.5 15.5t38 -15.5t15 -37.5q0 -23 -15.5 -38t-37.5 -15zM295 124q-23 0 -37.5 15t-14.5 37q0 24 15 38.5t37 14.5q23 0 38 -15.5t15 -37.5t-14.5 -37t-38.5 -15z" />
<glyph unicode="&#xf8;" horiz-adv-x="541" d="M485 203q0 -89 -60.5 -150t-142.5 -61h-60q-46 0 -83 23l-29 -41h-71l56 80q-41 50 -41 113v141q0 87 60.5 149t143.5 62h60q45 0 83 -25l30 43h68l-56 -80q42 -48 42 -113v-141zM282 53q59 0 97.5 48t38.5 102v141q0 28 -16 54l-227 -330q19 -15 47 -15h60zM258 458 q-60 0 -98 -47.5t-38 -102.5v-141q0 -29 14 -54l229 329q-20 16 -47 16h-60z" />
<glyph unicode="&#xf9;" horiz-adv-x="538" d="M217 -8q-67 0 -115 51t-48 124v344h68v-347q0 -40 26.5 -75.5t68.5 -35.5h60q50 0 90.5 37t48.5 88v333h68v-511h-68v65q-22 -30 -60 -51.5t-79 -21.5h-60zM357 591h-70l-111 166h71z" />
<glyph unicode="&#xfa;" horiz-adv-x="538" d="M217 -8q-67 0 -115 51t-48 124v344h68v-347q0 -40 26.5 -75.5t68.5 -35.5h60q50 0 90.5 37t48.5 88v333h68v-511h-68v65q-22 -30 -60 -51.5t-79 -21.5h-60zM287 757h70l-110 -166h-71z" />
<glyph unicode="&#xfb;" horiz-adv-x="538" d="M217 -8q-67 0 -115 51t-48 124v344h68v-347q0 -40 26.5 -75.5t68.5 -35.5h60q50 0 90.5 37t48.5 88v333h68v-511h-68v65q-22 -30 -60 -51.5t-79 -21.5h-60zM243 769h58l124 -176h-65l-89 131l-87 -131h-65z" />
<glyph unicode="&#xfc;" horiz-adv-x="538" d="M217 -8q-67 0 -115 51t-48 124v344h68v-347q0 -40 26.5 -75.5t68.5 -35.5h60q50 0 90.5 37t48.5 88v333h68v-511h-68v65q-22 -30 -60 -51.5t-79 -21.5h-60zM163 592q-23 0 -38 15.5t-15 37.5t14.5 37t38.5 15q22 0 37.5 -14.5t15.5 -37.5t-15.5 -38t-37.5 -15zM378 592 q-22 0 -37 14.5t-15 38.5q0 23 15 37.5t37 14.5q24 0 38.5 -15t14.5 -37q0 -23 -15.5 -38t-37.5 -15z" />
<glyph unicode="&#xfd;" horiz-adv-x="539" d="M484 -9q0 -70 -66.5 -124t-140.5 -54h-60q-58 0 -100 32t-58 80h80q34 -55 83 -55h60q49 0 91.5 35t42.5 86v101q-64 -62 -139 -62h-60q-66 0 -114.5 50.5t-48.5 124.5v306h68v-309q0 -42 27 -76t68 -34h60q48 0 89.5 36t49.5 88v295h68v-520zM287 757h70l-110 -166h-71z " />
<glyph unicode="&#xfe;" horiz-adv-x="664" d="M392 519q67 0 117 -50.5t50 -124.5v-141q0 -89 -60.5 -150t-142.5 -61h-61q-56 0 -99 35v-255h-68v944h68v-252q57 55 136 55h60zM356 53q58 0 96.5 47t38.5 103v141q0 42 -30.5 78t-68.5 36h-60q-56 0 -96 -44.5t-40 -99.5v-147q0 -45 30.5 -79.5t68.5 -34.5h61z" />
<glyph unicode="&#xff;" horiz-adv-x="539" d="M484 -9q0 -70 -66.5 -124t-140.5 -54h-60q-58 0 -100 32t-58 80h80q34 -55 83 -55h60q49 0 91.5 35t42.5 86v101q-64 -62 -139 -62h-60q-66 0 -114.5 50.5t-48.5 124.5v306h68v-309q0 -42 27 -76t68 -34h60q48 0 89.5 36t49.5 88v295h68v-520zM163 592q-23 0 -38 15.5 t-15 37.5t14.5 37t38.5 15q22 0 37.5 -14.5t15.5 -37.5t-15.5 -38t-37.5 -15zM378 592q-22 0 -37 14.5t-15 38.5q0 23 15 37.5t37 14.5q24 0 38.5 -15t14.5 -37q0 -23 -15.5 -38t-37.5 -15z" />
<glyph unicode="&#x131;" horiz-adv-x="248" d="M90 0v511h68v-511h-68z" />
<glyph unicode="&#x152;" horiz-adv-x="1132" d="M54 430q0 123 86 204.5t201 81.5h729v-68h-479v-241h405v-68h-405v-271h479v-68h-781q-96 0 -165.5 66t-69.5 169v195zM122 235q0 -68 47 -117.5t120 -49.5h83q89 0 151 60v487q-45 33 -101 33h-81q-95 0 -157 -65t-62 -153v-195z" />
<glyph unicode="&#x153;" horiz-adv-x="919" d="M680 519q67 0 117 -50.5t50 -124.5v-77h-363v-100q0 -45 30.5 -79.5t68.5 -34.5h61q59 0 97 40t38 95h68q0 -86 -59.5 -141t-143.5 -55h-61q-46 0 -83 23.5t-58 59.5q-66 -83 -162 -83h-60q-67 0 -117 50.5t-50 124.5v141q0 89 60.5 150t142.5 61h61q91 0 141 -85 q62 85 162 85h60zM280 53q60 0 98 47.5t38 102.5v141q0 41 -31 77.5t-68 36.5h-61q-58 0 -96.5 -47t-38.5 -103v-141q0 -45 30.5 -79.5t68.5 -34.5h60zM779 344q0 42 -31 78t-68 36h-60q-60 0 -98 -41.5t-38 -96.5h295v24z" />
<glyph unicode="&#x178;" horiz-adv-x="678" d="M372 0h-68v357l-266 359h77l223 -301l226 301h77l-269 -359v-357zM228 811q-23 0 -38 15.5t-15 37.5t14.5 37t38.5 15q22 0 37.5 -14.5t15.5 -37.5t-15.5 -38t-37.5 -15zM443 811q-22 0 -37 14.5t-15 38.5q0 23 15 37.5t37 14.5q24 0 38.5 -15t14.5 -37q0 -23 -15.5 -38 t-37.5 -15z" />
<glyph unicode="&#x2c6;" horiz-adv-x="483" d="M222 921h58l124 -176h-65l-89 131l-87 -131h-65z" />
<glyph unicode="&#x2da;" horiz-adv-x="419" d="M210 598q-50 0 -81 31t-31 78q0 48 31 80t81 32q46 0 77 -31.5t31 -80.5q0 -48 -31 -78.5t-77 -30.5zM210 770q-27 0 -45.5 -18.5t-18.5 -44.5q0 -24 18.5 -42t45.5 -18q25 0 42.5 18t17.5 42q0 27 -18 45t-42 18z" />
<glyph unicode="&#x2dc;" horiz-adv-x="325" d="M231 647q17 0 28 15t11 37h51q-4 -99 -99 -99q-19 0 -37 12t-29 26.5t-26 26.5t-31 12q-13 0 -26 -12.5t-13 -40.5h-51q7 100 97 100q23 0 43 -12t31.5 -26.5t25 -26.5t25.5 -12z" />
<glyph unicode="&#x300;" horiz-adv-x="179" d="M176 565h-70l-111 166h71z" />
<glyph unicode="&#x301;" horiz-adv-x="179" d="M106 731h70l-110 -166h-71z" />
<glyph unicode="&#x303;" horiz-adv-x="325" d="M231 647q17 0 28 15t11 37h51q-4 -99 -99 -99q-19 0 -37 12t-29 26.5t-26 26.5t-31 12q-13 0 -26 -12.5t-13 -40.5h-51q7 100 97 100q23 0 43 -12t31.5 -26.5t25 -26.5t25.5 -12z" />
<glyph unicode="&#x2000;" horiz-adv-x="524" />
<glyph unicode="&#x2001;" horiz-adv-x="1048" />
<glyph unicode="&#x2002;" horiz-adv-x="524" />
<glyph unicode="&#x2003;" horiz-adv-x="1048" />
<glyph unicode="&#x2004;" horiz-adv-x="349" />
<glyph unicode="&#x2005;" horiz-adv-x="262" />
<glyph unicode="&#x2006;" horiz-adv-x="174" />
<glyph unicode="&#x2007;" horiz-adv-x="174" />
<glyph unicode="&#x2008;" horiz-adv-x="131" />
<glyph unicode="&#x2009;" horiz-adv-x="209" />
<glyph unicode="&#x200a;" horiz-adv-x="58" />
<glyph unicode="&#x2010;" horiz-adv-x="357" d="M42 282v69h272v-69h-272z" />
<glyph unicode="&#x2011;" horiz-adv-x="357" d="M42 282v69h272v-69h-272z" />
<glyph unicode="&#x2013;" horiz-adv-x="542" d="M32 249v60h478v-60h-478z" />
<glyph unicode="&#x2014;" horiz-adv-x="1085" d="M33 249v60h1015v-60h-1015z" />
<glyph unicode="&#x2018;" horiz-adv-x="171" d="M155 722l-21 -18q-15 -12 -22 -19.5t-17 -20.5t-14 -29.5t-4 -37.5v-41h-62v41q0 34 7.5 61t23.5 46.5t26 29.5t30 23l19 13z" />
<glyph unicode="&#x2019;" horiz-adv-x="171" d="M15 604q5 5 22.5 19.5t27.5 24.5t19 32t9 50v40h62v-40q0 -28 -6.5 -53t-15 -40.5t-22.5 -31t-22.5 -22.5t-23 -16.5t-15.5 -10.5z" />
<glyph unicode="&#x201a;" horiz-adv-x="180" d="M23 -72q4 4 21 17.5t27 24t20 33t10 50.5v40h62v-40q0 -28 -6.5 -52.5t-14.5 -40t-22 -31t-22.5 -22t-23.5 -16.5t-17 -12z" />
<glyph unicode="&#x201c;" horiz-adv-x="396" d="M155 722l-21 -18q-15 -12 -22 -19.5t-17 -20.5t-14 -29.5t-4 -37.5v-41h-62v41q0 34 7.5 61t23.5 46.5t26 29.5t30 23l19 13zM329 722q-3 -3 -23.5 -19.5t-28.5 -26t-17.5 -31.5t-9.5 -48v-41h-62v41q0 28 6.5 52.5t15 40t22 30.5t22.5 22l24 16l16 12z" />
<glyph unicode="&#x201d;" horiz-adv-x="396" d="M15 604q5 5 22.5 19.5t27.5 24.5t19 32t9 50v40h62v-40q0 -28 -6.5 -53t-15 -40.5t-22.5 -31t-22.5 -22.5t-23 -16.5t-15.5 -10.5zM188 604q4 4 21.5 18t28 24.5t20 33t9.5 50.5v40h62v-40q0 -28 -6.5 -52.5t-15.5 -40.5t-23 -31.5t-24 -22.5l-22 -17q-13 -9 -15 -10z " />
<glyph unicode="&#x201e;" horiz-adv-x="351" d="M23 -72q4 4 21 17.5t27 24t20 33t10 50.5v40h62v-40q0 -28 -6.5 -52.5t-14.5 -40t-22 -31t-22.5 -22t-23.5 -16.5t-17 -12zM196 -72q3 3 23 18.5t28 25t17.5 31.5t9.5 50v40h62v-40q0 -100 -75 -153l-30 -21z" />
<glyph unicode="&#x2022;" horiz-adv-x="526" d="M95 164v385l357 -193z" />
<glyph unicode="&#x2026;" horiz-adv-x="1132" d="M185 -8q-23 0 -37.5 15.5t-14.5 37.5q0 24 15 38.5t37 14.5q23 0 38 -15.5t15 -37.5t-15 -37.5t-38 -15.5zM565 -8q-23 0 -37.5 15.5t-14.5 37.5q0 24 15 38.5t37 14.5q23 0 38 -15.5t15 -37.5t-15 -37.5t-38 -15.5zM942 -8q-23 0 -38 15.5t-15 37.5q0 23 15.5 38 t37.5 15q23 0 38 -15.5t15 -37.5t-15 -37.5t-38 -15.5z" />
<glyph unicode="&#x202f;" horiz-adv-x="209" />
<glyph unicode="&#x2039;" horiz-adv-x="328" d="M300 540v-85l-182 -181l182 -181v-84l-270 265z" />
<glyph unicode="&#x203a;" horiz-adv-x="328" d="M300 274l-270 -265v84l183 181l-183 181v85z" />
<glyph unicode="&#x205f;" horiz-adv-x="262" />
<glyph unicode="&#x20ac;" horiz-adv-x="532" d="M89 469q12 104 94 175.5t189 71.5h127v-68h-127q-85 0 -143.5 -53t-70.5 -126h266v-70h-269v-82h269v-70h-269v-13q0 -67 46.5 -116.5t119.5 -49.5h181v-68h-181q-97 0 -165.5 67.5t-68.5 166.5v13h-63v70h63v82h-63v70h65z" />
<glyph unicode="&#x2122;" horiz-adv-x="859" d="M819 297h-52v313l-175 -328l-174 328v-313h-53v436h51l176 -324l177 322h50v-434zM151 680h-131v51h313v-51h-130v-383h-52v383z" />
</font>
</defs>
</svg>
