<?xml version="1.0" encoding="UTF-8" standalone="no"?>
<!-- Created with Inkscape (http://www.inkscape.org/) -->
<svg xmlns:dc="http://purl.org/dc/elements/1.1/" xmlns:cc="http://creativecommons.org/ns#" xmlns:rdf="http://www.w3.org/1999/02/22-rdf-syntax-ns#" xmlns:svg="http://www.w3.org/2000/svg" xmlns="http://www.w3.org/2000/svg" xmlns:sodipodi="http://sodipodi.sourceforge.net/DTD/sodipodi-0.dtd" xmlns:inkscape="http://www.inkscape.org/namespaces/inkscape" id="svg3415" version="1.1" inkscape:version="0.47 r22583" width="290.55124" height="124.01625" xml:space="preserve" sodipodi:docname="ubuntuwebsitebutton.xcf"><metadata id="metadata3421"><rdf:RDF><cc:Work rdf:about=""><dc:format>image/svg+xml</dc:format><dc:type rdf:resource="http://purl.org/dc/dcmitype/StillImage"/><dc:title/></cc:Work></rdf:RDF></metadata><defs id="defs3419"><inkscape:perspective sodipodi:type="inkscape:persp3d" inkscape:vp_x="0 : 0.5 : 1" inkscape:vp_y="0 : 1000 : 0" inkscape:vp_z="1 : 0.5 : 1" inkscape:persp3d-origin="0.5 : 0.33333333 : 1" id="perspective3423"/></defs><sodipodi:namedview pagecolor="#ffffff" bordercolor="#666666" borderopacity="1" objecttolerance="10" gridtolerance="10" guidetolerance="10" inkscape:pageopacity="0" inkscape:pageshadow="2" inkscape:window-width="1280" inkscape:window-height="749" id="namedview3417" showgrid="false" inkscape:zoom="2.5375491" inkscape:cx="136.77199" inkscape:cy="93.970079" inkscape:window-x="0" inkscape:window-y="24" inkscape:window-maximized="1" inkscape:current-layer="g3425"/><g id="g3425" inkscape:groupmode="layer" inkscape:label="ubuntu_brandmark_guidelines_v2" transform="matrix(0, -1.25, -1.25, 0, 684.385, 496.203)"><path d="m 297.74964,315.06741 99.213,0 0,232.441 -99.213,0 0,-232.441 z" style="fill: rgb(72, 24, 45); fill-opacity: 1; fill-rule: nonzero; stroke: none;" id="path3427"/><g id="g3429" transform="translate(357.285, 336.618)"><path d="m 0,0 c -6.257,0 -11.331,5.073 -11.331,11.331 0,6.259 5.074,11.332 11.331,11.332 6.259,0 11.332,-5.073 11.332,-11.332 C 11.332,5.073 6.259,0 0,0" style="fill: rgb(244, 116, 33); fill-opacity: 1; fill-rule: nonzero; stroke: none;" id="path3431"/></g><g id="g3433" transform="translate(362.649, 344.853)"><path d="M 0,0 C -0.418,-0.723 -0.17,-1.648 0.553,-2.066 1.277,-2.484 2.202,-2.236 2.62,-1.512 3.037,-0.789 2.789,0.136 2.066,0.554 1.342,0.972 0.418,0.724 0,0 m -9.783,3.097 c 0,0.665 0.148,1.295 0.412,1.861 l -1.884,1.051 c -0.435,-0.878 -0.681,-1.867 -0.681,-2.912 0,-0.609 0.085,-1.197 0.239,-1.756 0.608,-0.099 1.168,-0.46 1.5,-1.035 0.332,-0.575 0.365,-1.239 0.147,-1.814 1.1,-1.119 2.597,-1.847 4.263,-1.953 l 0.032,2.157 c -2.258,0.198 -4.028,2.092 -4.028,4.401 m 8.839,0 c 0,-2.309 -1.77,-4.203 -4.028,-4.402 l 0.032,-2.156 c 1.667,0.106 3.163,0.834 4.263,1.953 -0.217,0.575 -0.184,1.24 0.147,1.814 0.332,0.575 0.892,0.936 1.5,1.035 0.154,0.559 0.239,1.147 0.239,1.756 0,1.045 -0.246,2.034 -0.681,2.912 L -1.355,4.958 c 0.263,-0.566 0.411,-1.196 0.411,-1.861 m -4.42,4.419 c 1.495,0 2.816,-0.743 3.616,-1.879 L 0.105,6.743 C -0.78,8.066 -2.132,9.051 -3.716,9.46 -4.105,8.983 -4.699,8.677 -5.364,8.677 -6.028,8.677 -6.621,8.983 -7.011,9.46 -8.595,9.052 -9.947,8.067 -10.832,6.743 l 1.853,-1.106 c 0.799,1.136 2.12,1.879 3.615,1.879 M -10.726,0 c -0.418,0.724 -1.343,0.972 -2.066,0.554 -0.724,-0.418 -0.972,-1.343 -0.554,-2.066 0.417,-0.724 1.342,-0.972 2.066,-0.554 0.723,0.417 0.971,1.343 0.554,2.066 m 6.876,10.802 c 0,0.836 -0.678,1.513 -1.514,1.513 -0.835,0 -1.512,-0.677 -1.512,-1.513 0,-0.836 0.677,-1.513 1.512,-1.513 0.836,0 1.514,0.677 1.514,1.513" style="fill: rgb(255, 255, 255); fill-opacity: 1; fill-rule: nonzero; stroke: none;" id="path3435"/></g><g id="g3437" transform="translate(327.553, 503.293)"><path d="m 0,0 c -0.289,1.152 -0.594,2.671 -0.918,4.56 -0.324,1.888 -0.485,4.074 -0.485,6.556 0,2.158 0.315,3.975 0.944,5.45 0.629,1.475 1.519,2.662 2.671,3.561 1.151,0.9 2.509,1.547 4.074,1.943 1.565,0.396 3.3,0.593 5.207,0.593 l 15.756,0 0,-5.018 -14.677,0 c -3.418,0 -5.864,-0.54 -7.338,-1.619 C 3.758,14.947 3.021,13.131 3.021,10.576 3.021,10.037 3.039,9.48 3.076,8.904 3.111,8.329 3.156,7.789 3.21,7.285 3.264,6.782 3.318,6.323 3.372,5.909 3.426,5.496 3.488,5.199 3.561,5.019 l 23.688,0 0,-5.019" style="fill: rgb(255, 255, 255); fill-opacity: 1; fill-rule: nonzero; stroke: none;" id="path3439"/></g><g id="g3441" transform="translate(331.114, 491.045)"><path d="m 0,0 c -0.144,-0.503 -0.279,-1.214 -0.405,-2.131 -0.126,-0.917 -0.189,-2.059 -0.189,-3.426 0,-2.698 0.891,-4.857 2.671,-6.475 1.781,-1.619 4.308,-2.429 7.582,-2.429 1.438,0 2.787,0.145 4.047,0.432 1.258,0.288 2.346,0.755 3.264,1.403 0.917,0.647 1.636,1.484 2.158,2.509 0.521,1.025 0.783,2.258 0.783,3.696 0,1.368 -0.235,2.627 -0.702,3.777 C 18.741,-1.492 18.255,-0.611 17.752,0 L 0,0 z m 22.447,0 c 0.395,-0.611 0.809,-1.537 1.24,-2.778 0.432,-1.242 0.648,-2.671 0.648,-4.29 0,-2.014 -0.36,-3.804 -1.079,-5.369 -0.72,-1.565 -1.727,-2.887 -3.022,-3.966 -1.295,-1.079 -2.842,-1.897 -4.64,-2.455 -1.799,-0.558 -3.777,-0.837 -5.935,-0.837 -2.267,0 -4.309,0.333 -6.125,0.999 -1.817,0.666 -3.354,1.61 -4.613,2.832 -1.26,1.224 -2.231,2.698 -2.914,4.425 -0.683,1.727 -1.025,3.669 -1.025,5.828 0,2.338 0.161,4.407 0.485,6.205 0.324,1.799 0.648,3.274 0.972,4.425 l 40.199,0 L 37.501,0" style="fill: rgb(255, 255, 255); fill-opacity: 1; fill-rule: nonzero; stroke: none;" id="path3443"/></g><g id="g3445" transform="translate(327.553, 443.346)"><path d="m 0,0 c -0.289,1.152 -0.594,2.671 -0.918,4.56 -0.324,1.888 -0.485,4.074 -0.485,6.556 0,2.158 0.315,3.975 0.944,5.45 0.629,1.475 1.519,2.662 2.671,3.561 1.151,0.9 2.509,1.547 4.074,1.942 1.565,0.397 3.3,0.594 5.207,0.594 l 15.756,0 0,-5.018 -14.677,0 c -3.418,0 -5.864,-0.54 -7.338,-1.619 C 3.758,14.947 3.021,13.131 3.021,10.576 3.021,10.037 3.039,9.479 3.076,8.903 3.111,8.328 3.156,7.789 3.21,7.285 3.264,6.781 3.318,6.323 3.372,5.909 3.426,5.496 3.488,5.199 3.561,5.018 l 23.688,0 0,-5.018" style="fill: rgb(255, 255, 255); fill-opacity: 1; fill-rule: nonzero; stroke: none;" id="path3447"/></g><g id="g3449" transform="translate(353.992, 436.116)"><path d="m 0,0 c 0.288,-1.151 0.594,-2.679 0.918,-4.586 0.323,-1.906 0.485,-4.101 0.485,-6.583 0,-2.23 -0.315,-4.082 -0.944,-5.558 -0.63,-1.475 -1.511,-2.652 -2.644,-3.534 -1.133,-0.881 -2.492,-1.502 -4.074,-1.862 -1.583,-0.359 -3.328,-0.539 -5.234,-0.539 l -15.756,0 0,5.018 14.677,0 c 1.726,0 3.201,0.117 4.424,0.351 1.223,0.234 2.213,0.62 2.968,1.16 0.756,0.539 1.304,1.259 1.646,2.158 0.342,0.9 0.513,2.015 0.513,3.345 0,0.54 -0.019,1.099 -0.054,1.673 -0.036,0.576 -0.082,1.125 -0.136,1.646 -0.053,0.522 -0.117,0.99 -0.188,1.403 -0.073,0.414 -0.127,0.711 -0.162,0.89 l -23.688,0 0,5.018" style="fill: rgb(255, 255, 255); fill-opacity: 1; fill-rule: nonzero; stroke: none;" id="path3451"/></g><g id="g3453" transform="translate(354.802, 401.853)"><path d="m 0,0 0,-10.63 -4.209,0 0,10.63 -12.95,0 c -1.403,0 -2.563,-0.107 -3.48,-0.324 -0.918,-0.215 -1.637,-0.539 -2.159,-0.971 -0.522,-0.431 -0.89,-0.971 -1.106,-1.618 -0.216,-0.648 -0.324,-1.403 -0.324,-2.267 0,-1.546 0.171,-2.77 0.513,-3.669 0.341,-0.898 0.584,-1.511 0.728,-1.834 l -4.101,-1.08 c -0.252,0.504 -0.576,1.395 -0.971,2.671 -0.395,1.278 -0.593,2.725 -0.593,4.344 0,1.907 0.242,3.48 0.728,4.721 0.486,1.241 1.214,2.24 2.185,2.995 0.972,0.755 2.167,1.287 3.589,1.592 1.42,0.306 3.066,0.459 4.937,0.459 l 25.037,0 L 8.687,0" style="fill: rgb(255, 255, 255); fill-opacity: 1; fill-rule: nonzero; stroke: none;" id="path3455"/></g><g id="g3457" transform="translate(327.553, 363.92)"><path d="m 0,0 c -0.289,1.152 -0.594,2.672 -0.918,4.56 -0.324,1.889 -0.485,4.074 -0.485,6.556 0,2.158 0.315,3.975 0.944,5.45 0.629,1.475 1.519,2.662 2.671,3.561 1.151,0.9 2.509,1.547 4.074,1.943 1.565,0.396 3.3,0.593 5.207,0.593 l 15.756,0 0,-5.018 -14.677,0 c -3.418,0 -5.864,-0.54 -7.338,-1.619 C 3.758,14.947 3.021,13.131 3.021,10.577 3.021,10.037 3.039,9.48 3.076,8.904 3.111,8.329 3.156,7.789 3.21,7.285 3.264,6.782 3.318,6.323 3.372,5.909 3.426,5.496 3.488,5.199 3.561,5.019 l 23.688,0 0,-5.019" style="fill: rgb(255, 255, 255); fill-opacity: 1; fill-rule: nonzero; stroke: none;" id="path3459"/></g><g id="g3505" transform="translate(475.895, 85.118)"><path d="M 0,0 C -0.418,-0.724 -0.17,-1.649 0.553,-2.066 1.277,-2.484 2.202,-2.237 2.62,-1.513 3.037,-0.789 2.789,0.135 2.066,0.553 1.342,0.971 0.418,0.723 0,0 m -9.783,3.096 c 0,0.665 0.148,1.296 0.412,1.861 l -1.884,1.051 c -0.435,-0.878 -0.681,-1.866 -0.681,-2.912 0,-0.609 0.085,-1.197 0.239,-1.756 0.608,-0.099 1.168,-0.46 1.5,-1.035 0.332,-0.574 0.365,-1.238 0.147,-1.814 1.1,-1.118 2.597,-1.846 4.263,-1.952 l 0.032,2.156 c -2.258,0.198 -4.028,2.092 -4.028,4.401 m 8.839,0 c 0,-2.309 -1.77,-4.203 -4.028,-4.402 l 0.032,-2.155 c 1.667,0.106 3.163,0.834 4.263,1.952 -0.217,0.576 -0.184,1.24 0.147,1.814 0.332,0.575 0.892,0.936 1.5,1.035 0.154,0.559 0.239,1.147 0.239,1.756 0,1.046 -0.246,2.034 -0.681,2.912 L -1.355,4.957 c 0.263,-0.565 0.411,-1.196 0.411,-1.861 m -4.42,4.419 c 1.495,0 2.816,-0.743 3.616,-1.879 L 0.105,6.742 C -0.78,8.066 -2.132,9.05 -3.716,9.46 -4.105,8.982 -4.699,8.676 -5.364,8.676 -6.028,8.676 -6.621,8.982 -7.011,9.46 -8.595,9.051 -9.947,8.066 -10.832,6.742 l 1.853,-1.106 c 0.799,1.136 2.12,1.879 3.615,1.879 m -5.362,-7.516 c -0.418,0.724 -1.343,0.972 -2.066,0.554 -0.724,-0.418 -0.972,-1.342 -0.554,-2.066 0.417,-0.724 1.342,-0.972 2.066,-0.554 0.723,0.418 0.971,1.343 0.554,2.066 m 6.876,10.802 c 0,0.836 -0.678,1.513 -1.514,1.513 -0.835,0 -1.512,-0.677 -1.512,-1.513 0,-0.836 0.677,-1.513 1.512,-1.513 0.836,0 1.514,0.677 1.514,1.513" style="fill: rgb(255, 255, 255); fill-opacity: 1; fill-rule: nonzero; stroke: none;" id="path3507"/></g><g id="g3551" transform="translate(444.36, 747.215)"><path d="m 0,0 c -0.144,-0.503 -0.279,-1.214 -0.405,-2.131 -0.126,-0.918 -0.189,-2.059 -0.189,-3.427 0,-2.698 0.891,-4.856 2.671,-6.475 1.781,-1.618 4.308,-2.428 7.582,-2.428 1.438,0 2.787,0.144 4.047,0.432 1.258,0.288 2.346,0.755 3.264,1.403 0.917,0.647 1.636,1.484 2.158,2.509 0.521,1.025 0.783,2.258 0.783,3.696 0,1.368 -0.235,2.626 -0.702,3.777 C 18.741,-1.492 18.255,-0.611 17.752,0 L 0,0 z m 22.447,0 c 0.395,-0.611 0.809,-1.538 1.24,-2.779 0.432,-1.241 0.648,-2.671 0.648,-4.289 0,-2.015 -0.36,-3.805 -1.079,-5.369 -0.72,-1.565 -1.727,-2.887 -3.022,-3.966 -1.295,-1.08 -2.842,-1.897 -4.64,-2.456 -1.799,-0.557 -3.777,-0.836 -5.935,-0.836 -2.267,0 -4.309,0.333 -6.125,0.998 -1.817,0.666 -3.354,1.611 -4.613,2.833 -1.26,1.224 -2.231,2.698 -2.914,4.425 -0.683,1.726 -1.025,3.669 -1.025,5.827 0,2.339 0.161,4.407 0.485,6.206 0.324,1.799 0.648,3.274 0.972,4.424 l 40.199,0 L 37.501,0" style="fill: rgb(255, 255, 255); fill-opacity: 1; fill-rule: nonzero; stroke: none;" id="path3553"/></g><g id="g3555" transform="translate(440.799, 699.516)"><path d="m 0,0 c -0.289,1.152 -0.594,2.671 -0.918,4.559 -0.324,1.889 -0.485,4.074 -0.485,6.556 0,2.159 0.315,3.976 0.944,5.45 0.629,1.476 1.519,2.663 2.671,3.562 1.151,0.899 2.509,1.547 4.074,1.942 1.565,0.396 3.3,0.594 5.207,0.594 l 15.756,0 0,-5.018 -14.677,0 c -3.418,0 -5.864,-0.54 -7.338,-1.619 C 3.758,14.947 3.021,13.13 3.021,10.576 3.021,10.036 3.039,9.479 3.076,8.903 3.111,8.328 3.156,7.789 3.21,7.284 3.264,6.781 3.318,6.322 3.372,5.908 3.426,5.495 3.488,5.198 3.561,5.018 l 23.688,0 0,-5.018" style="fill: rgb(255, 255, 255); fill-opacity: 1; fill-rule: nonzero; stroke: none;" id="path3557"/></g></g></svg>