<?xml version="1.0" encoding="UTF-8" standalone="no"?>
<!-- Created with Inkscape (http://www.inkscape.org/) -->
<svg
   xmlns:dc="http://purl.org/dc/elements/1.1/"
   xmlns:cc="http://creativecommons.org/ns#"
   xmlns:rdf="http://www.w3.org/1999/02/22-rdf-syntax-ns#"
   xmlns:svg="http://www.w3.org/2000/svg"
   xmlns="http://www.w3.org/2000/svg"
   xmlns:sodipodi="http://sodipodi.sourceforge.net/DTD/sodipodi-0.dtd"
   xmlns:inkscape="http://www.inkscape.org/namespaces/inkscape"
   width="1052.3622"
   height="744.09448"
   id="svg3573"
   sodipodi:version="0.32"
   inkscape:version="0.46"
   version="1.0"
   inkscape:export-filename="F:\TOSS-TShirt\owl-face-02-7inch.png"
   inkscape:export-xdpi="120.01"
   inkscape:export-ydpi="120.01"
   sodipodi:docname="owl-face-02-7inch.svg"
   inkscape:output_extension="org.inkscape.output.svg.inkscape">
  <defs
     id="defs3575">
    <inkscape:perspective
       sodipodi:type="inkscape:persp3d"
       inkscape:vp_x="0 : 526.18109 : 1"
       inkscape:vp_y="0 : 1000 : 0"
       inkscape:vp_z="744.09448 : 526.18109 : 1"
       inkscape:persp3d-origin="372.04724 : 350.78739 : 1"
       id="perspective3581" />
  </defs>
  <sodipodi:namedview
     id="base"
     pagecolor="#0e0000"
     bordercolor="#666666"
     borderopacity="1.0"
     gridtolerance="10000"
     guidetolerance="10"
     objecttolerance="10"
     inkscape:pageopacity="0"
     inkscape:pageshadow="2"
     inkscape:zoom="0.35"
     inkscape:cx="535.48959"
     inkscape:cy="520"
     inkscape:document-units="in"
     inkscape:current-layer="layer1"
     showgrid="false"
     showguides="true"
     inkscape:guide-bbox="true"
     inkscape:window-width="1280"
     inkscape:window-height="718"
     inkscape:window-x="-8"
     inkscape:window-y="-8" />
  <metadata
     id="metadata3578">
    <rdf:RDF>
      <cc:Work
         rdf:about="">
        <dc:format>image/svg+xml</dc:format>
        <dc:type
           rdf:resource="http://purl.org/dc/dcmitype/StillImage" />
      </cc:Work>
    </rdf:RDF>
  </metadata>
  <g
     inkscape:label="Layer 1"
     inkscape:groupmode="layer"
     id="layer1">
    <rect
       style="fill:#000000;stroke:none;stroke-width:1;stroke-miterlimit:4;stroke-dasharray:2, 1;stroke-dashoffset:0;stroke-opacity:1"
       id="rect3571"
       width="1051.47"
       height="754.28571"
       x="-0.020696951"
       y="0.38021028" />
    <g
       id="g3643"
       transform="matrix(1.0483754,0,0,1.0483754,-25.409945,-17.387341)">
      <path
         inkscape:export-ydpi="90"
         inkscape:export-xdpi="90"
         inkscape:export-filename="C:\Users\Nion\Desktop\thaiopensource-tshirt-design12.png"
         id="path2696"
         d="M 519.05119,165.9117 C 460.8685,166.7167 402.39558,180.34525 351.56058,208.8318 C 307.22092,202.4848 264.41451,189.0089 224.5375,168.26208 C 232.87064,213.12519 238.53086,259.75127 258.87358,300.80347 C 220.96023,372.61222 252.24551,467.40746 318.55297,510.80542 C 431.08518,595.74136 596.217,596.5753 715.2574,524.39679 C 774.952,487.02853 821.44113,416.18207 806.71811,343.21262 C 804.41933,328.17888 798.22513,313.44797 792.71798,299.88375 C 813.68333,259.7242 818.10013,213.92372 826.84969,169.99933 C 785.17689,187.22339 743.41829,205.35245 698.08936,207.8099 C 643.76042,177.85908 581.08852,164.66687 519.05119,165.9117 z"
         style="fill:#ffffff;fill-opacity:1;fill-rule:nonzero;stroke:none" />
      <g
         inkscape:export-ydpi="90"
         inkscape:export-xdpi="90"
         inkscape:export-filename="C:\Users\Nion\Desktop\thaiopensource-tshirt-design04.png"
         style="fill:#784421"
         transform="matrix(5.4337057,0,0,-5.4337057,792.50483,212.22813)"
         id="g2735">
        <path
           id="path2737"
           style="fill:#784421;fill-opacity:1;fill-rule:nonzero;stroke:none"
           d="M 0,0 C -5.261,-2.179 -11.784,-3.541 -18.045,-4.395 C -26.361,0.638 -37.216,3.691 -49.103,3.691 C -60.99,3.691 -71.844,0.638 -80.162,-4.395 C -86.421,-3.541 -92.943,-2.179 -98.206,0 C -98.206,0 -96.195,-11.898 -92.57,-16.163 C -95.073,-20.179 -96.469,-24.607 -96.469,-29.263 C -96.469,-47.464 -75.263,-62.218 -49.103,-62.218 C -22.943,-62.218 -1.737,-47.464 -1.737,-29.263 C -1.737,-24.607 -3.133,-20.179 -5.637,-16.164 C -2.01,-11.899 0,0 0,0" />
      </g>
    </g>
  </g>
</svg>
