<?xml version="1.0" encoding="UTF-8" standalone="no"?>
<!-- Created with Inkscape (http://www.inkscape.org/) -->
<svg
   xmlns:dc="http://purl.org/dc/elements/1.1/"
   xmlns:cc="http://creativecommons.org/ns#"
   xmlns:rdf="http://www.w3.org/1999/02/22-rdf-syntax-ns#"
   xmlns:svg="http://www.w3.org/2000/svg"
   xmlns="http://www.w3.org/2000/svg"
   xmlns:sodipodi="http://sodipodi.sourceforge.net/DTD/sodipodi-0.dtd"
   xmlns:inkscape="http://www.inkscape.org/namespaces/inkscape"
   width="744.09448819"
   height="1052.3622047"
   id="svg2"
   sodipodi:version="0.32"
   inkscape:version="0.46"
   sodipodi:docname="owl-single-02.svg"
   inkscape:output_extension="org.inkscape.output.svg.inkscape">
  <defs
     id="defs4">
    <inkscape:perspective
       sodipodi:type="inkscape:persp3d"
       inkscape:vp_x="0 : 526.18109 : 1"
       inkscape:vp_y="0 : 1000 : 0"
       inkscape:vp_z="744.09448 : 526.18109 : 1"
       inkscape:persp3d-origin="372.04724 : 350.78739 : 1"
       id="perspective10" />
    <inkscape:perspective
       id="perspective3388"
       inkscape:persp3d-origin="372.04724 : 350.78739 : 1"
       inkscape:vp_z="744.09448 : 526.18109 : 1"
       inkscape:vp_y="0 : 1000 : 0"
       inkscape:vp_x="0 : 526.18109 : 1"
       sodipodi:type="inkscape:persp3d" />
  </defs>
  <sodipodi:namedview
     id="base"
     pagecolor="#ffffff"
     bordercolor="#666666"
     borderopacity="1.0"
     gridtolerance="10000"
     guidetolerance="10"
     objecttolerance="10"
     inkscape:pageopacity="0.0"
     inkscape:pageshadow="2"
     inkscape:zoom="0.49497475"
     inkscape:cx="552.48524"
     inkscape:cy="652.07815"
     inkscape:document-units="px"
     inkscape:current-layer="layer1"
     showgrid="false"
     inkscape:window-width="1024"
     inkscape:window-height="735"
     inkscape:window-x="0"
     inkscape:window-y="6" />
  <metadata
     id="metadata7">
    <rdf:RDF>
      <cc:Work
         rdf:about="">
        <dc:format>image/svg+xml</dc:format>
        <dc:type
           rdf:resource="http://purl.org/dc/dcmitype/StillImage" />
      </cc:Work>
    </rdf:RDF>
  </metadata>
  <g
     inkscape:label="Layer 1"
     inkscape:groupmode="layer"
     id="layer1">
    <g
       id="g2432"
       transform="matrix(5.7575038,0,0,-5.7575038,437.97343,817.92767)"
       style="fill:#784421">
      <path
         d="M 0,0 C 22.123,5.87 33.565,23.479 37.379,33.541 C 40.403,41.519 42.339,54.923 33.565,64.148 C 24.791,73.373 14.876,69.18 9.917,69.598 L -32.041,69.598 C -36.999,69.18 -46.916,73.373 -55.688,64.148 C -64.461,54.923 -62.527,41.519 -59.504,33.541 C -55.688,23.479 -44.246,5.87 -22.123,0 L 0,0 z"
         style="fill:#784421;fill-opacity:1;fill-rule:nonzero;stroke:none"
         id="path2434" />
    </g>
    <g
       id="g2436"
       transform="matrix(5.7575038,0,0,-5.7575038,161.6524,509.39801)"
       style="fill:#e9c6af">
      <path
         d="M 0,0 C -0.383,-13.312 -2.95,-32.819 26.698,-51.15 C 32.802,-54.924 41.195,-56.182 48.822,-51.15 C 56.45,-46.12 77.47,-26.906 73.614,-4.192 C 67.354,32.681 0.64,22.268 0,0"
         style="fill:#e9c6af;fill-opacity:1;fill-rule:nonzero;stroke:none"
         id="path2438" />
    </g>
    <g
       id="g2440"
       transform="matrix(5.7575038,0,0,-5.7575038,383.33933,803.26676)">
      <path
         d="M 0,0 C -1.52,1.267 -3.713,1.17 -4.888,-0.574 C -5.632,1.006 -6.952,1.378 -8.577,0.836 C -9.083,0.665 -9.522,0.39 -9.897,0.01 C -10.644,0.313 -11.44,0.535 -12.25,0.549 C -15.677,0.608 -17.387,-3.901 -16.864,-6.788 C -16.389,-9.419 -13.819,-12.368 -10.879,-11.716 C -9.178,-11.336 -9.266,-12.054 -7.53,-12.343 C -5.591,-12.666 -4.828,-12.284 -4.323,-10.371 C -2.88,-13.324 0.646,-12.006 1.046,-9.205 C 1.36,-7.005 1.984,-1.654 0,0"
         style="fill:#f68712;fill-opacity:1;fill-rule:nonzero;stroke:none"
         id="path2442" />
    </g>
    <g
       id="g2444"
       transform="matrix(5.7575038,0,0,-5.7575038,494.05267,814.10468)">
      <path
         d="M 0,0 C -1.056,2.112 -3.047,2.828 -5.25,2.16 C -7.215,1.564 -9.495,4.533 -11.012,1.308 C -12.187,3.052 -14.381,3.148 -15.899,1.882 C -17.184,0.813 -17.096,-2.053 -17.133,-3.526 C -17.177,-5.291 -17.435,-8.461 -15.848,-9.688 C -14.47,-10.753 -12.276,-9.923 -11.576,-8.488 C -11.071,-10.402 -10.309,-10.783 -8.369,-10.46 C -7.552,-10.325 -6.805,-9.965 -6.242,-9.349 C -5.308,-9.962 -4.116,-10.03 -3.067,-9.693 C 1.191,-8.324 1.754,-3.508 0,0"
         style="fill:#f68712;fill-opacity:1;fill-rule:nonzero;stroke:none"
         id="path2446" />
    </g>
    <g
       id="g2448"
       transform="matrix(5.7575038,0,0,-5.7575038,656.99464,113.90989)"
       style="fill:#784421">
      <path
         d="M 0,0 C -5.261,-2.179 -11.784,-3.541 -18.045,-4.395 C -26.361,0.638 -37.216,3.691 -49.103,3.691 C -60.99,3.691 -71.844,0.638 -80.162,-4.395 C -86.421,-3.541 -92.943,-2.179 -98.206,0 C -98.206,0 -96.195,-11.898 -92.57,-16.163 C -95.073,-20.179 -96.469,-24.607 -96.469,-29.263 C -96.469,-47.464 -75.263,-62.218 -49.103,-62.218 C -22.943,-62.218 -1.737,-47.464 -1.737,-29.263 C -1.737,-24.607 -3.133,-20.179 -5.637,-16.164 C -2.01,-11.899 0,0 0,0"
         style="fill:#784421;fill-opacity:1;fill-rule:nonzero;stroke:none"
         id="path2450" />
    </g>
    <g
       id="g2452"
       transform="matrix(5.7575038,0,0,-5.7575038,500.2656,140.88437)">
      <path
         d="M 0,0 C -10.927,0 -19.996,-7.881 -21.881,-18.266 C -23.765,-7.881 -32.835,0 -43.763,0 C -56.055,0 -66.021,-9.966 -66.021,-22.26 C -66.021,-34.552 -56.055,-44.519 -43.763,-44.519 C -32.835,-44.519 -23.765,-36.636 -21.881,-26.252 C -19.996,-36.636 -10.927,-44.519 0,-44.519 C 12.294,-44.519 22.261,-34.552 22.261,-22.26 C 22.261,-9.966 12.294,0 0,0"
         style="fill:#ffffff;fill-opacity:1;fill-rule:nonzero;stroke:none"
         id="path2454" />
    </g>
    <g
       id="g2456"
       transform="matrix(5.7575038,0,0,-5.7575038,343.05926,395.09428)"
       style="fill:#d45500">
      <path
         d="M 0,0 C 0.193,-2.894 1.737,-6.173 5.401,-6.173 C 9.067,-6.173 11.188,-2.894 10.802,0 C 10.416,2.893 1.158,4.243 0,0"
         style="fill:#d45500;fill-opacity:1;fill-rule:nonzero;stroke:none"
         id="path2458" />
    </g>
    <g
       id="g2460"
       transform="matrix(5.7575038,0,0,-5.7575038,374.15726,334.0135)">
      <path
         d="M 0,0 C 1.736,0 3.858,-3.279 5.4,-10.609 C 3.666,-10.224 2.122,-13.117 0,-19.676 C -2.122,-13.117 -3.664,-10.224 -5.401,-10.609 C -3.858,-3.279 -1.737,0 0,0"
         style="fill:#f68712;fill-opacity:1;fill-rule:nonzero;stroke:none"
         id="path2462" />
    </g>
    <g
       id="g2464"
       transform="matrix(5.7575038,0,0,-5.7575038,344.85272,267.01228)"
       style="fill:#ff7f2a">
      <path
         d="M 0,0 C 0,-9.261 -7.511,-16.773 -16.775,-16.773 C -26.037,-16.773 -33.55,-9.261 -33.55,0 C -33.55,9.266 -26.037,16.775 -16.775,16.775 C -7.511,16.775 0,9.266 0,0"
         style="fill:#ff7f2a;fill-opacity:1;fill-rule:nonzero;stroke:none"
         id="path2466" />
    </g>
    <g
       id="g2468"
       transform="matrix(5.7575038,0,0,-5.7575038,336.50319,268.07799)">
      <path
         d="M 0,0 C -0.174,-8.569 -6.585,-15.947 -15.448,-15.768 C -23.853,-15.597 -30.148,-8.124 -30.633,-0.118 C -31.165,8.629 -23.921,16.316 -15.203,16.14 C -6.517,15.963 -0.168,8.059 0,-0.202 C 0.017,-1.091 2.922,-0.53 2.899,0.574 C 2.698,10.561 -5.608,17.952 -15.448,17.754 C -25.141,17.558 -33.351,9.729 -33.546,0 C -33.751,-10.073 -24.901,-17.578 -15.203,-17.381 C -5.51,-17.185 2.701,-9.355 2.896,0.373 C 2.922,1.556 0.021,0.932 0,0"
         style="fill:#231f20;fill-opacity:1;fill-rule:nonzero;stroke:none"
         id="path2470" />
    </g>
    <g
       id="g2472"
       transform="matrix(5.7575038,0,0,-5.7575038,311.85359,267.01228)">
      <path
         d="M 0,0 C 0,-6.101 -4.942,-11.046 -11.044,-11.046 C -17.146,-11.046 -22.092,-6.101 -22.092,0 C -22.092,6.103 -17.146,11.051 -11.044,11.051 C -4.942,11.051 0,6.103 0,0"
         style="fill:#231f20;fill-opacity:1;fill-rule:nonzero;stroke:none"
         id="path2474" />
    </g>
    <g
       id="g2476"
       transform="matrix(5.7575038,0,0,-5.7575038,227.56028,306.02743)">
      <path
         d="M 0,0 C 0,-1.533 -2.09,-2.772 -4.67,-2.772 C -7.251,-2.772 -9.343,-1.533 -9.343,0 C -9.343,1.532 -7.251,2.773 -4.67,2.773 C -2.09,2.773 0,1.532 0,0"
         style="fill:#ffffff;fill-opacity:1;fill-rule:nonzero;stroke:none"
         id="path2478" />
    </g>
    <g
       id="g2480"
       transform="matrix(5.7575038,0,0,-5.7575038,319.78743,227.2665)">
      <path
         d="M 0,0 C 0,-3.004 -2.69,-5.443 -6.01,-5.443 C -9.324,-5.443 -12.012,-3.004 -12.012,0 C -12.012,3.006 -9.324,5.444 -6.01,5.444 C -2.69,5.444 0,3.006 0,0"
         style="fill:#ffffff;fill-opacity:1;fill-rule:nonzero;stroke:none"
         id="path2482" />
    </g>
    <g
       id="g2484"
       transform="matrix(5.7575038,0,0,-5.7575038,600.0155,267.01228)"
       style="fill:#ff7f2a">
      <path
         d="M 0,0 C 0,-9.261 -7.51,-16.773 -16.775,-16.773 C -26.037,-16.773 -33.55,-9.261 -33.55,0 C -33.55,9.266 -26.037,16.775 -16.775,16.775 C -7.51,16.775 0,9.266 0,0"
         style="fill:#ff7f2a;fill-opacity:1;fill-rule:nonzero;stroke:none"
         id="path2486" />
    </g>
    <g
       id="g2488"
       transform="matrix(5.7575038,0,0,-5.7575038,591.66597,268.07799)">
      <path
         d="M 0,0 C -0.173,-8.569 -6.585,-15.947 -15.448,-15.768 C -23.852,-15.597 -30.147,-8.124 -30.633,-0.118 C -31.165,8.629 -23.921,16.316 -15.203,16.14 C -6.517,15.963 -0.167,8.059 0,-0.202 C 0.017,-1.091 2.921,-0.53 2.899,0.574 C 2.698,10.561 -5.608,17.952 -15.448,17.754 C -25.14,17.558 -33.35,9.729 -33.546,0 C -33.751,-10.073 -24.9,-17.578 -15.203,-17.381 C -5.509,-17.185 2.701,-9.355 2.896,0.373 C 2.921,1.556 0.021,0.932 0,0"
         style="fill:#231f20;fill-opacity:1;fill-rule:nonzero;stroke:none"
         id="path2490" />
    </g>
    <g
       id="g2492"
       transform="matrix(5.7575038,0,0,-5.7575038,567.0227,267.01228)">
      <path
         d="M 0,0 C 0,-6.101 -4.943,-11.046 -11.045,-11.046 C -17.146,-11.046 -22.094,-6.101 -22.094,0 C -22.094,6.103 -17.146,11.051 -11.045,11.051 C -4.943,11.051 0,6.103 0,0"
         style="fill:#231f20;fill-opacity:1;fill-rule:nonzero;stroke:none"
         id="path2494" />
    </g>
    <g
       id="g2496"
       transform="matrix(5.7575038,0,0,-5.7575038,482.72881,306.02743)">
      <path
         d="M 0,0 C 0,-1.533 -2.092,-2.772 -4.671,-2.772 C -7.252,-2.772 -9.344,-1.533 -9.344,0 C -9.344,1.532 -7.252,2.773 -4.671,2.773 C -2.092,2.773 0,1.532 0,0"
         style="fill:#ffffff;fill-opacity:1;fill-rule:nonzero;stroke:none"
         id="path2498" />
    </g>
    <g
       id="g2500"
       transform="matrix(5.7575038,0,0,-5.7575038,574.94445,227.2665)">
      <path
         d="M 0,0 C 0,-3.004 -2.689,-5.443 -6.009,-5.443 C -9.323,-5.443 -12.011,-3.004 -12.011,0 C -12.011,3.006 -9.323,5.444 -6.009,5.444 C -2.689,5.444 0,3.006 0,0"
         style="fill:#ffffff;fill-opacity:1;fill-rule:nonzero;stroke:none"
         id="path2502" />
    </g>
  </g>
</svg>
