<?xml version="1.0" encoding="UTF-8" standalone="no"?>
<!-- Created with Inkscape (http://www.inkscape.org/) -->
<svg
   xmlns:dc="http://purl.org/dc/elements/1.1/"
   xmlns:cc="http://creativecommons.org/ns#"
   xmlns:rdf="http://www.w3.org/1999/02/22-rdf-syntax-ns#"
   xmlns:svg="http://www.w3.org/2000/svg"
   xmlns="http://www.w3.org/2000/svg"
   xmlns:sodipodi="http://sodipodi.sourceforge.net/DTD/sodipodi-0.dtd"
   xmlns:inkscape="http://www.inkscape.org/namespaces/inkscape"
   width="1052.3622"
   height="744.09448"
   id="svg2747"
   sodipodi:version="0.32"
   inkscape:version="0.46"
   version="1.0"
   sodipodi:docname="owl-face-01.svg"
   inkscape:output_extension="org.inkscape.output.svg.inkscape">
  <defs
     id="defs2749">
    <inkscape:perspective
       sodipodi:type="inkscape:persp3d"
       inkscape:vp_x="0 : 526.18109 : 1"
       inkscape:vp_y="0 : 1000 : 0"
       inkscape:vp_z="744.09448 : 526.18109 : 1"
       inkscape:persp3d-origin="372.04724 : 350.78739 : 1"
       id="perspective2755" />
  </defs>
  <sodipodi:namedview
     id="base"
     pagecolor="#ffffff"
     bordercolor="#666666"
     borderopacity="1.0"
     gridtolerance="10000"
     guidetolerance="10"
     objecttolerance="10"
     inkscape:pageopacity="0.0"
     inkscape:pageshadow="2"
     inkscape:zoom="0.35"
     inkscape:cx="177.6111"
     inkscape:cy="494.80158"
     inkscape:document-units="px"
     inkscape:current-layer="layer1"
     showgrid="false"
     inkscape:window-width="1024"
     inkscape:window-height="716"
     inkscape:window-x="0"
     inkscape:window-y="6" />
  <metadata
     id="metadata2752">
    <rdf:RDF>
      <cc:Work
         rdf:about="">
        <dc:format>image/svg+xml</dc:format>
        <dc:type
           rdf:resource="http://purl.org/dc/dcmitype/StillImage" />
      </cc:Work>
    </rdf:RDF>
  </metadata>
  <g
     inkscape:label="Layer 1"
     inkscape:groupmode="layer"
     id="layer1">
    <rect
       style="fill:#000000"
       id="rect2787"
       width="1051.4286"
       height="742.85712"
       x="0"
       y="1.2373396" />
    <g
       id="g2711"
       transform="matrix(4.2522688,0,0,4.2522688,-598.24042,-675.21383)">
      <path
         inkscape:export-ydpi="90"
         inkscape:export-xdpi="90"
         inkscape:export-filename="C:\Users\Nion\Desktop\thaiopensource-tshirt-design12.png"
         id="path2696"
         d="M 262.28758,183.97561 C 244.49527,184.22178 226.61421,188.3894 211.06883,197.10061 C 197.50973,195.15969 184.4195,191.03875 172.22508,184.69436 C 174.77336,198.41353 176.50426,212.67182 182.72508,225.22561 C 171.13115,247.18478 180.69821,276.17323 200.97508,289.44436 C 235.38751,315.41783 285.88494,315.67285 322.28758,293.60061 C 340.54223,282.17337 354.75864,260.50847 350.25633,238.19436 C 349.55336,233.59703 347.65917,229.09231 345.97508,224.94436 C 352.3863,212.66354 353.73696,198.65772 356.41258,185.22561 C 343.66901,190.49274 330.8992,196.03662 317.03758,196.78811 C 300.42375,187.62913 281.25864,183.59494 262.28758,183.97561 z"
         style="fill:#ffffff;fill-opacity:1;fill-rule:nonzero;stroke:none" />
      <g
         inkscape:export-ydpi="90"
         inkscape:export-xdpi="90"
         inkscape:export-filename="C:\Users\Nion\Desktop\thaiopensource-tshirt-design04.png"
         style="fill:#784421"
         transform="matrix(1.6616311,0,0,-1.6616311,345.9099,198.13921)"
         id="g2735">
        <path
           id="path2737"
           style="fill:#784421;fill-opacity:1;fill-rule:nonzero;stroke:none"
           d="M 0,0 C -5.261,-2.179 -11.784,-3.541 -18.045,-4.395 C -26.361,0.638 -37.216,3.691 -49.103,3.691 C -60.99,3.691 -71.844,0.638 -80.162,-4.395 C -86.421,-3.541 -92.943,-2.179 -98.206,0 C -98.206,0 -96.195,-11.898 -92.57,-16.163 C -95.073,-20.179 -96.469,-24.607 -96.469,-29.263 C -96.469,-47.464 -75.263,-62.218 -49.103,-62.218 C -22.943,-62.218 -1.737,-47.464 -1.737,-29.263 C -1.737,-24.607 -3.133,-20.179 -5.637,-16.164 C -2.01,-11.899 0,0 0,0" />
      </g>
      <g
         inkscape:export-ydpi="90"
         inkscape:export-xdpi="90"
         inkscape:export-filename="C:\Users\Nion\Desktop\thaiopensource-tshirt-design04.png"
         transform="matrix(1.6616311,0,0,-1.6616311,300.67745,205.92414)"
         id="g2739">
        <path
           id="path2741"
           style="fill:#ffffff;fill-opacity:1;fill-rule:nonzero;stroke:none"
           d="M 0,0 C -10.927,0 -19.996,-7.881 -21.881,-18.266 C -23.765,-7.881 -32.835,0 -43.763,0 C -56.055,0 -66.021,-9.966 -66.021,-22.26 C -66.021,-34.552 -56.055,-44.519 -43.763,-44.519 C -32.835,-44.519 -23.765,-36.636 -21.881,-26.252 C -19.996,-36.636 -10.927,-44.519 0,-44.519 C 12.294,-44.519 22.261,-34.552 22.261,-22.26 C 22.261,-9.966 12.294,0 0,0" />
      </g>
      <g
         inkscape:export-ydpi="90"
         inkscape:export-xdpi="90"
         inkscape:export-filename="C:\Users\Nion\Desktop\thaiopensource-tshirt-design04.png"
         style="fill:#d45500"
         transform="matrix(1.6616311,0,0,-1.6616311,255.30733,279.28978)"
         id="g2743">
        <path
           id="path2745"
           style="fill:#d45500;fill-opacity:1;fill-rule:nonzero;stroke:none"
           d="M 0,0 C 0.193,-2.894 1.737,-6.173 5.401,-6.173 C 9.067,-6.173 11.188,-2.894 10.802,0 C 10.416,2.893 1.158,4.243 0,0" />
      </g>
      <g
         inkscape:export-ydpi="90"
         inkscape:export-xdpi="90"
         inkscape:export-filename="C:\Users\Nion\Desktop\thaiopensource-tshirt-design04.png"
         transform="matrix(1.6616311,0,0,-1.6616311,264.28224,261.66171)"
         id="g2747">
        <path
           id="path2749"
           style="fill:#f68712;fill-opacity:1;fill-rule:nonzero;stroke:none"
           d="M 0,0 C 1.736,0 3.858,-3.279 5.4,-10.609 C 3.666,-10.224 2.122,-13.117 0,-19.676 C -2.122,-13.117 -3.664,-10.224 -5.401,-10.609 C -3.858,-3.279 -1.737,0 0,0" />
      </g>
      <g
         inkscape:export-ydpi="90"
         inkscape:export-xdpi="90"
         inkscape:export-filename="C:\Users\Nion\Desktop\thaiopensource-tshirt-design04.png"
         style="fill:#ff7f2a"
         transform="matrix(1.6616311,0,0,-1.6616311,255.82488,242.32494)"
         id="g2751">
        <path
           id="path2753"
           style="fill:#ff7f2a;fill-opacity:1;fill-rule:nonzero;stroke:none"
           d="M 0,0 C 0,-9.261 -7.511,-16.773 -16.775,-16.773 C -26.037,-16.773 -33.55,-9.261 -33.55,0 C -33.55,9.266 -26.037,16.775 -16.775,16.775 C -7.511,16.775 0,9.266 0,0" />
      </g>
      <g
         inkscape:export-ydpi="90"
         inkscape:export-xdpi="90"
         inkscape:export-filename="C:\Users\Nion\Desktop\thaiopensource-tshirt-design04.png"
         transform="matrix(1.6616311,0,0,-1.6616311,253.41519,242.63251)"
         id="g2755">
        <path
           id="path2757"
           style="fill:#231f20;fill-opacity:1;fill-rule:nonzero;stroke:none"
           d="M 0,0 C -0.174,-8.569 -6.585,-15.947 -15.448,-15.768 C -23.853,-15.597 -30.148,-8.124 -30.633,-0.118 C -31.165,8.629 -23.921,16.316 -15.203,16.14 C -6.517,15.963 -0.168,8.059 0,-0.202 C 0.017,-1.091 2.922,-0.53 2.899,0.574 C 2.698,10.561 -5.608,17.952 -15.448,17.754 C -25.141,17.558 -33.351,9.729 -33.546,0 C -33.751,-10.073 -24.901,-17.578 -15.203,-17.381 C -5.51,-17.185 2.701,-9.355 2.896,0.373 C 2.922,1.556 0.021,0.932 0,0" />
      </g>
      <g
         inkscape:export-ydpi="90"
         inkscape:export-xdpi="90"
         inkscape:export-filename="C:\Users\Nion\Desktop\thaiopensource-tshirt-design04.png"
         transform="matrix(1.6616311,0,0,-1.6616311,246.30127,242.32494)"
         id="g2759">
        <path
           id="path2761"
           style="fill:#231f20;fill-opacity:1;fill-rule:nonzero;stroke:none"
           d="M 0,0 C 0,-6.101 -4.942,-11.046 -11.044,-11.046 C -17.146,-11.046 -22.092,-6.101 -22.092,0 C -22.092,6.103 -17.146,11.051 -11.044,11.051 C -4.942,11.051 0,6.103 0,0" />
      </g>
      <g
         inkscape:export-ydpi="90"
         inkscape:export-xdpi="90"
         inkscape:export-filename="C:\Users\Nion\Desktop\thaiopensource-tshirt-design04.png"
         transform="matrix(1.6616311,0,0,-1.6616311,221.97398,253.58486)"
         id="g2763">
        <path
           id="path2765"
           style="fill:#ffffff;fill-opacity:1;fill-rule:nonzero;stroke:none"
           d="M 0,0 C 0,-1.533 -2.09,-2.772 -4.67,-2.772 C -7.251,-2.772 -9.343,-1.533 -9.343,0 C -9.343,1.532 -7.251,2.773 -4.67,2.773 C -2.09,2.773 0,1.532 0,0" />
      </g>
      <g
         inkscape:export-ydpi="90"
         inkscape:export-xdpi="90"
         inkscape:export-filename="C:\Users\Nion\Desktop\thaiopensource-tshirt-design04.png"
         transform="matrix(1.6616311,0,0,-1.6616311,248.591,230.85422)"
         id="g2767">
        <path
           id="path2769"
           style="fill:#ffffff;fill-opacity:1;fill-rule:nonzero;stroke:none"
           d="M 0,0 C 0,-3.004 -2.69,-5.443 -6.01,-5.443 C -9.324,-5.443 -12.012,-3.004 -12.012,0 C -12.012,3.006 -9.324,5.444 -6.01,5.444 C -2.69,5.444 0,3.006 0,0" />
      </g>
      <g
         inkscape:export-ydpi="90"
         inkscape:export-xdpi="90"
         inkscape:export-filename="C:\Users\Nion\Desktop\thaiopensource-tshirt-design04.png"
         style="fill:#ff7f2a"
         transform="matrix(1.6616311,0,0,-1.6616311,329.46557,242.32494)"
         id="g2771">
        <path
           id="path2773"
           style="fill:#ff7f2a;fill-opacity:1;fill-rule:nonzero;stroke:none"
           d="M 0,0 C 0,-9.261 -7.51,-16.773 -16.775,-16.773 C -26.037,-16.773 -33.55,-9.261 -33.55,0 C -33.55,9.266 -26.037,16.775 -16.775,16.775 C -7.51,16.775 0,9.266 0,0" />
      </g>
      <g
         inkscape:export-ydpi="90"
         inkscape:export-xdpi="90"
         inkscape:export-filename="C:\Users\Nion\Desktop\thaiopensource-tshirt-design04.png"
         transform="matrix(1.6616311,0,0,-1.6616311,327.05588,242.63251)"
         id="g2775">
        <path
           id="path2777"
           style="fill:#231f20;fill-opacity:1;fill-rule:nonzero;stroke:none"
           d="M 0,0 C -0.173,-8.569 -6.585,-15.947 -15.448,-15.768 C -23.852,-15.597 -30.147,-8.124 -30.633,-0.118 C -31.165,8.629 -23.921,16.316 -15.203,16.14 C -6.517,15.963 -0.167,8.059 0,-0.202 C 0.017,-1.091 2.921,-0.53 2.899,0.574 C 2.698,10.561 -5.608,17.952 -15.448,17.754 C -25.14,17.558 -33.35,9.729 -33.546,0 C -33.751,-10.073 -24.9,-17.578 -15.203,-17.381 C -5.509,-17.185 2.701,-9.355 2.896,0.373 C 2.921,1.556 0.021,0.932 0,0" />
      </g>
      <g
         inkscape:export-ydpi="90"
         inkscape:export-xdpi="90"
         inkscape:export-filename="C:\Users\Nion\Desktop\thaiopensource-tshirt-design04.png"
         transform="matrix(1.6616311,0,0,-1.6616311,319.94377,242.32494)"
         id="g2779">
        <path
           id="path2781"
           style="fill:#231f20;fill-opacity:1;fill-rule:nonzero;stroke:none"
           d="M 0,0 C 0,-6.101 -4.943,-11.046 -11.045,-11.046 C -17.146,-11.046 -22.094,-6.101 -22.094,0 C -22.094,6.103 -17.146,11.051 -11.045,11.051 C -4.943,11.051 0,6.103 0,0" />
      </g>
      <g
         inkscape:export-ydpi="90"
         inkscape:export-xdpi="90"
         inkscape:export-filename="C:\Users\Nion\Desktop\thaiopensource-tshirt-design04.png"
         transform="matrix(1.6616311,0,0,-1.6616311,295.61631,253.58486)"
         id="g2783">
        <path
           id="path2785"
           style="fill:#ffffff;fill-opacity:1;fill-rule:nonzero;stroke:none"
           d="M 0,0 C 0,-1.533 -2.092,-2.772 -4.671,-2.772 C -7.252,-2.772 -9.344,-1.533 -9.344,0 C -9.344,1.532 -7.252,2.773 -4.671,2.773 C -2.092,2.773 0,1.532 0,0" />
      </g>
      <g
         inkscape:export-ydpi="90"
         inkscape:export-xdpi="90"
         inkscape:export-filename="C:\Users\Nion\Desktop\thaiopensource-tshirt-design04.png"
         transform="matrix(1.6616311,0,0,-1.6616311,322.22997,230.85422)"
         id="g2787">
        <path
           id="path2789"
           style="fill:#ffffff;fill-opacity:1;fill-rule:nonzero;stroke:none"
           d="M 0,0 C 0,-3.004 -2.689,-5.443 -6.009,-5.443 C -9.323,-5.443 -12.011,-3.004 -12.011,0 C -12.011,3.006 -9.323,5.444 -6.009,5.444 C -2.689,5.444 0,3.006 0,0" />
      </g>
    </g>
  </g>
</svg>
