<?xml version="1.0" encoding="UTF-8" standalone="no"?>
<!-- Created with Inkscape (http://www.inkscape.org/) -->
<svg
   xmlns:dc="http://purl.org/dc/elements/1.1/"
   xmlns:cc="http://creativecommons.org/ns#"
   xmlns:rdf="http://www.w3.org/1999/02/22-rdf-syntax-ns#"
   xmlns:svg="http://www.w3.org/2000/svg"
   xmlns="http://www.w3.org/2000/svg"
   xmlns:sodipodi="http://sodipodi.sourceforge.net/DTD/sodipodi-0.dtd"
   xmlns:inkscape="http://www.inkscape.org/namespaces/inkscape"
   id="svg2403"
   sodipodi:version="0.32"
   inkscape:version="0.46"
   width="765"
   height="990"
   xml:space="preserve"
   sodipodi:docname="tree-owl.svg"
   inkscape:output_extension="org.inkscape.output.svg.inkscape"><metadata
     id="metadata2408"><rdf:RDF><cc:Work
         rdf:about=""><dc:format>image/svg+xml</dc:format><dc:type
           rdf:resource="http://purl.org/dc/dcmitype/StillImage" /></cc:Work></rdf:RDF></metadata><defs
     id="defs2406"><inkscape:perspective
       sodipodi:type="inkscape:persp3d"
       inkscape:vp_x="0 : 526.18109 : 1"
       inkscape:vp_y="0 : 1000 : 0"
       inkscape:vp_z="744.09448 : 526.18109 : 1"
       inkscape:persp3d-origin="372.04724 : 350.78739 : 1"
       id="perspective2410" /><clipPath
       clipPathUnits="userSpaceOnUse"
       id="clipPath2420"><path
         d="M 0,792 L 612,792 L 612,0 L 0,0 L 0,792 z"
         id="path2422" /></clipPath></defs><sodipodi:namedview
     inkscape:window-height="718"
     inkscape:window-width="1280"
     inkscape:pageshadow="2"
     inkscape:pageopacity="0.0"
     guidetolerance="10.0"
     gridtolerance="10.0"
     objecttolerance="10.0"
     borderopacity="1.0"
     bordercolor="#666666"
     pagecolor="#ffffff"
     id="base"
     showgrid="false"
     inkscape:zoom="2.8416712"
     inkscape:cx="554.23875"
     inkscape:cy="583.95583"
     inkscape:window-x="-8"
     inkscape:window-y="-8"
     inkscape:current-layer="g2412" /><g
     id="g2412"
     inkscape:groupmode="layer"
     inkscape:label="tree-owl"
     transform="matrix(1.25,0,0,-1.25,0,990)"><g
       id="g2424"
       transform="translate(432.5938,404.7417)"><path
         d="M 0,0 C 0.571,0.43 1.15,0.875 1.735,1.339 C 1.735,1.339 6.926,-1.129 13.021,-2.412 C 10.952,-2.576 8.858,-3.03 6.887,-3.923 C 6.887,-3.923 4.332,-1.896 0,0 M -318.676,78.082 C -318.919,79.142 -319.236,80.127 -319.606,81.029 C -317.554,81.948 -315.467,83.523 -313.79,86.187 C -313.79,86.187 -312.375,83.441 -308.075,81.572 C -308.077,81.573 -308.08,81.573 -308.082,81.574 C -308.125,81.03 -308.153,80.437 -308.17,79.822 C -310.618,79.679 -314.813,79.269 -318.676,78.082 M -224.929,250.766 C -224.929,250.766 -224.927,250.434 -224.824,249.893 L -226.215,249.591 C -226.215,249.591 -228.084,250.501 -230.949,251.563 L -224.929,250.766 z M -264.852,152.478 C -264.852,152.478 -266.647,157.46 -270.499,161.545 C -270.812,162.633 -271.201,163.631 -271.652,164.516 C -268.525,163.343 -263.784,161.763 -259.451,161.112 C -260.702,159.325 -261.639,156.794 -262.075,153.865 C -263.201,153.484 -264.158,153.029 -264.852,152.478 M -70.38,292.152 C -70.478,293.274 -70.605,294.357 -70.759,295.4 L -67.286,296.037 C -68.429,295.475 -69.482,294.114 -70.38,292.152 M -17.583,146.346 C -17.583,146.346 -19.34,147.267 -22.051,148.376 C -21.78,149.169 -21.547,150.011 -21.365,150.905 L -16.295,152.631 L -14.2,150.968 C -15.765,149.518 -17.003,147.958 -17.583,146.346 M -12.432,36.966 C -12.432,36.966 -16.295,44.122 -22.732,41.055 C -29.174,37.988 -38.188,40.031 -38.188,40.031 C -38.188,40.031 -40.766,51.276 -49.779,49.232 C -49.779,49.232 -50.526,50.321 -51.44,51.88 C -47.115,55.172 -40.766,61.653 -40.766,61.653 C -40.766,61.653 -36.9,51.43 -31.749,50.407 L -29.174,54.496 C -29.174,54.496 -13.718,46.318 -7.278,49.385 L -12.432,41.208 L 5.6,45.296 C 5.6,45.296 6.627,44.348 8.426,43.289 C 1.151,43.077 -8.601,41.83 -12.432,36.966 M -66.463,192.403 C -66.479,192.397 -66.492,192.392 -66.508,192.386 C -66.422,192.639 -65.814,194.333 -63.905,197.668 C -63.405,196.745 -62.836,195.961 -62.213,195.34 C -63.708,194.762 -65.162,193.829 -66.463,192.403 M 45.523,25.72 C 45.523,25.72 31.357,36.966 15.9,34.921 L 16.783,40.524 C 18.874,40.331 21.177,40.478 23.628,41.208 L 18.479,47.341 C 18.479,47.341 30.066,46.318 33.932,52.452 L 26.714,60.092 C 29.531,60.771 32.365,62.081 33.932,64.566 L 33.142,65.402 C 36.288,68.468 39.06,73.008 37.796,79.03 L 34.402,78.861 C 36.971,81.856 38.887,85.947 37.796,91.144 L 17.188,90.122 L 15.9,101.367 C 15.9,101.367 0.447,99.322 -4.704,94.211 C -4.704,94.211 -11.051,96.447 -16.439,95.54 C -15.828,96.15 -15.334,96.782 -15.007,97.431 L -22.066,103.834 C -21.711,104.018 -21.354,104.206 -21.004,104.401 C -14.56,102.077 0.789,97.932 10.752,106.631 L 0.447,113.786 C 0.447,113.786 17.188,107.652 24.917,115.831 L 14.921,123.765 C 18.619,124.041 22.289,125.164 24.917,127.945 L 22.957,129.501 C 25.186,131.196 27.044,133.424 27.492,136.275 C 27.492,136.275 22.998,137.804 17.217,138.444 C 21.121,140.03 26.67,143.165 27.492,148.389 C 27.492,148.389 9.464,154.523 -0.84,147.367 L 0.047,155.819 C 3.013,155.845 6.766,157.014 9.462,161.832 C 9.462,161.832 6.827,166.007 -0.317,166.897 C -0.385,167.253 -0.463,167.601 -0.545,167.943 C 2.5,167.816 6.582,168.802 9.462,173.945 C 9.462,173.945 6.827,178.122 -0.317,179.012 C -1.296,184.159 -3.851,187.873 -6.886,188.081 C -7.215,189.958 -8.1,192.067 -9.855,194.39 C -9.855,194.39 -19.705,192.826 -23.039,187.646 C -24.123,192.652 -26.725,196.183 -29.765,196.183 C -30.601,196.183 -31.4,195.903 -32.147,195.413 L -36.9,195.413 L -38.358,196.8 C -39.673,200.33 -41.843,202.643 -44.302,202.643 C -47.19,202.643 -49.678,199.453 -50.85,194.843 C -51.767,195.195 -53.213,195.663 -54.921,195.935 C -52.959,198.317 -51.643,202.428 -51.579,207.133 C -47.587,206.883 -43.183,207.54 -40.766,210.899 L -44.592,213.937 C -46.262,214.716 -47.202,216.01 -47.202,216.01 L -44.592,213.937 C -42.34,212.885 -38.76,212.773 -34.324,218.054 C -33.616,218.898 -33.295,219.943 -33.278,221.139 C -29.512,219.294 -23.813,218.203 -16.939,222.399 L -29.494,230.833 L -27.953,231.706 C -24.821,231.378 -21.098,231.974 -16.939,234.513 L -29.494,242.947 L -22.732,246.779 C -22.732,246.779 -29.564,252.198 -35.999,252.847 C -36.086,253.005 -36.176,253.154 -36.267,253.305 C -34.37,254.16 -30.236,256.466 -29.494,260.58 C -29.494,260.58 -32.703,261.834 -37.123,261.226 C -37.158,261.318 -37.182,261.406 -37.222,261.5 L -41.086,260.272 C -41.084,260.326 -41.083,260.38 -41.082,260.435 C -38.931,261.97 -34.176,266.361 -37.222,273.613 L -39.691,272.83 L -38.188,274.533 C -38.188,274.533 -40.025,274.893 -42.624,275.051 C -43.097,276.857 -43.661,278.438 -44.298,279.72 L -38.188,286.647 C -38.188,286.647 -52.536,289.47 -57.892,282.792 C -56.973,284.238 -55.848,287.627 -61.546,291.493 C -62.738,294.379 -64.242,296.142 -65.881,296.294 L -63.301,296.766 C -63.301,296.766 -66.428,301.715 -72.171,303.655 L -73.258,304.517 C -73.689,305.423 -74.155,306.192 -74.649,306.801 L -63.301,308.88 C -63.301,308.88 -68.054,316.406 -76.605,316.536 C -76.605,316.631 -76.607,316.725 -76.608,316.821 C -75.815,317.851 -73.098,321.694 -73.928,324.981 L -77.018,323.754 C -78.013,332.236 -80.706,338.318 -83.874,338.318 C -85.972,338.318 -87.86,335.648 -89.188,331.383 C -90.824,331.034 -92.58,330.549 -94.101,330.095 C -95.266,329.905 -96.5,329.634 -97.737,329.253 L -87.447,342.615 C -87.447,342.615 -99.039,343.381 -104.834,337.248 C -104.834,337.248 -102.904,349.514 -113.528,351.814 L -114.186,350.248 C -115.507,354.343 -117.357,356.893 -119.408,356.893 C -121.65,356.893 -123.655,353.842 -124.988,349.052 C -126,349.463 -127.028,349.671 -128.017,349.514 L -130.914,342.615 C -130.914,342.615 -132.846,353.348 -136.71,353.348 L -141.54,344.147 C -141.54,344.147 -153.129,350.282 -157.959,348.748 L -154.097,341.847 C -154.097,341.847 -164.721,344.147 -168.584,339.548 L -165.687,335.714 C -165.687,335.714 -173.414,334.182 -175.346,329.581 L -166.57,329.001 C -167.344,328.599 -168.035,328.088 -168.584,327.434 L -165.687,323.6 C -165.687,323.6 -173.414,322.068 -175.346,317.466 L -163.755,316.701 C -163.755,316.701 -165.687,309.033 -160.857,309.033 L -155.061,309.8 L -155.061,307.028 C -155.415,306.892 -155.748,306.747 -156.028,306.581 L -155.061,305.813 L -155.061,302.133 C -155.061,302.133 -154.364,302.083 -153.25,302.086 C -153.245,301.964 -153.235,301.847 -153.229,301.726 C -155.851,300.294 -160.19,297.492 -160.857,294.314 L -160.98,294.444 C -161.952,303.049 -164.666,309.245 -167.863,309.245 C -171.328,309.245 -174.225,301.967 -174.953,292.231 C -177.578,292.38 -180.438,291.806 -183.073,289.713 C -183.073,289.713 -184.192,295.023 -188.541,298.247 C -189.854,303.916 -192.038,307.629 -194.513,307.629 C -196.954,307.629 -199.111,304.018 -200.429,298.484 C -205.013,299.427 -210.803,299.903 -213.981,297.38 L -211.083,291.247 C -211.083,291.247 -220.267,291.903 -222.328,285.823 C -226.796,287.038 -231.782,287.76 -235.23,286.392 L -232.656,281.28 C -232.656,281.28 -245.535,277.191 -248.109,271.058 L -235.23,271.058 L -234.335,268.573 C -237.91,267.231 -246.111,263.704 -248.109,258.944 L -235.23,258.944 L -232.812,252.221 C -238.622,254.179 -247.094,256.127 -253.261,253.68 C -253.261,253.68 -248.109,244.479 -233.943,242.435 C -233.943,242.435 -234.82,241.964 -235.976,241.082 C -241.432,242.6 -248.141,243.598 -253.261,241.566 C -253.261,241.566 -250.011,235.775 -241.592,232.361 C -241.638,231.979 -241.67,231.592 -241.67,231.19 L -238.901,231.41 C -237.387,230.955 -235.738,230.58 -233.943,230.32 C -233.943,230.32 -239.423,227.403 -241.146,222.2 C -241.32,222.131 -241.501,222.07 -241.67,221.99 L -241.37,221.454 C -241.557,220.703 -241.67,219.912 -241.67,219.076 L -240.107,219.2 L -236.518,212.792 C -236.518,212.792 -255.836,221.99 -262.277,214.834 C -262.277,214.834 -268.716,216.878 -273.866,209.724 C -273.866,209.724 -269.117,204.109 -259.648,204.543 C -260.655,204.115 -261.551,203.526 -262.277,202.72 C -262.277,202.72 -268.716,204.765 -273.866,197.61 C -273.866,197.61 -269.995,193.058 -262.298,192.477 C -262.231,191.156 -262.069,189.897 -261.819,188.713 L -264.852,185.343 C -264.852,185.343 -264.747,185.262 -264.561,185.136 C -269.313,183.923 -273.443,181.771 -275.154,178.035 C -275.154,178.035 -268.347,175.035 -261.688,173.632 C -266.761,172.741 -271.547,170.986 -274.093,167.666 C -274.953,168.345 -275.896,168.724 -276.887,168.724 C -278.075,168.724 -279.192,168.175 -280.182,167.222 C -280.633,173.987 -283.683,179.223 -287.386,179.223 C -291.401,179.223 -294.655,173.077 -294.655,165.494 C -294.655,163.322 -294.371,161.288 -293.894,159.465 C -293.988,159.108 -294.075,158.743 -294.152,158.369 C -296.686,158.435 -299.166,158.184 -301.009,157.298 C -301.309,157.369 -301.612,157.418 -301.923,157.418 C -305.444,157.418 -308.379,152.688 -309.047,146.408 C -312.574,145.419 -316.06,143.806 -318.941,141.233 L -308.695,138.731 C -308.619,138.362 -308.533,138.003 -308.441,137.651 C -308.716,136.601 -308.921,135.475 -309.047,134.294 C -312.574,133.304 -316.06,131.692 -318.941,129.12 L -317.462,128.758 L -318.941,127.945 C -318.941,127.945 -327.687,130.257 -334.761,127.486 C -335.719,127.354 -336.624,126.872 -337.443,126.105 C -338.718,125.268 -339.877,124.2 -340.834,122.833 L -339.784,122.647 C -340.85,120.259 -341.495,117.177 -341.495,113.807 C -341.495,111.634 -341.217,109.591 -340.74,107.765 C -340.773,107.639 -340.806,107.512 -340.837,107.384 C -343.241,107.053 -348.551,105.727 -352.426,100.345 C -352.426,100.345 -347.554,99.195 -341.413,99.726 C -341.292,98.148 -341.034,96.653 -340.655,95.295 C -342.967,95.005 -348.455,93.746 -352.426,88.231 C -352.426,88.231 -344.538,86.353 -336.17,88.476 C -335.55,88.152 -334.9,87.964 -334.227,87.964 C -332.473,87.964 -330.864,89.138 -329.608,91.092 C -329.488,91.161 -329.365,91.225 -329.245,91.297 L -328.518,84.957 C -330.939,82.729 -332.611,78.05 -332.611,72.621 C -332.611,70.445 -332.334,68.399 -331.856,66.574 C -332.103,65.633 -332.294,64.633 -332.421,63.586 C -337.125,65.501 -343.781,66.729 -351.138,63.544 L -348.151,59.75 C -348.997,57.582 -349.51,54.931 -349.558,52.051 C -350.081,51.867 -350.607,51.66 -351.138,51.43 L -350.747,50.933 C -352.434,49.339 -354.062,47.383 -355.002,45.143 L -348.902,45.143 C -349.29,43.527 -349.534,41.762 -349.561,39.882 C -351.635,38.136 -353.841,35.793 -355.002,33.029 L -348.709,33.029 C -347.484,28.715 -345.075,25.781 -342.302,25.781 C -340.806,25.781 -339.415,26.637 -338.259,28.102 L -338.259,24.935 C -345.223,25.719 -353.045,25.745 -356.29,22.654 L -343.411,16.521 C -343.411,16.521 -344.612,15.185 -346.08,13.259 C -350.392,13.194 -354.248,12.485 -356.29,10.54 L -349.846,7.472 C -350.418,6.367 -350.882,5.27 -351.138,4.254 L -344.219,3.469 C -345.983,1.372 -350.131,-3.862 -351.138,-7.86 L -342.124,-8.883 C -342.124,-8.883 -342.994,-15.151 -337.503,-19.064 C -336.172,-22.243 -334.116,-24.29 -331.804,-24.29 C -328.879,-24.29 -326.364,-21.019 -325.21,-16.315 C -322.584,-17.172 -318.016,-17.837 -311.214,-16.038 L -320.23,-25.239 C -320.23,-25.239 -315.325,-25.944 -309.976,-25.069 C -309.985,-25.347 -309.998,-25.623 -309.998,-25.906 C -309.998,-33.488 -306.744,-39.634 -302.729,-39.634 C -298.716,-39.634 -295.462,-33.488 -295.462,-25.906 C -295.462,-25.292 -295.49,-24.693 -295.531,-24.101 C -294.145,-23.37 -286.991,-19.053 -289.32,-8.883 C -289.32,-8.883 -275.154,-9.905 -267.427,-1.728 L -268.716,-10.927 L -264.761,-10.927 C -267.344,-12.782 -269.853,-15.453 -271.291,-19.256 C -271.291,-19.256 -286.746,-18.235 -291.897,-23.346 C -291.897,-23.346 -284.17,-30.503 -273.866,-30.503 C -273.866,-30.503 -274.94,-30.748 -276.451,-31.318 C -281.432,-31.467 -288.677,-32.265 -291.897,-35.46 C -291.897,-35.46 -290.048,-37.165 -286.967,-38.91 C -291.224,-39.63 -303.373,-42.216 -308.639,-48.903 C -308.639,-48.903 -302.158,-52.902 -292.967,-52.356 C -298.273,-53.812 -305.052,-56.463 -308.639,-61.017 C -308.639,-61.017 -298.035,-67.552 -284.718,-62.759 C -284.586,-63.537 -284.422,-64.334 -284.193,-65.165 C -285.007,-67.845 -285.646,-72.102 -284.17,-77.372 L -275.154,-72.261 C -275.154,-72.261 -268.716,-81.461 -253.261,-82.484 C -253.261,-82.484 -254.214,-74.203 -260.183,-69.27 C -258.111,-69.806 -255.812,-70.201 -253.261,-70.369 C -253.261,-70.369 -253.375,-69.383 -253.767,-67.895 C -249.405,-67.76 -244.603,-66.877 -241.67,-64.083 L -249.398,-58.973 C -249.398,-58.973 -233.943,-57.951 -228.791,-52.839 C -228.791,-52.839 -227.504,-62.04 -218.489,-65.106 L -217.202,-58.973 C -217.202,-58.973 -208.186,-61.017 -199.171,-54.884 C -199.171,-54.884 -199.175,-49.098 -200.847,-43.819 C -200.289,-43.499 -199.73,-43.15 -199.171,-42.769 C -199.171,-42.769 -199.172,-41.867 -199.275,-40.452 C -196.747,-41.084 -193.029,-41.359 -187.581,-40.572 L -192.732,-34.439 C -192.732,-34.439 -178.566,-34.439 -173.414,-30.349 C -173.414,-30.349 -164.398,-35.46 -160.536,-37.505 L -157.959,-32.394 C -157.959,-32.394 -157.959,-40.572 -143.792,-35.46 C -143.792,-35.46 -136.066,-37.505 -123.187,-28.306 C -123.187,-28.306 -119.527,-32.367 -112.766,-35.245 C -113.412,-36.208 -113.918,-37.053 -114.172,-37.658 L -105.284,-37.658 C -106.277,-38.848 -112.979,-46.933 -114.172,-49.772 L -109.521,-49.772 C -109.152,-50.555 -108.579,-51.298 -107.733,-51.969 L -106.882,-51.834 C -109.131,-54.844 -112.273,-60.479 -107.733,-64.083 L -101.294,-63.061 C -101.294,-63.061 -89.703,-75.328 -71.673,-72.261 L -72.96,-64.083 C -72.96,-64.083 -60.081,-66.127 -54.93,-62.04 L -56.219,-71.239 C -56.219,-71.239 -39.476,-69.194 -34.324,-57.951 C -34.324,-57.951 -24.021,-61.017 -18.87,-59.995 C -18.87,-59.995 -20.697,-52.74 -26.867,-47.546 C -24.053,-48.022 -21.016,-48.306 -18.87,-47.88 C -18.87,-47.88 -20.142,-42.852 -24.129,-38.168 C -22.7,-37.167 -21.342,-35.943 -20.158,-34.439 C -20.158,-34.439 -7.278,-41.594 10.752,-35.46 L 0.447,-27.284 C 0.447,-27.284 18.479,-28.306 27.492,-17.061 C 27.492,-17.061 15.9,-11.95 6.887,-16.038 C 6.887,-16.038 6.373,-15.632 5.429,-15.018 C 11.435,-14.494 21.472,-12.457 27.492,-4.946 C 27.492,-4.946 25.007,-3.852 21.444,-3.081 C 22.189,-3.014 22.922,-2.91 23.628,-2.75 L 13.325,9.519 C 13.325,9.519 39.084,3.385 45.523,13.606 C 45.523,13.606 40.854,17.307 33.958,20.077 C 38.869,20.648 43.323,22.229 45.523,25.72"
         style="fill:#f592ce;fill-opacity:1;fill-rule:nonzero;stroke:none"
         id="path2426" /></g><g
       id="g2428"
       transform="translate(382.6016,408.7637)"><path
         d="M 0,0 C -14.344,2.988 -72.179,-38.506 -83.998,-45.683 C -83.839,-23.937 -71.156,-10.436 -69.452,10.911 C -58.268,26.996 -49.107,36.61 -32.266,45.178 C -49.369,41.209 -54.948,29.622 -68.869,18.168 C -65.489,58.524 -57.635,103.7 -31.268,133.298 C -78.881,94.034 -59.254,18.597 -90.465,-29.035 C -91.514,-7.143 -102.597,57.367 -87.959,72.772 C -77.089,84.214 -74.822,110.267 -70.564,125.767 C -64.896,146.404 -59.671,167.659 -52.41,187.668 C -59.933,168.527 -66.704,148.988 -72.844,129.219 C -78.417,111.274 -79.419,84.318 -94.694,72.714 C -93.646,102.223 -92.599,131.731 -91.551,161.24 C -90.746,183.923 -89.537,206.394 -85.583,228.725 C -81.495,251.815 -73.235,275.601 -76.723,299.514 C -81.667,263.67 -95.75,226.244 -95.75,189.998 C -100.101,220.103 -95.681,249.38 -96.817,279.556 C -102.3,246.804 -96.983,213.929 -101.163,181.186 C -106.102,189.268 -117.631,201.647 -118.896,211.322 C -120.694,225.076 -123.031,250.345 -134.47,258.523 C -128.36,246.002 -125.437,232.026 -124.05,217.862 C -131.125,224.06 -133.391,236.182 -142.169,239.587 C -124.17,214.823 -102.929,184.709 -103.313,152.276 C -103.704,119.153 -106.598,81.032 -106.598,50.268 C -106.614,50.756 -106.684,51.232 -106.81,51.696 C -106.793,35.789 -125.2,72.615 -127.35,77.265 C -124.8,71.753 -123.812,62.59 -121.599,56.812 C -140.627,62.787 -158.702,80.463 -174.387,93.588 C -166.993,85.258 -158.307,78.309 -149.718,71.7 C -156.893,73.794 -164.396,76.28 -171.825,76.776 C -152.038,75.456 -133.789,60.226 -116.874,48.443 C -95.228,33.366 -103.485,-23.712 -102.494,-50.943 C -113.803,-36.528 -127.51,-29.494 -136.855,-13.604 C -143.484,-2.33 -151.557,8.959 -162.35,15.239 C -153.226,3.289 -143.987,-9.294 -137.293,-23.231 C -147.902,-18.867 -159.103,-16.041 -170.415,-16.365 C -153.869,-18.797 -136.021,-25.6 -122.759,-37.637 C -95.043,-62.793 -115.713,-189.515 -114.723,-240.499 C -113.986,-278.403 -109.678,-309.727 -118.028,-347.141 C -108.173,-363.077 -77.102,-361.025 -81.074,-338.07 C -87.46,-301.174 -93.204,-275.137 -98.151,-238.032 C -100.998,-216.685 -92.215,-60.026 -79.688,-50.481 C -68.102,-41.653 -16.478,-3.917 -1.923,-3.881 C 18.652,-3.828 47.854,-6.129 67.875,0 C 46.561,-2.665 18.912,0.937 -2.425,3.64"
         style="fill:#6c2a0f;fill-opacity:1;fill-rule:nonzero;stroke:none"
         id="path2430" /></g><g
       id="g2432"
       transform="translate(427.2246,410.7178)"
       style="fill:#502d16"><path
         d="M 0,0 C 22.123,5.87 33.565,23.479 37.379,33.541 C 40.403,41.519 42.339,54.923 33.565,64.148 C 24.791,73.373 14.876,69.18 9.917,69.598 L -32.041,69.598 C -36.999,69.18 -46.916,73.373 -55.688,64.148 C -64.461,54.923 -62.527,41.519 -59.504,33.541 C -55.688,23.479 -44.246,5.87 -22.123,0 L 0,0 z"
         style="fill:#502d16;fill-opacity:1;fill-rule:nonzero;stroke:none"
         id="path2434" /></g><g
       id="g2436"
       transform="translate(379.2314,464.3052)"
       style="fill:#d38d5f"><path
         d="M 0,0 C -0.383,-13.312 -2.95,-32.819 26.698,-51.15 C 32.802,-54.924 41.195,-56.182 48.822,-51.15 C 56.45,-46.12 77.47,-26.906 73.614,-4.192 C 67.354,32.681 0.64,22.268 0,0"
         style="fill:#d38d5f;fill-opacity:1;fill-rule:nonzero;stroke:none"
         id="path2438" /></g><g
       id="g2440"
       transform="translate(417.7354,413.2642)"><path
         d="M 0,0 C -1.52,1.267 -3.713,1.17 -4.888,-0.574 C -5.632,1.006 -6.952,1.378 -8.577,0.836 C -9.083,0.665 -9.522,0.39 -9.897,0.01 C -10.644,0.313 -11.44,0.535 -12.25,0.549 C -15.677,0.608 -17.387,-3.901 -16.864,-6.788 C -16.389,-9.419 -13.819,-12.368 -10.879,-11.716 C -9.178,-11.336 -9.266,-12.054 -7.53,-12.343 C -5.591,-12.666 -4.828,-12.284 -4.323,-10.371 C -2.88,-13.324 0.646,-12.006 1.046,-9.205 C 1.36,-7.005 1.984,-1.654 0,0"
         style="fill:#f68712;fill-opacity:1;fill-rule:nonzero;stroke:none"
         id="path2442" /></g><g
       id="g2444"
       transform="translate(436.9648,411.3818)"><path
         d="M 0,0 C -1.056,2.112 -3.047,2.828 -5.25,2.16 C -7.215,1.564 -9.495,4.533 -11.012,1.308 C -12.187,3.052 -14.381,3.148 -15.899,1.882 C -17.184,0.813 -17.096,-2.053 -17.133,-3.526 C -17.177,-5.291 -17.435,-8.461 -15.848,-9.688 C -14.47,-10.753 -12.276,-9.923 -11.576,-8.488 C -11.071,-10.402 -10.309,-10.783 -8.369,-10.46 C -7.552,-10.325 -6.805,-9.965 -6.242,-9.349 C -5.308,-9.962 -4.116,-10.03 -3.067,-9.693 C 1.191,-8.324 1.754,-3.508 0,0"
         style="fill:#f68712;fill-opacity:1;fill-rule:nonzero;stroke:none"
         id="path2446" /></g><g
       id="g2448"
       transform="translate(465.2656,532.9961)"
       style="fill:#502d16"><path
         d="M 0,0 C -5.261,-2.179 -11.784,-3.541 -18.045,-4.395 C -26.361,0.638 -37.216,3.691 -49.103,3.691 C -60.99,3.691 -71.844,0.638 -80.162,-4.395 C -86.421,-3.541 -92.943,-2.179 -98.206,0 C -98.206,0 -96.195,-11.898 -92.57,-16.163 C -95.073,-20.179 -96.469,-24.607 -96.469,-29.263 C -96.469,-47.464 -75.263,-62.218 -49.103,-62.218 C -22.943,-62.218 -1.737,-47.464 -1.737,-29.263 C -1.737,-24.607 -3.133,-20.179 -5.637,-16.164 C -2.01,-11.899 0,0 0,0"
         style="fill:#502d16;fill-opacity:1;fill-rule:nonzero;stroke:none"
         id="path2450" /></g><g
       id="g2452"
       transform="translate(438.0439,528.311)"><path
         d="M 0,0 C -10.927,0 -19.996,-7.881 -21.881,-18.266 C -23.765,-7.881 -32.835,0 -43.763,0 C -56.055,0 -66.021,-9.966 -66.021,-22.26 C -66.021,-34.552 -56.055,-44.519 -43.763,-44.519 C -32.835,-44.519 -23.765,-36.636 -21.881,-26.252 C -19.996,-36.636 -10.927,-44.519 0,-44.519 C 12.294,-44.519 22.261,-34.552 22.261,-22.26 C 22.261,-9.966 12.294,0 0,0"
         style="fill:#ffffff;fill-opacity:1;fill-rule:nonzero;stroke:none"
         id="path2454" /></g><g
       id="g2456"
       transform="translate(410.7393,484.1582)"><path
         d="M 0,0 C 0.193,-2.894 1.737,-6.173 5.401,-6.173 C 9.067,-6.173 11.188,-2.894 10.802,0 C 10.416,2.893 1.158,4.243 0,0"
         style="fill:#f1421d;fill-opacity:1;fill-rule:nonzero;stroke:none"
         id="path2458" /></g><g
       id="g2460"
       transform="translate(416.1406,494.7671)"><path
         d="M 0,0 C 1.736,0 3.858,-3.279 5.4,-10.609 C 3.666,-10.224 2.122,-13.117 0,-19.676 C -2.122,-13.117 -3.664,-10.224 -5.401,-10.609 C -3.858,-3.279 -1.737,0 0,0"
         style="fill:#f68712;fill-opacity:1;fill-rule:nonzero;stroke:none"
         id="path2462" /></g><g
       id="g2464"
       transform="translate(411.0508,506.4043)"
       style="fill:#a05a2c"><path
         d="M 0,0 C 0,-9.261 -7.511,-16.773 -16.775,-16.773 C -26.037,-16.773 -33.55,-9.261 -33.55,0 C -33.55,9.266 -26.037,16.775 -16.775,16.775 C -7.511,16.775 0,9.266 0,0"
         style="fill:#a05a2c;fill-opacity:1;fill-rule:nonzero;stroke:none"
         id="path2466" /></g><g
       id="g2468"
       transform="translate(409.6006,506.2192)"><path
         d="M 0,0 C -0.174,-8.569 -6.585,-15.947 -15.448,-15.768 C -23.853,-15.597 -30.148,-8.124 -30.633,-0.118 C -31.165,8.629 -23.921,16.316 -15.203,16.14 C -6.517,15.963 -0.168,8.059 0,-0.202 C 0.017,-1.091 2.922,-0.53 2.899,0.574 C 2.698,10.561 -5.608,17.952 -15.448,17.754 C -25.141,17.558 -33.351,9.729 -33.546,0 C -33.751,-10.073 -24.901,-17.578 -15.203,-17.381 C -5.51,-17.185 2.701,-9.355 2.896,0.373 C 2.922,1.556 0.021,0.932 0,0"
         style="fill:#231f20;fill-opacity:1;fill-rule:nonzero;stroke:none"
         id="path2470" /></g><g
       id="g2472"
       transform="translate(405.3193,506.4043)"><path
         d="M 0,0 C 0,-6.101 -4.942,-11.046 -11.044,-11.046 C -17.146,-11.046 -22.092,-6.101 -22.092,0 C -22.092,6.103 -17.146,11.051 -11.044,11.051 C -4.942,11.051 0,6.103 0,0"
         style="fill:#231f20;fill-opacity:1;fill-rule:nonzero;stroke:none"
         id="path2474" /></g><g
       id="g2476"
       transform="translate(390.6787,499.6279)"><path
         d="M 0,0 C 0,-1.533 -2.09,-2.772 -4.67,-2.772 C -7.251,-2.772 -9.343,-1.533 -9.343,0 C -9.343,1.532 -7.251,2.773 -4.67,2.773 C -2.09,2.773 0,1.532 0,0"
         style="fill:#ffffff;fill-opacity:1;fill-rule:nonzero;stroke:none"
         id="path2478" /></g><g
       id="g2480"
       transform="translate(406.6973,513.3076)"><path
         d="M 0,0 C 0,-3.004 -2.69,-5.443 -6.01,-5.443 C -9.324,-5.443 -12.012,-3.004 -12.012,0 C -12.012,3.006 -9.324,5.444 -6.01,5.444 C -2.69,5.444 0,3.006 0,0"
         style="fill:#ffffff;fill-opacity:1;fill-rule:nonzero;stroke:none"
         id="path2482" /></g><g
       id="g2484"
       transform="translate(455.3691,506.4043)"
       style="fill:#a05a2c"><path
         d="M 0,0 C 0,-9.261 -7.51,-16.773 -16.775,-16.773 C -26.037,-16.773 -33.55,-9.261 -33.55,0 C -33.55,9.266 -26.037,16.775 -16.775,16.775 C -7.51,16.775 0,9.266 0,0"
         style="fill:#a05a2c;fill-opacity:1;fill-rule:nonzero;stroke:none"
         id="path2486" /></g><g
       id="g2488"
       transform="translate(453.9189,506.2192)"><path
         d="M 0,0 C -0.173,-8.569 -6.585,-15.947 -15.448,-15.768 C -23.852,-15.597 -30.147,-8.124 -30.633,-0.118 C -31.165,8.629 -23.921,16.316 -15.203,16.14 C -6.517,15.963 -0.167,8.059 0,-0.202 C 0.017,-1.091 2.921,-0.53 2.899,0.574 C 2.698,10.561 -5.608,17.952 -15.448,17.754 C -25.14,17.558 -33.35,9.729 -33.546,0 C -33.751,-10.073 -24.9,-17.578 -15.203,-17.381 C -5.509,-17.185 2.701,-9.355 2.896,0.373 C 2.921,1.556 0.021,0.932 0,0"
         style="fill:#231f20;fill-opacity:1;fill-rule:nonzero;stroke:none"
         id="path2490" /></g><g
       id="g2492"
       transform="translate(449.6387,506.4043)"><path
         d="M 0,0 C 0,-6.101 -4.943,-11.046 -11.045,-11.046 C -17.146,-11.046 -22.094,-6.101 -22.094,0 C -22.094,6.103 -17.146,11.051 -11.045,11.051 C -4.943,11.051 0,6.103 0,0"
         style="fill:#231f20;fill-opacity:1;fill-rule:nonzero;stroke:none"
         id="path2494" /></g><g
       id="g2496"
       transform="translate(434.998,499.6279)"><path
         d="M 0,0 C 0,-1.533 -2.092,-2.772 -4.671,-2.772 C -7.252,-2.772 -9.344,-1.533 -9.344,0 C -9.344,1.532 -7.252,2.773 -4.671,2.773 C -2.092,2.773 0,1.532 0,0"
         style="fill:#ffffff;fill-opacity:1;fill-rule:nonzero;stroke:none"
         id="path2498" /></g><g
       id="g2500"
       transform="translate(451.0146,513.3076)"><path
         d="M 0,0 C 0,-3.004 -2.689,-5.443 -6.009,-5.443 C -9.323,-5.443 -12.011,-3.004 -12.011,0 C -12.011,3.006 -9.323,5.444 -6.009,5.444 C -2.689,5.444 0,3.006 0,0"
         style="fill:#ffffff;fill-opacity:1;fill-rule:nonzero;stroke:none"
         id="path2502" /></g></g></svg>