<?xml version="1.0" encoding="UTF-8" standalone="no"?>
<!-- Created with Inkscape (http://www.inkscape.org/) -->

<svg
   xmlns:dc="http://purl.org/dc/elements/1.1/"
   xmlns:cc="http://creativecommons.org/ns#"
   xmlns:rdf="http://www.w3.org/1999/02/22-rdf-syntax-ns#"
   xmlns:svg="http://www.w3.org/2000/svg"
   xmlns="http://www.w3.org/2000/svg"
   xmlns:sodipodi="http://sodipodi.sourceforge.net/DTD/sodipodi-0.dtd"
   xmlns:inkscape="http://www.inkscape.org/namespaces/inkscape"
   width="709.65881"
   height="169.5451"
   id="svg4299"
   version="1.1"
   inkscape:version="0.47 r22583"
   sodipodi:docname="thsios-logo-thai-text.svg"
   inkscape:export-filename="/home/light/project/thaiopensource/webdesign/thaios-design-website/thsios-logo-thai-text.png"
   inkscape:export-xdpi="445.07553"
   inkscape:export-ydpi="445.07553">
  <defs
     id="defs4301">
    <inkscape:perspective
       sodipodi:type="inkscape:persp3d"
       inkscape:vp_x="0 : 526.18109 : 1"
       inkscape:vp_y="0 : 1000 : 0"
       inkscape:vp_z="744.09448 : 526.18109 : 1"
       inkscape:persp3d-origin="372.04724 : 350.78739 : 1"
       id="perspective4307" />
    <inkscape:perspective
       id="perspective4317"
       inkscape:persp3d-origin="0.5 : 0.33333333 : 1"
       inkscape:vp_z="1 : 0.5 : 1"
       inkscape:vp_y="0 : 1000 : 0"
       inkscape:vp_x="0 : 0.5 : 1"
       sodipodi:type="inkscape:persp3d" />
    <inkscape:perspective
       id="perspective4357"
       inkscape:persp3d-origin="0.5 : 0.33333333 : 1"
       inkscape:vp_z="1 : 0.5 : 1"
       inkscape:vp_y="0 : 1000 : 0"
       inkscape:vp_x="0 : 0.5 : 1"
       sodipodi:type="inkscape:persp3d" />
  </defs>
  <sodipodi:namedview
     id="base"
     pagecolor="#ffffff"
     bordercolor="#666666"
     borderopacity="1.0"
     inkscape:pageopacity="0.0"
     inkscape:pageshadow="2"
     inkscape:zoom="0.7"
     inkscape:cx="384.66766"
     inkscape:cy="20.854581"
     inkscape:document-units="px"
     inkscape:current-layer="layer1"
     showgrid="false"
     inkscape:window-width="1366"
     inkscape:window-height="721"
     inkscape:window-x="0"
     inkscape:window-y="22"
     inkscape:window-maximized="1" />
  <metadata
     id="metadata4304">
    <rdf:RDF>
      <cc:Work
         rdf:about="">
        <dc:format>image/svg+xml</dc:format>
        <dc:type
           rdf:resource="http://purl.org/dc/dcmitype/StillImage" />
        <dc:title></dc:title>
      </cc:Work>
    </rdf:RDF>
  </metadata>
  <g
     inkscape:label="Layer 1"
     inkscape:groupmode="layer"
     id="layer1"
     transform="translate(-15.264725,-298.31311)">
    <g
       id="g4792">
      <path
         sodipodi:nodetypes="ccccccccc"
         id="path2834-3-0-7"
         d="m 42.701078,465.76561 c -7.662409,-7.16815 -11.987942,-12.48226 -27.436353,-14.83058 2.595323,-2.71873 15.571987,-15.07763 0,-34.85141 11.74079,6.17929 20.144721,11.24634 22.987228,19.65025 -9.80839,-1.66195 -6.638555,10.82081 1.853802,7.04447 l 27.807114,-64.88332 7.044464,-71.92779 7.044481,73.04018 -39.300736,86.7582 z"
         style="fill:#ce5c00;fill-opacity:1;stroke:none" />
      <path
         sodipodi:nodetypes="ccccccccc"
         id="path2834-0-2-9-6"
         d="m 189.44548,466.50727 c 7.66239,-7.16799 11.98796,-12.48226 27.43633,-14.83042 -2.59532,-2.7189 -15.57197,-15.07763 0,-34.85158 -11.74077,6.17929 -20.1447,11.24651 -22.98719,19.65026 9.80836,-1.66196 6.63852,10.82097 -1.85382,7.04446 l -27.80713,-64.88315 -7.04446,-71.92779 -7.04447,73.04002 39.30074,86.7582 z"
         style="fill:#ce5c00;stroke:none" />
      <path
         id="path3672-2-9-2"
         d="m 115.75672,298.31311 0,0.69981 -8.01056,29.39801 4.58857,5.24968 -6.84398,0 -2.72204,8.36058 2.60537,4.39414 -5.01633,0 -2.527599,7.50503 4.083059,4.62741 -6.260685,-0.0382 -3.460884,6.49391 6.377358,6.29949 -9.177163,-0.0382 -41.258323,96.59345 25.276077,0 32.2367,-76.17814 10.11043,0 0.19442,0 10.11043,0 32.23673,76.17814 25.27606,0 -41.25834,-96.59345 -9.17715,0.0382 6.37735,-6.29949 -3.46087,-6.49391 -6.26069,0.0382 4.08306,-4.62741 -2.52761,-7.50503 -5.01634,0 2.60539,-4.39414 -2.72204,-8.36058 -6.84398,0 4.58859,-5.24968 -8.01059,-29.39801 0,-0.69981 -0.11655,0.34982 -0.0777,-0.34982 z"
         style="fill:#c17d11;stroke:none" />
      <g
         id="text3459-0-4"
         style="font-size:193.14950562px;font-style:normal;font-weight:normal;fill:#2e3436;fill-opacity:1;stroke:none;font-family:Bitstream Vera Sans">
        <path
           id="path4776"
           style="font-variant:normal;font-weight:bold;font-stretch:normal;fill:#2e3436;font-family:TF Arluck;-inkscape-font-specification:TF Arluck Bold"
           d="m 282.49347,429.69217 c -4e-5,-0.12874 0.12873,-0.45066 0.3863,-0.96575 0.38626,-0.51504 0.83694,-1.0301 1.35205,-1.5452 0.51502,-0.51503 1.03009,-0.96571 1.54519,-1.35204 0.64379,-0.51504 1.28762,-0.77257 1.9315,-0.7726 0.51502,3e-5 1.22323,0.45071 2.12464,1.35204 1.03009,0.77263 1.99583,1.86714 2.89724,3.28355 1.03009,1.28769 1.86707,2.70411 2.51095,4.24929 0.77255,1.54521 1.22323,3.02602 1.35204,4.44243 -5e-5,0.90139 -0.57949,2.3822 -1.73834,4.44244 -1.03018,2.06028 -2.31784,4.18492 -3.86299,6.37394 -1.54524,2.06026 -3.02605,3.92737 -4.44244,5.60133 -1.41647,1.5452 -2.38222,2.25341 -2.89724,2.12465 -0.38634,-0.12877 -1.15894,-0.51507 -2.3178,-1.1589 -1.15893,-0.7726 -2.38221,-1.86711 -3.66984,-3.28354 -1.15892,-1.41643 -2.25344,-3.21915 -3.28354,-5.40819 -0.90139,-2.18901 -1.35207,-4.76434 -1.35205,-7.72598 l 0,-99.85829 c -2e-5,-1.03002 -0.0644,-2.12453 -0.19315,-3.28354 -2e-5,-1.28755 -0.32194,-2.44644 -0.96574,-3.4767 l -15.83826,31.29022 -4.24929,-3.28354 c -1e-5,-0.12867 -0.12877,-0.83688 -0.3863,-2.12464 -0.12877,-1.41633 -0.3863,-3.09029 -0.7726,-5.02189 -0.3863,-1.93139 -0.90137,-3.99165 -1.54519,-6.18078 -0.51507,-2.18892 -1.1589,-4.12041 -1.9315,-5.79449 -1.93149,-4.24917 -3.7986,-7.27517 -5.60134,-9.07803 -1.93148,-1.93136 -3.60544,-3.15464 -5.02188,-3.66984 -1.41642,-0.6437 -2.57532,-0.90123 -3.47669,-0.77259 -0.90135,0.12889 -1.41642,0.19327 -1.5452,0.19315 l 7.72598,-6.95339 c 1.03014,-0.12863 2.18903,0.1289 3.47669,0.7726 1.03014,0.64397 2.3178,1.6741 3.86299,3.09039 1.41643,1.2878 3.02601,3.41244 4.82874,6.37394 1.15889,1.80285 2.06025,3.79873 2.70409,5.98763 0.77259,2.18915 1.41642,4.31379 1.9315,6.37394 0.51505,1.9316 0.83697,3.60556 0.96574,5.02188 0.25753,1.28777 0.38629,1.9316 0.3863,1.9315 l 16.99716,-32.06282 c 1.28764,0.77273 2.51091,1.80286 3.66984,3.09039 1.28763,1.15903 2.31776,2.70423 3.09039,4.63559 0.38627,1.03026 0.6438,2.12477 0.7726,3.28354 0.2575,1.15902 0.38626,2.31792 0.3863,3.47669 0.12873,1.15902 0.19311,2.18915 0.19315,3.0904 -4e-5,0.77271 -4e-5,1.35216 0,1.73834 l 0,91.55287 m 2.51094,18.3492 c 0.12873,-0.12876 0.45065,-0.57944 0.96575,-1.35205 0.64379,-0.90135 1.22324,-1.80271 1.73835,-2.70409 0.64379,-1.03012 1.15885,-1.99586 1.54519,-2.89724 0.51502,-1.03012 0.77256,-1.67395 0.7726,-1.9315 -0.25758,-1.93147 -0.90141,-3.41229 -1.93149,-4.44244 -1.03018,-1.15887 -1.67401,-1.73832 -1.9315,-1.73834 -0.25757,2e-5 -0.70825,0.32194 -1.35205,0.96575 -0.5151,0.51508 -1.03016,1.15891 -1.54519,1.93149 -0.5151,0.77262 -0.96579,1.54522 -1.35205,2.31779 -0.38633,0.77262 -0.57948,1.35207 -0.57945,1.73835 0.2575,2.83287 0.83695,4.95752 1.73835,6.37393 1.03009,1.28768 1.67392,1.86712 1.93149,1.73835" />
        <path
           id="path4778"
           style="font-variant:normal;font-weight:bold;font-stretch:normal;fill:#2e3436;font-family:TF Arluck;-inkscape-font-specification:TF Arluck Bold"
           d="m 352.65503,456.92625 0,-63.73934 c -5e-5,-0.25747 -0.51512,-0.96568 -1.5452,-2.12464 -0.90141,-1.15884 -2.18907,-2.0602 -3.86299,-2.7041 -1.03017,1.0302 -2.70413,4.05621 -5.02188,9.07803 -2.18907,4.89317 -4.3781,10.55889 -6.56709,16.99716 -1.54523,4.24932 -2.96166,8.49861 -4.24929,12.74786 -1.15892,4.24932 -2.18905,8.1123 -3.09039,11.58897 -0.77262,3.47671 -1.41645,6.37395 -1.93149,8.69173 -0.51509,2.3178 -0.83701,3.73423 -0.96575,4.24929 l -7.14653,5.21504 -0.7726,-2.12465 c -0.77261,-2.18902 -1.80274,-5.79448 -3.09039,-10.81637 -1.28768,-5.02187 -1.93151,-10.55882 -1.9315,-16.61086 -1e-5,-1.54516 0.0644,-2.83283 0.19315,-3.86299 0.12876,-1.15886 0.25752,-2.18899 0.3863,-3.09039 0.25752,-1.03009 0.51505,-1.99584 0.7726,-2.89724 0.38628,-1.03009 0.83697,-2.18899 1.35204,-3.47669 l 2.7041,-7.33968 -2.3178,2.31779 c -0.64384,0.51511 -1.15891,1.03018 -1.54519,1.5452 -0.38631,0.38634 -0.837,0.51511 -1.35205,0.38629 -1.80274,-0.25748 -3.41232,-1.73829 -4.82874,-4.44243 -1.28767,-2.70404 -1.9315,-6.50265 -1.93149,-11.39583 l 0,-0.96574 c -10e-6,-0.25747 0.19314,-0.9013 0.57945,-1.9315 0.51506,-1.15883 2.06025,-3.28347 4.63558,-6.37393 0.90136,-1.03006 1.99587,-2.25334 3.28355,-3.66984 1.41641,-1.54512 2.44654,-2.51087 3.09039,-2.89724 0.51505,-0.25746 0.83696,-0.38623 0.96575,-0.3863 0.25751,-0.12869 0.64381,0.0645 1.15889,0.57944 0.51505,0.51515 1.60956,1.73843 3.28354,3.66985 1.80271,1.8028 3.02599,4.50689 3.66985,8.11227 0.2575,1.0302 0.38627,2.06033 0.38629,3.0904 -2e-5,1.03019 -2e-5,1.99594 0,2.89724 -2e-5,2.57538 -0.19317,4.57126 -0.57944,5.98763 -0.38633,1.28772 -0.90139,3.02606 -1.5452,5.21504 -0.64385,2.31784 -1.35207,4.82878 -2.12464,7.53283 -0.77262,2.70413 -1.15892,5.73014 -1.1589,9.07803 -2e-5,0.1288 -2e-5,0.77263 0,1.93149 0.12874,1.03016 0.19313,2.31782 0.19315,3.86299 0.12874,1.41646 0.19313,2.7685 0.19315,4.05614 0.12874,1.28769 0.19313,2.18905 0.19315,2.7041 0.77257,-3.09037 1.60955,-6.24515 2.51094,-9.46433 0.77257,-2.70406 1.60955,-5.6013 2.51094,-8.69173 0.90134,-3.21912 1.86709,-6.18074 2.89725,-8.88487 1.93146,-5.27937 3.60542,-9.65742 5.02188,-13.13417 1.4164,-3.6054 2.83283,-6.76017 4.24929,-9.46433 1.80269,-3.34785 3.15474,-5.66564 4.05614,-6.95338 1.03009,-1.41635 1.86707,-2.12457 2.51095,-2.12464 1.03008,0.12884 2.18898,0.38637 3.47669,0.77259 2.18897,0.64391 4.63553,1.86719 7.33968,3.66984 2.57527,1.93157 4.12046,3.54115 4.63559,4.82874 0.515,1.28773 0.77253,2.51101 0.77259,3.66984 l 0,56.59281 -9.46432,8.49858 m -37.66416,-52.92297 c 0.77259,-0.12871 1.67395,-0.90131 2.7041,-2.31779 1.03011,-1.41638 1.67394,-2.8328 1.93149,-4.24929 0.25752,-1.6739 0.19313,-3.66978 -0.19315,-5.98764 -0.38631,-2.31772 -1.28768,-3.79853 -2.70409,-4.44243 -10e-6,7e-5 -0.25755,0.32198 -0.7726,0.96574 -0.38631,0.51514 -0.83699,1.09458 -1.35204,1.73835 -0.51508,0.6439 -1.03015,1.28773 -1.5452,1.93149 -0.38631,0.6439 -0.57946,1.0302 -0.57945,1.1589 -1e-5,3.34799 0.32191,6.05208 0.96575,8.11228 0.77258,2.06031 1.28765,3.09044 1.54519,3.09039" />
        <path
           id="path4780"
           style="font-variant:normal;font-weight:bold;font-stretch:normal;fill:#2e3436;font-family:TF Arluck;-inkscape-font-specification:TF Arluck Bold"
           d="m 430.72364,379.087 0,63.93248 c -6e-5,0.38631 -0.32198,1.28768 -0.96575,2.7041 -0.64389,1.28767 -1.48087,2.63971 -2.51094,4.05613 -1.41649,2.18904 -3.02606,3.863 -4.82874,5.02189 -1.80278,1.03013 -3.66989,1.67396 -5.60134,1.9315 -1.15894,0.25753 -2.70413,0.19315 -4.63559,-0.19315 -1.80276,-0.3863 -3.79864,-0.90137 -5.98763,-1.5452 -2.44659,-0.64383 -4.89315,-1.22328 -7.33968,-1.73834 -2.44659,-0.64383 -4.37808,-0.83698 -5.79449,-0.57945 -1.15891,0.25753 -2.12466,0.64383 -2.89724,1.15889 -0.77261,0.38631 -1.67398,0.90137 -2.70409,1.5452 l -2.3178,1.5452 -3.09039,-4.05614 0.3863,-1.5452 c 0.12876,-0.38629 0.19314,-0.77259 0.19315,-1.1589 0.12876,-0.38629 0.25752,-0.64382 0.3863,-0.77259 -1e-5,-0.12876 -0.0644,-1.03013 -0.19315,-2.7041 -1e-5,-1.80271 -1e-5,-3.79859 0,-5.98763 -0.12878,-2.44654 -0.19316,-5.21502 -0.19315,-8.30543 -1e-5,-1.4164 0.0644,-2.83283 0.19315,-4.24929 0.12876,-1.54517 0.64382,-3.02598 1.5452,-4.44244 0.25752,-0.6438 1.15888,-1.35201 2.70409,-2.12464 1.54518,-0.90133 2.70407,-1.60955 3.47669,-2.12465 -1.03015,-0.25749 -2.57534,-0.45064 -4.63559,-0.57945 -2.06027,-0.25749 -3.4767,-0.90132 -4.24929,-1.93149 -1.28767,-1.67392 -2.25342,-3.73418 -2.89724,-6.18079 -0.51507,-2.57527 -0.7726,-5.02183 -0.7726,-7.33968 0,-3.9917 0.83698,-7.21085 2.51095,-9.65747 1.54518,-2.18896 3.28353,-4.18484 5.21503,-5.98764 1.93148,-1.80265 3.66983,-3.28347 5.21504,-4.44244 -2e-5,8e-5 0.3219,-0.25745 0.96575,-0.77259 0.64381,-0.51499 1.41641,-1.03006 2.31779,-1.5452 0.90134,-0.51499 1.73832,-0.96567 2.51094,-1.35205 0.90134,-0.51498 1.54517,-0.77252 1.9315,-0.77259 l 0.19315,0 c 1.15887,0.25761 2.44653,1.15897 3.86299,2.70409 1.4164,1.67403 2.57529,3.79868 3.47669,6.37393 1.0301,2.44663 1.41639,4.95757 1.1589,7.53283 -0.25757,1.41649 -0.77264,2.83292 -1.5452,4.24929 -0.77263,1.28772 -1.73838,2.511 -2.89724,3.66984 -1.03016,1.03019 -2.18906,1.99593 -3.47669,2.89725 -1.15893,0.77264 -2.18906,1.41647 -3.09039,1.93149 -1.93152,0.90141 -3.1548,1.15895 -3.66985,0.7726 -1.54521,-0.77255 -2.89726,-2.1246 -4.05613,-4.05614 -1.15892,-1.93144 -1.93151,-4.57115 -2.3178,-7.91913 -0.12878,-0.25747 -0.19316,-0.57939 -0.19315,-0.96575 0.12875,-0.38624 0.19314,-0.70815 0.19315,-0.96575 l 0,-0.96574 c -0.90138,2.57538 -1.35206,5.53701 -1.35205,8.88487 0.12876,3.21921 0.96574,5.98769 2.51095,8.30543 0.64381,0.90141 1.60956,1.80278 2.89724,2.7041 1.28764,0.77264 3.28352,0.96579 5.98764,0.57944 4.24926,-0.64378 7.33965,-1.80268 9.27117,-3.47669 1.93146,-1.80268 3.21912,-3.02596 3.86299,-3.66984 0.12873,-0.12871 0.45065,-0.5794 0.96575,-1.35204 0.25749,-0.38625 0.51503,-0.70817 0.7726,-0.96575 l 4.05614,2.12464 -0.57945,1.35205 c -4e-5,0.12881 -0.25758,0.51511 -0.7726,1.1589 -0.38634,0.64387 -1.03017,1.48086 -1.93149,2.51094 -0.90141,0.90141 -2.0603,1.93154 -3.4767,3.09039 -1.28769,1.03017 -2.89727,1.99592 -4.82873,2.89725 -1.41646,0.64386 -2.57536,1.15893 -3.47669,1.54519 -0.9014,0.25757 -1.67399,0.5151 -2.3178,0.7726 -0.64386,0.25757 -1.2233,0.57948 -1.73834,0.96575 -0.51509,0.25756 -1.03016,0.64386 -1.5452,1.15889 -0.90139,0.9014 -1.67398,2.18906 -2.31779,3.86299 -0.51509,1.67399 -0.70824,3.60549 -0.57945,5.79449 l 0.3863,13.90676 c 0.51504,-0.25752 1.03011,-0.51505 1.54519,-0.77259 0.64381,-0.25753 1.35203,-0.45068 2.12465,-0.57945 1.8027,-0.25752 3.66981,-0.12876 5.60133,0.3863 2.06023,0.51507 4.18488,1.09452 6.37394,1.73834 1.67392,0.51508 3.2835,0.96576 4.82873,1.35205 1.54516,0.38631 2.8972,0.45069 4.05614,0.19315 0.90132,-0.12876 1.86707,-0.64383 2.89725,-1.5452 1.03008,-0.90135 1.60953,-1.54518 1.73834,-1.93149 l 0,-57.75171 9.46433,-8.30542 m -38.2436,15.45196 c -0.12879,1.67402 0.19312,3.2836 0.96574,4.82873 0.90135,1.41649 1.73833,2.1247 2.51095,2.12465 0.51504,5e-5 1.35202,-0.51501 2.51094,-1.5452 1.28764,-1.03007 1.93147,-2.18897 1.93149,-3.47669 0.12874,-2.96156 -0.38632,-5.27935 -1.54519,-6.95338 -1.03016,-1.67389 -1.67399,-2.57526 -1.9315,-2.70409 -2.70411,1.41649 -4.18492,3.99182 -4.44243,7.72598" />
        <path
           id="path4782"
           style="font-variant:normal;font-weight:bold;font-stretch:normal;fill:#2e3436;font-family:TF Arluck;-inkscape-font-specification:TF Arluck Bold"
           d="m 456.2918,327.12978 c -0.51508,-0.12864 -1.09453,-0.12864 -1.73834,0 -0.51508,1.3e-4 -0.96576,0.0645 -1.35205,0.19315 -2.18904,0.51519 -3.92738,1.28779 -5.21504,2.31779 -1.1589,1.03026 -1.86711,1.67409 -2.12464,1.9315 1.80272,0.12889 3.54106,0.38642 5.21503,0.7726 1.80272,0.38642 3.4123,0.8371 4.82874,1.35204 1.67395,0.51519 3.34791,1.15902 5.02189,1.9315 6.43829,2.70421 9.65745,6.50281 9.65747,11.39582 l 0,82.66799 c -2e-5,-0.12874 0.12874,-0.45066 0.3863,-0.96575 0.38627,-0.51504 0.83695,-1.0301 1.35205,-1.5452 0.51503,-0.51503 1.0301,-0.96571 1.5452,-1.35204 0.64379,-0.51504 1.28763,-0.77257 1.93149,-0.7726 0.51503,3e-5 1.22325,0.45071 2.12465,1.35204 1.03009,0.77263 1.99584,1.86714 2.89724,3.28355 1.03009,1.28769 1.86707,2.70411 2.51094,4.24929 0.77256,1.54521 1.22324,3.02602 1.35205,4.44243 -4e-5,0.90139 -0.57949,2.3822 -1.73835,4.44244 -1.03017,2.06028 -2.31783,4.18492 -3.86299,6.37394 -1.54523,2.06026 -3.02604,3.92737 -4.44244,5.60133 -1.41646,1.5452 -2.3822,2.25341 -2.89724,2.12465 -0.38633,-0.12877 -1.15892,-0.51507 -2.31779,-1.1589 -1.15893,-0.7726 -2.38221,-1.86711 -3.66984,-3.28354 -1.15892,-1.41643 -2.25344,-3.21915 -3.28355,-5.40819 -0.90138,-2.18901 -1.35206,-4.76434 -1.35204,-7.72598 l 0,-90.20082 c -2e-5,-2.18892 -0.70824,-3.86288 -2.12465,-5.02188 -1.28768,-1.15879 -3.4767,-2.31768 -6.56708,-3.4767 -2.57533,-1.03001 -4.76436,-1.67384 -6.56708,-1.93149 -1.67397,-0.25742 -3.02601,-0.3218 -4.05614,-0.19315 -1.1589,1.2e-4 -1.99588,0.12888 -2.51095,0.3863 -0.64382,0.12888 -0.96574,0.19327 -0.96574,0.19315 l -4.24929,-3.28354 c 10e-6,1.2e-4 0.51507,-0.7081 1.54519,-2.12465 1.03014,-1.4163 2.51095,-2.9615 4.44244,-4.63559 1.80273,-1.8026 3.99176,-3.60532 6.56709,-5.40818 2.57531,-1.8026 5.40817,-3.09026 8.49857,-3.86299 2.18902,-0.51493 4.44242,-0.45055 6.76024,0.19315 2.31777,0.5152 4.63556,1.2878 6.95338,2.31779 2.44653,0.9015 4.76432,1.80286 6.95338,2.70409 2.31776,0.77273 4.50678,1.09465 6.56708,0.96575 2.18899,-0.2574 4.18487,-1.03 5.98764,-2.31779 1.93145,-1.4163 3.60541,-2.96149 5.02189,-4.63559 1.6739,-2.06012 2.70403,-3.54093 3.09039,-4.44244 l 4.44244,2.12465 c -0.2576,0.64397 -0.96581,1.86725 -2.12465,3.66984 -1.15895,1.67409 -2.57538,3.47682 -4.24929,5.40818 -1.67401,1.93163 -3.6055,3.73435 -5.79448,5.40819 -2.06031,1.67408 -4.18495,2.70421 -6.37394,3.09039 -3.09043,0.51519 -6.18081,0.0645 -9.27117,-1.35205 -3.09042,-1.54507 -6.24519,-2.89711 -9.46433,-4.05614 -1.28768,-0.38617 -2.57534,-0.70808 -3.86299,-0.96574 -1.28768,-0.38617 -2.44657,-0.64371 -3.47669,-0.7726 m 17.9629,105.84593 c -0.25756,2e-5 -0.70824,0.32194 -1.35204,0.96575 -0.5151,0.51508 -1.03016,1.15891 -1.5452,1.93149 -0.51509,0.77262 -0.96577,1.54522 -1.35204,2.31779 -0.38633,0.77262 -0.57948,1.35207 -0.57945,1.73835 0.2575,2.83287 0.83695,4.95752 1.73834,6.37393 1.0301,1.28768 1.67393,1.86712 1.9315,1.73835 0.12873,-0.12876 0.45065,-0.57944 0.96575,-1.35205 0.64379,-0.90135 1.22324,-1.80271 1.73834,-2.70409 0.6438,-1.03012 1.15886,-1.99586 1.5452,-2.89724 0.51503,-1.03012 0.77256,-1.67395 0.77259,-1.9315 -0.25756,-1.93147 -0.90139,-3.41229 -1.93149,-4.44244 -1.03016,-1.15887 -1.674,-1.73832 -1.9315,-1.73834" />
        <path
           id="path4784"
           style="font-variant:normal;font-weight:bold;font-stretch:normal;fill:#2e3436;font-family:TF Arluck;-inkscape-font-specification:TF Arluck Bold"
           d="m 543.42035,383.52943 0,47.90108 c -6e-5,2.31782 -0.51512,4.76438 -1.5452,7.33968 -0.90141,2.57534 -2.25346,5.15067 -4.05614,7.72598 -1.03018,1.41644 -2.06031,2.76849 -3.09039,4.05614 -1.03018,1.1589 -1.99592,2.25342 -2.89724,3.28354 -1.41647,1.41644 -2.4466,2.3178 -3.0904,2.7041 -0.64387,0.3863 -1.09455,0.57945 -1.35204,0.57945 -0.5151,0 -1.73838,-0.25754 -3.66984,-0.7726 -1.93153,-0.64383 -4.18494,-1.60958 -6.76023,-2.89724 -2.31782,-1.1589 -5.0863,-2.96162 -8.30543,-5.40819 -3.09041,-2.57532 -5.4082,-5.34379 -6.95339,-8.30543 -0.64384,-1.41641 -1.35205,-3.02599 -2.12464,-4.82874 -0.77261,-1.93147 -1.22329,-4.12049 -1.35205,-6.56708 -0.12877,-2.96159 -1e-5,-5.6013 0.3863,-7.91913 0.38629,-2.44652 1.15889,-5.15061 2.3178,-8.11228 2.44654,-5.79443 5.08625,-9.97934 7.91913,-12.55472 2.83283,-2.57526 4.69994,-3.86293 5.60133,-3.86299 l 0.19315,0 c 1.15887,0.2576 2.70407,1.60964 4.63559,4.05614 2.06023,2.31785 3.34789,5.21509 3.86299,8.69173 0.12873,2.18907 -0.1288,4.18495 -0.7726,5.98763 -0.5151,1.80277 -1.22331,3.41235 -2.12464,4.82874 -0.77263,1.2877 -1.60961,2.38221 -2.51095,3.28354 -0.77262,0.9014 -1.41645,1.54523 -1.93149,1.9315 -1.54522,1.28769 -2.63974,2.06029 -3.28354,2.31779 -0.51509,0.1288 -0.90139,0.1288 -1.1589,0 -0.64385,-0.38627 -1.67398,-1.28763 -3.09039,-2.70409 -1.41645,-1.54516 -2.3822,-2.83282 -2.89725,-3.86299 l 0,2.12464 c -10e-6,2.0603 0.3219,4.31371 0.96575,6.76024 0.64382,2.31782 1.80271,4.76437 3.47669,7.33968 1.41641,2.31781 3.02599,4.2493 4.82874,5.79448 1.8027,1.41645 3.54105,2.57534 5.21504,3.47669 1.67393,0.90138 3.15474,1.54521 4.44244,1.9315 1.41639,0.25754 2.31775,0.45069 2.70409,0.57945 0.25749,-0.12876 0.77256,-0.57944 1.5452,-1.35205 0.77255,-0.77259 1.80268,-2.18901 3.09039,-4.24929 1.15885,-1.93148 1.80268,-3.60544 1.93149,-5.02188 0.25749,-1.41641 0.38626,-2.96161 0.3863,-4.63559 l 0,-41.7203 c -1.03017,7e-5 -2.57537,-0.25746 -4.63559,-0.77259 -1.93153,-0.515 -3.79864,-1.15883 -5.60133,-1.9315 -2.31783,-1.15883 -4.44247,-1.80266 -6.37394,-1.93149 -1.93152,-0.25747 -3.66986,-0.19308 -5.21503,0.19315 -1.54522,0.38636 -2.96165,1.03019 -4.24929,1.93149 -1.15892,0.77267 -2.25343,1.60965 -3.28354,2.51094 -1.03015,0.77267 -2.06028,1.8028 -3.0904,3.0904 -1.03014,1.28772 -1.99588,2.511 -2.89724,3.66984 -0.90137,1.15895 -1.67397,2.18908 -2.31779,3.09039 -0.51507,0.90142 -0.77261,1.3521 -0.7726,1.35205 -0.51507,1.03018 -0.90137,1.73839 -1.1589,2.12464 -0.25753,0.38635 -0.45068,0.70827 -0.57945,0.96575 l -1.93149,-6.76024 c 0.64383,-1.80266 1.60957,-3.66977 2.89724,-5.60133 1.03013,-1.6739 2.31779,-3.41224 3.86299,-5.21504 1.67395,-1.80266 3.66983,-3.541 5.98764,-5.21503 7.33966,-5.15058 16.48206,-5.40811 27.42723,-0.7726 1.28762,0.6439 2.51089,1.09458 3.66984,1.35204 1.15885,0.12884 2.18898,0.25761 3.09039,0.3863 1.03008,0.12884 1.93144,0.12884 2.70409,0 l 1.9315,-0.3863 m -34.18747,24.52999 c -0.25755,0.51511 -0.64385,1.48086 -1.15889,2.89724 -0.38632,1.41648 0.0644,3.28359 1.35204,5.60134 0.25752,0.5151 0.57943,1.03017 0.96575,1.5452 0.38628,0.38633 0.70819,0.70825 0.96575,0.96574 0.38628,0.51511 0.77257,0.9014 1.1589,1.1589 1.4164,-1.15886 2.51091,-2.44652 3.28354,-3.86299 0.77257,-1.41639 1.0301,-3.09035 0.7726,-5.02189 -0.38633,-2.83281 -1.09454,-4.82868 -2.12465,-5.98763 -0.90139,-1.28761 -1.41645,-1.93144 -1.54519,-1.9315 -0.77263,0.64389 -1.48084,1.41648 -2.12465,2.3178 -0.64385,0.90141 -1.15892,1.67401 -1.5452,2.31779" />
        <path
           id="path4786"
           style="font-variant:normal;font-weight:bold;font-stretch:normal;fill:#2e3436;font-family:TF Arluck;-inkscape-font-specification:TF Arluck Bold"
           d="m 581.65185,428.72642 c 0.77257,0.90139 1.67394,2.44658 2.7041,4.63559 1.15886,2.06028 1.67393,3.79862 1.54519,5.21503 -3e-5,1.15892 -0.51509,2.57535 -1.54519,4.24929 -0.9014,1.67398 -1.86714,3.21917 -2.89725,4.63559 -0.25755,0.25754 -0.64385,0.83699 -1.15889,1.73835 -0.51509,0.7726 -1.15892,1.60958 -1.9315,2.51094 -0.64385,0.90137 -1.35207,1.80273 -2.12464,2.70409 -0.77262,0.90137 -1.41645,1.5452 -1.9315,1.9315 -0.77261,0.7726 -1.54521,0.90136 -2.31779,0.3863 -0.25755,-0.12877 -1.03015,-0.64383 -2.31779,-1.5452 -1.28768,-0.90136 -2.44658,-2.06026 -3.4767,-3.47669 -0.90137,-1.28766 -1.80273,-3.09038 -2.70409,-5.40819 -0.90137,-2.31778 -1.35205,-5.15063 -1.35205,-8.49857 l 0,-52.15037 9.46433,-6.76023 0,51.57091 c 0.12875,-0.12874 0.64381,-0.6438 1.5452,-1.54519 0.90134,-1.0301 1.73832,-1.86708 2.51094,-2.51095 1.15887,-0.90133 2.31777,-0.83695 3.47669,0.19315 1.28764,0.9014 2.12462,1.60961 2.51094,2.12465 m -7.53283,19.1218 c 0.38628,-0.12876 0.83696,-0.57944 1.35205,-1.35205 0.64381,-0.90135 1.22326,-1.80271 1.73835,-2.70409 0.51504,-0.90135 0.96572,-1.80271 1.35204,-2.70409 0.38628,-0.90135 0.57943,-1.54518 0.57945,-1.9315 -0.25756,-1.93147 -0.90139,-3.47667 -1.93149,-4.63559 -1.03016,-1.15887 -1.67399,-1.73832 -1.9315,-1.73834 -0.25755,2e-5 -0.64385,0.32194 -1.1589,0.96575 -0.51508,0.51508 -1.09453,1.15891 -1.73834,1.93149 -0.51508,0.77262 -0.96577,1.54522 -1.35205,2.31779 -0.38631,0.77262 -0.57946,1.35207 -0.57945,1.73835 0.25752,2.83287 0.83697,4.95752 1.73835,6.37393 1.03011,1.41644 1.67394,1.99589 1.93149,1.73835" />
        <path
           id="path4788"
           style="font-variant:normal;font-weight:bold;font-stretch:normal;fill:#2e3436;font-family:TF Arluck;-inkscape-font-specification:TF Arluck Bold"
           d="m 642.6358,383.52943 0,47.90108 c -5e-5,2.31782 -0.51512,4.76438 -1.54519,7.33968 -0.90142,2.57534 -2.25347,5.15067 -4.05614,7.72598 -1.03018,1.41644 -2.06031,2.76849 -3.0904,4.05614 -1.03017,1.1589 -1.99592,2.25342 -2.89724,3.28354 -1.41647,1.41644 -2.4466,2.3178 -3.09039,2.7041 -0.64387,0.3863 -1.09455,0.57945 -1.35205,0.57945 -0.5151,0 -1.73838,-0.25754 -3.66984,-0.7726 -1.93153,-0.64383 -4.18493,-1.60958 -6.76023,-2.89724 -2.31782,-1.1589 -5.08629,-2.96162 -8.30543,-5.40819 -3.09041,-2.57532 -5.4082,-5.34379 -6.95338,-8.30543 -0.64385,-1.41641 -1.35206,-3.02599 -2.12465,-4.82874 -0.7726,-1.93147 -1.22329,-4.12049 -1.35204,-6.56708 -0.12878,-2.96159 -10e-6,-5.6013 0.3863,-7.91913 0.38629,-2.44652 1.15888,-5.15061 2.31779,-8.11228 2.44655,-5.79443 5.08625,-9.97934 7.91913,-12.55472 2.83284,-2.57526 4.69995,-3.86293 5.60134,-3.86299 l 0.19315,0 c 1.15887,0.2576 2.70406,1.60964 4.63558,4.05614 2.06023,2.31785 3.34789,5.21509 3.86299,8.69173 0.12874,2.18907 -0.1288,4.18495 -0.77259,5.98763 -0.5151,1.80277 -1.22332,3.41235 -2.12465,4.82874 -0.77263,1.2877 -1.60961,2.38221 -2.51094,3.28354 -0.77263,0.9014 -1.41646,1.54523 -1.9315,1.9315 -1.54522,1.28769 -2.63973,2.06029 -3.28354,2.31779 -0.51509,0.1288 -0.90139,0.1288 -1.1589,0 -0.64385,-0.38627 -1.67398,-1.28763 -3.09039,-2.70409 -1.41645,-1.54516 -2.38219,-2.83282 -2.89724,-3.86299 l 0,2.12464 c -2e-5,2.0603 0.3219,4.31371 0.96575,6.76024 0.64381,2.31782 1.80271,4.76437 3.47669,7.33968 1.41641,2.31781 3.02598,4.2493 4.82874,5.79448 1.8027,1.41645 3.54104,2.57534 5.21503,3.47669 1.67393,0.90138 3.15474,1.54521 4.44244,1.9315 1.41639,0.25754 2.31776,0.45069 2.70409,0.57945 0.2575,-0.12876 0.77256,-0.57944 1.5452,-1.35205 0.77256,-0.77259 1.80269,-2.18901 3.09039,-4.24929 1.15886,-1.93148 1.80269,-3.60544 1.9315,-5.02188 0.25748,-1.41641 0.38625,-2.96161 0.3863,-4.63559 l 0,-41.7203 c -1.03018,7e-5 -2.57537,-0.25746 -4.63559,-0.77259 -1.93154,-0.515 -3.79865,-1.15883 -5.60134,-1.9315 -2.31782,-1.15883 -4.44247,-1.80266 -6.37393,-1.93149 -1.93152,-0.25747 -3.66987,-0.19308 -5.21504,0.19315 -1.54522,0.38636 -2.96164,1.03019 -4.24929,1.93149 -1.15891,0.77267 -2.25342,1.60965 -3.28354,2.51094 -1.03014,0.77267 -2.06027,1.8028 -3.09039,3.0904 -1.03014,1.28772 -1.99589,2.511 -2.89724,3.66984 -0.90138,1.15895 -1.67397,2.18908 -2.3178,3.09039 -0.51507,0.90142 -0.7726,1.3521 -0.7726,1.35205 -0.51507,1.03018 -0.90137,1.73839 -1.15889,2.12464 -0.25754,0.38635 -0.45069,0.70827 -0.57945,0.96575 l -1.9315,-6.76024 c 0.64383,-1.80266 1.60958,-3.66977 2.89725,-5.60133 1.03012,-1.6739 2.31778,-3.41224 3.86299,-5.21504 1.67395,-1.80266 3.66982,-3.541 5.98763,-5.21503 7.33966,-5.15058 16.48206,-5.40811 27.42723,-0.7726 1.28762,0.6439 2.5109,1.09458 3.66984,1.35204 1.15885,0.12884 2.18898,0.25761 3.09039,0.3863 1.03008,0.12884 1.93145,0.12884 2.7041,0 l 1.93149,-0.3863 m -34.18746,24.52999 c -0.25755,0.51511 -0.64385,1.48086 -1.1589,2.89724 -0.38632,1.41648 0.0644,3.28359 1.35205,5.60134 0.25751,0.5151 0.57943,1.03017 0.96575,1.5452 0.38627,0.38633 0.70819,0.70825 0.96574,0.96574 0.38628,0.51511 0.77258,0.9014 1.1589,1.1589 1.41641,-1.15886 2.51092,-2.44652 3.28354,-3.86299 0.77257,-1.41639 1.03011,-3.09035 0.7726,-5.02189 -0.38633,-2.83281 -1.09454,-4.82868 -2.12464,-5.98763 -0.90139,-1.28761 -1.41646,-1.93144 -1.5452,-1.9315 -0.77262,0.64389 -1.48084,1.41648 -2.12465,2.3178 -0.64385,0.90141 -1.15891,1.67401 -1.54519,2.31779" />
        <path
           id="path4790"
           style="font-variant:normal;font-weight:bold;font-stretch:normal;fill:#2e3436;font-family:TF Arluck;-inkscape-font-specification:TF Arluck Bold"
           d="m 724.92354,351.65977 c -0.12884,2.06036 -0.83705,5.08637 -2.12465,9.07802 -1.15896,3.99185 -2.89731,7.91922 -5.21503,11.78212 -1.4165,2.57541 -2.96169,4.76444 -4.63559,6.56709 -1.54526,1.8028 -2.83292,3.21923 -3.86299,4.24928 -0.12882,0.12884 -0.38636,0.32199 -0.7726,0.57945 -0.38635,0.25761 -0.64389,0.45076 -0.7726,0.57945 l 2.51095,-0.57945 0,65.09139 -9.46433,7.91913 -0.3863,-3.0904 c -0.25758,-1.93149 -0.51511,-3.66983 -0.7726,-5.21503 -0.12881,-1.67396 -0.51511,-3.60545 -1.15889,-5.79449 -0.64388,-2.18901 -1.67401,-4.8931 -3.0904,-8.11228 -1.2877,-3.21913 -3.09043,-7.46841 -5.40818,-12.74786 -1.15893,-2.57529 -2.0603,-4.50679 -2.70409,-5.79449 -0.64387,-1.41639 -1.54523,-2.96158 -2.7041,-4.63559 -1.15893,-1.80268 -2.3822,-3.41226 -3.66984,-4.82873 -1.28769,-1.41638 -2.25344,-1.93145 -2.89724,-1.5452 -0.38632,0.25758 -0.96577,0.83703 -1.73835,1.73834 -0.64385,0.90142 -1.41645,1.99593 -2.31779,3.28355 -0.77262,1.2877 -1.54522,2.63975 -2.31779,4.05614 -0.64385,1.41647 -1.09454,2.76851 -1.35205,4.05614 -0.12878,0.64386 -0.25755,1.35208 -0.3863,2.12464 -0.12878,0.64387 -0.25755,1.41646 -0.3863,2.31779 -2e-5,0.77264 -2e-5,1.48085 0,2.12465 -2e-5,1.41646 -2e-5,2.89727 0,4.44244 0.12875,1.54522 0.19313,2.3822 0.19315,2.51094 0.38628,-0.38627 0.96573,-1.09449 1.73835,-2.12464 0.64381,-0.90134 1.41641,-1.86709 2.31779,-2.89725 1.03011,-1.15886 1.73832,-1.73831 2.12464,-1.73834 1.03011,3e-5 2.12462,0.57948 3.28355,1.73834 1.28763,1.03016 2.189,1.86714 2.70409,2.51095 0.6438,0.77262 1.35202,1.9959 2.12464,3.66984 0.90134,1.54522 1.4164,3.21918 1.5452,5.02188 l 0,0.19315 c -3e-5,0.90139 -0.5151,2.18905 -1.5452,3.86299 -1.03016,1.67398 -2.06029,3.41232 -3.09039,5.21504 -0.25756,0.25754 -0.64386,0.83699 -1.1589,1.73835 -0.51509,0.7726 -1.15892,1.67397 -1.93149,2.70409 -0.64386,0.90137 -1.35207,1.80273 -2.12465,2.70409 -0.64385,0.90137 -1.2233,1.5452 -1.73834,1.9315 -0.64385,0.3863 -1.09453,0.57945 -1.35205,0.57945 l -0.7726,0 c -0.90138,-0.25754 -2.18904,-1.41643 -3.86299,-3.47669 -1.5452,-2.18903 -2.83287,-4.82873 -3.86299,-7.91913 -1.9315,-5.92324 -2.89725,-11.20265 -2.89724,-15.83826 0.12876,-4.76433 0.64382,-8.82046 1.5452,-12.16842 0.90135,-3.47665 1.93148,-6.24512 3.09039,-8.30543 1.28765,-2.18898 2.18901,-3.66979 2.70409,-4.44244 1.67395,-2.31774 3.28353,-4.31362 4.82874,-5.98763 1.54517,-1.67391 2.83284,-2.76842 3.86299,-3.28355 2.9616,-1.15883 5.60131,-2.25334 7.91913,-3.28354 2.31776,-1.15883 4.18487,-2.12458 5.60134,-2.89724 -3.09043,-1.15883 -6.56712,-1.73828 -10.43008,-1.73835 -3.73424,-0.12869 -7.01778,0.57952 -9.85062,2.12465 -2.18904,1.15896 -4.12054,2.51101 -5.79449,4.05614 -1.67397,1.41649 -3.0904,2.83292 -4.24929,4.24929 -1.1589,1.41648 -2.06026,2.70415 -2.70409,3.86299 -0.64384,1.03018 -1.03013,1.67401 -1.1589,1.93149 l -1.54519,-7.33968 c 1.03013,-1.54513 2.83285,-3.79854 5.40818,-6.76023 2.57532,-3.09032 5.85886,-5.73003 9.85063,-7.91913 2.31777,-1.41635 5.15063,-2.25334 8.49858,-2.51094 3.47666,-0.38623 7.01773,-0.25746 10.62322,0.38629 2.18899,0.38638 4.24925,0.96583 6.18078,1.73835 2.06022,0.77267 3.54103,1.35212 4.44244,1.73835 2.44651,-1.93142 4.44239,-3.66977 5.98764,-5.21504 1.54514,-1.67388 3.09033,-3.92729 4.63559,-6.76023 1.80266,-3.09031 3.02594,-5.92316 3.66984,-8.49858 0.64377,-2.704 1.09445,-4.50673 1.35204,-5.40819 l 9.46433,-5.60133 m -50.21887,81.31594 c -0.25756,2e-5 -0.70824,0.32194 -1.35205,0.96575 -0.51509,0.51508 -1.03015,1.15891 -1.5452,1.93149 -0.51508,0.77262 -0.96576,1.54522 -1.35204,2.31779 -0.38632,0.77262 -0.57947,1.35207 -0.57945,1.73835 0.25751,2.83287 0.83696,4.95752 1.73834,6.37393 1.03012,1.28768 1.67395,1.86712 1.9315,1.73835 0.12875,-0.12876 0.45066,-0.57944 0.96575,-1.35205 0.64381,-0.90135 1.22325,-1.80271 1.73834,-2.70409 0.64381,-1.03012 1.15888,-1.99586 1.5452,-2.89724 0.51504,-1.03012 0.77257,-1.67395 0.7726,-1.9315 -0.25756,-1.93147 -0.90139,-3.41229 -1.9315,-4.44244 -1.03015,-1.15887 -1.67398,-1.73832 -1.93149,-1.73834 m 25.88203,-40.9477 c -0.38635,7e-5 -0.70826,7e-5 -0.96575,0 -0.25758,-0.1287 -0.51511,-0.19308 -0.77259,-0.19315 -0.77265,0.38637 -1.93154,1.0302 -3.4767,1.9315 -1.54523,0.77266 -3.15481,1.54526 -4.82873,2.31779 -1.674,0.77266 -3.2192,1.54526 -4.63559,2.3178 -1.41646,0.64389 -2.38221,1.09457 -2.89724,1.35204 0.6438,0.25759 1.48078,0.96581 2.51094,2.12465 1.0301,1.03018 2.06023,2.25346 3.09039,3.66984 1.15886,1.41648 2.25337,3.02605 3.28354,4.82874 1.15886,1.674 2.12461,3.34796 2.89725,5.02188 1.54515,3.34797 2.70404,5.98767 3.47669,7.91913 0.90131,1.80276 1.67391,3.54111 2.31779,5.21504 l 0,-36.50526" />
      </g>
    </g>
  </g>
</svg>
