<?xml version="1.0" encoding="UTF-8" standalone="no"?>
<!-- Created with Inkscape (http://www.inkscape.org/) -->

<svg
   xmlns:dc="http://purl.org/dc/elements/1.1/"
   xmlns:cc="http://creativecommons.org/ns#"
   xmlns:rdf="http://www.w3.org/1999/02/22-rdf-syntax-ns#"
   xmlns:svg="http://www.w3.org/2000/svg"
   xmlns="http://www.w3.org/2000/svg"
   xmlns:sodipodi="http://sodipodi.sourceforge.net/DTD/sodipodi-0.dtd"
   xmlns:inkscape="http://www.inkscape.org/namespaces/inkscape"
   width="36"
   height="36"
   id="svg2"
   version="1.1"
   inkscape:version="0.48.1 r9760"
   sodipodi:docname="tos-icon-36px.svg"
   inkscape:export-filename="/home/gumara/เดสก์ท็อป/tos-icon-36px.png"
   inkscape:export-xdpi="300.01077"
   inkscape:export-ydpi="300.01077">
  <defs
     id="defs4">
    <inkscape:perspective
       id="perspective2755"
       inkscape:persp3d-origin="372.04724 : 350.78739 : 1"
       inkscape:vp_z="744.09448 : 526.18109 : 1"
       inkscape:vp_y="0 : 1000 : 0"
       inkscape:vp_x="0 : 526.18109 : 1"
       sodipodi:type="inkscape:persp3d" />
    <filter
       inkscape:collect="always"
       id="filter3810"
       color-interpolation-filters="sRGB">
      <feGaussianBlur
         inkscape:collect="always"
         stdDeviation="0.76796267"
         id="feGaussianBlur3812" />
    </filter>
  </defs>
  <sodipodi:namedview
     id="base"
     pagecolor="#ffffff"
     bordercolor="#666666"
     borderopacity="1.0"
     inkscape:pageopacity="0"
     inkscape:pageshadow="2"
     inkscape:zoom="7.7978165"
     inkscape:cx="41.859505"
     inkscape:cy="16.608477"
     inkscape:document-units="px"
     inkscape:current-layer="layer1"
     showgrid="false"
     borderlayer="true"
     inkscape:showpageshadow="false"
     inkscape:window-width="1366"
     inkscape:window-height="744"
     inkscape:window-x="0"
     inkscape:window-y="24"
     inkscape:window-maximized="1" />
  <metadata
     id="metadata7">
    <rdf:RDF>
      <cc:Work
         rdf:about="">
        <dc:format>image/svg+xml</dc:format>
        <dc:type
           rdf:resource="http://purl.org/dc/dcmitype/StillImage" />
        <dc:title></dc:title>
      </cc:Work>
    </rdf:RDF>
  </metadata>
  <g
     inkscape:label="Layer 1"
     inkscape:groupmode="layer"
     id="layer1"
     transform="translate(0,-1016.3622)">
    <g
       id="g3814"
       transform="matrix(0.49581022,0,0,0.49581022,-0.2372916,534.867)">
      <path
         transform="matrix(0.72208115,0,0,0.72208115,1.0603629,273.73761)"
         inkscape:connector-curvature="0"
         inkscape:export-ydpi="90"
         inkscape:export-xdpi="90"
         inkscape:export-filename="C:\Users\Nion\Desktop\thaiopensource-tshirt-design12.png"
         id="path2696-0"
         d="m 48.4645,984.95517 c -8.820665,0.122 -17.68533,2.1881 -25.392063,6.5068 -6.722021,-0.9622 -13.2115962,-3.0052 -19.2570682,-6.1505 1.263329,6.8014 2.121435,13.87 5.205451,20.09363 -5.747775,10.8865 -1.004836,25.2577 9.0475682,31.837 17.060209,12.8765 42.094671,13.0029 60.141541,2.0604 9.04988,-5.6651 16.09776,-16.4056 13.86571,-27.468 -0.3485,-2.2792 -1.28756,-4.5124 -2.12246,-6.5688 3.17841,-6.08833 3.84801,-13.03183 5.17447,-19.69083 -6.31772,2.6112 -12.64845,5.3596 -19.52044,5.7322 -8.23643,-4.5407 -17.73767,-6.5407 -27.142709,-6.3519 z"
         style="fill:#ffffff;fill-opacity:1;fill-rule:nonzero;stroke:#000000;stroke-opacity:1;filter:url(#filter3810)" />
      <g
         transform="matrix(0.72208115,0,0,0.72208115,-31.250314,257.18337)"
         id="g3029">
        <path
           style="fill:#ffffff;fill-opacity:1;fill-rule:nonzero;stroke:none"
           d="m 93.211101,1007.8809 c -8.820665,0.122 -17.68533,2.1881 -25.392063,6.5068 -6.722021,-0.9622 -13.211596,-3.0052 -19.257068,-6.1505 1.263329,6.8014 2.121435,13.87 5.205451,20.0936 -5.747775,10.8865 -1.004836,25.2577 9.047568,31.837 17.060209,12.8765 42.094671,13.0029 60.141541,2.0604 9.04988,-5.6651 16.09776,-16.4056 13.86571,-27.468 -0.3485,-2.2792 -1.28756,-4.5124 -2.12246,-6.5688 3.17841,-6.0883 3.84801,-13.0318 5.17447,-19.6908 -6.31772,2.6112 -12.64845,5.3596 -19.52044,5.7322 -8.23643,-4.5407 -17.73767,-6.5407 -27.142709,-6.3519 z"
           id="path2696"
           inkscape:export-filename="C:\Users\Nion\Desktop\thaiopensource-tshirt-design12.png"
           inkscape:export-xdpi="90"
           inkscape:export-ydpi="90"
           inkscape:connector-curvature="0" />
        <g
           id="g2735"
           transform="matrix(0.82376555,0,0,-0.82376555,134.66747,1014.9026)"
           style="fill:#784421"
           inkscape:export-filename="C:\Users\Nion\Desktop\thaiopensource-tshirt-design04.png"
           inkscape:export-xdpi="90"
           inkscape:export-ydpi="90">
          <path
             d="m 0,0 c -5.261,-2.179 -11.784,-3.541 -18.045,-4.395 -8.316,5.033 -19.171,8.086 -31.058,8.086 -11.887,0 -22.741,-3.053 -31.059,-8.086 -6.259,0.854 -12.781,2.216 -18.044,4.395 0,0 2.011,-11.898 5.636,-16.163 -2.503,-4.016 -3.899,-8.444 -3.899,-13.1 0,-18.201 21.206,-32.955 47.366,-32.955 26.16,0 47.366,14.754 47.366,32.955 0,4.656 -1.396,9.084 -3.9,13.099 C -2.01,-11.899 0,0 0,0"
             style="fill:#784421;fill-opacity:1;fill-rule:nonzero;stroke:none"
             id="path2737"
             inkscape:connector-curvature="0" />
        </g>
      </g>
    </g>
    <rect
       style="opacity:0.2;color:#000000;fill:#204a87;fill-opacity:1;fill-rule:nonzero;stroke:none;stroke-width:10.89999962;marker:none;visibility:visible;display:inline;overflow:visible;enable-background:accumulate"
       id="rect3861"
       x="0.55242717"
       y="-17.0483"
       transform="translate(0,1004.3622)"
       width="0"
       height="0"
       rx="48" />
  </g>
</svg>
