<?xml version="1.0" encoding="UTF-8" standalone="no"?>
<!-- Created with Inkscape (http://www.inkscape.org/) -->

<svg
   xmlns:dc="http://purl.org/dc/elements/1.1/"
   xmlns:cc="http://creativecommons.org/ns#"
   xmlns:rdf="http://www.w3.org/1999/02/22-rdf-syntax-ns#"
   xmlns:svg="http://www.w3.org/2000/svg"
   xmlns="http://www.w3.org/2000/svg"
   xmlns:xlink="http://www.w3.org/1999/xlink"
   xmlns:sodipodi="http://sodipodi.sourceforge.net/DTD/sodipodi-0.dtd"
   xmlns:inkscape="http://www.inkscape.org/namespaces/inkscape"
   width="797.47546"
   height="797.47546"
   id="svg125"
   sodipodi:version="0.32"
   inkscape:version="0.46+devel"
   version="1.0"
   sodipodi:docname="button-design05.svg"
   inkscape:output_extension="org.inkscape.output.svg.inkscape"
   inkscape:export-filename="/media/SONY16GB/TOSS-TShirt/button-design05.png"
   inkscape:export-xdpi="90"
   inkscape:export-ydpi="90">
  <defs
     id="defs127">
    <inkscape:perspective
       sodipodi:type="inkscape:persp3d"
       inkscape:vp_x="0 : 526.18109 : 1"
       inkscape:vp_y="0 : 1000 : 0"
       inkscape:vp_z="744.09448 : 526.18109 : 1"
       inkscape:persp3d-origin="372.04724 : 350.78739 : 1"
       id="perspective133" />
    <inkscape:perspective
       id="perspective143"
       inkscape:persp3d-origin="0.5 : 0.33333333 : 1"
       inkscape:vp_z="1 : 0.5 : 1"
       inkscape:vp_y="0 : 1000 : 0"
       inkscape:vp_x="0 : 0.5 : 1"
       sodipodi:type="inkscape:persp3d" />
    <inkscape:perspective
       id="perspective402"
       inkscape:persp3d-origin="0.5 : 0.33333333 : 1"
       inkscape:vp_z="1 : 0.5 : 1"
       inkscape:vp_y="0 : 1000 : 0"
       inkscape:vp_x="0 : 0.5 : 1"
       sodipodi:type="inkscape:persp3d" />
    <inkscape:perspective
       id="perspective1731"
       inkscape:persp3d-origin="0.5 : 0.33333333 : 1"
       inkscape:vp_z="1 : 0.5 : 1"
       inkscape:vp_y="0 : 1000 : 0"
       inkscape:vp_x="0 : 0.5 : 1"
       sodipodi:type="inkscape:persp3d" />
    <path
       style="fill:#1a1a1a;fill-opacity:1;stroke:#007fa6;stroke-width:0.93189794;stroke-opacity:1"
       d="M 367.21875,46.15625 C 237.8708,45.921464 113.34476,125.54936 58.35052,241.99623 1.1981665,360.7896 19.706104,512.84711 106.1875,612.59375 c 73.8487,87.84357 194.1089,136.00809 308.65625,119.25 107.70734,-13.95314 207.76783,-81.66503 257.96875,-178.3125 45.83007,-84.8784 54.56764,-190.17887 20.37488,-280.72027 C 658.87832,177.99945 581.23592,99.219126 485.52713,66.377735 447.78268,52.752183 407.50512,45.634871 367.21875,46.15625 z"
       id="path1653-7" />
  </defs>
  <sodipodi:namedview
     id="base"
     pagecolor="#ffffff"
     bordercolor="#666666"
     borderopacity="1.0"
     inkscape:pageopacity="0.0"
     inkscape:pageshadow="2"
     inkscape:zoom="0.5"
     inkscape:cx="289.25009"
     inkscape:cy="387.42445"
     inkscape:document-units="px"
     inkscape:current-layer="layer1"
     showgrid="false"
     units="in"
     showguides="true"
     inkscape:guide-bbox="true"
     inkscape:window-width="1280"
     inkscape:window-height="729"
     inkscape:window-x="0"
     inkscape:window-y="25" />
  <metadata
     id="metadata130">
    <rdf:RDF>
      <cc:Work
         rdf:about="">
        <dc:format>image/svg+xml</dc:format>
        <dc:type
           rdf:resource="http://purl.org/dc/dcmitype/StillImage" />
        <dc:title></dc:title>
      </cc:Work>
    </rdf:RDF>
  </metadata>
  <g
     inkscape:label="Layer 1"
     inkscape:groupmode="layer"
     id="layer1"
     transform="translate(29.192271,8.2890769)">
    <path
       style="fill:#b3b3b3;fill-opacity:1;stroke:none"
       d="M 105.01055,613.60473 C 197.35555,722.83975 360.03417,766.41847 493.8296,714.75345 613.44967,668.67634 704.59664,552.98399 716.54616,424.94068 729.49519,295.68718 663.43903,160.7092 551.58745,93.429521 457.36013,36.573724 336.55191,27.997526 235.18011,70.990172 130.89994,115.03035 49.948639,212.9304 30.492467,324.70894 12.303403,425.31096 38.526875,534.88473 105.01055,613.60473 z"
       id="path2106" />
    <path
       style="fill:#808080;fill-opacity:1;stroke:none"
       d="M 101.91328,198.291 C 181.05423,87.251456 332.10381,33.454879 463.08206,72.148068 587.3406,108.66953 686.41972,223.08071 700.63914,351.51861 714.33833,471.56058 657.4142,597.46425 557.03533,665.17662 457.95769,731.67833 323.26137,739.59233 217.37555,684.2719 111.75882,628.83633 39.177118,513.12738 40.693413,393.5516 40.927264,324.43387 60.189659,254.17793 101.91328,198.291 z"
       id="path1653" />
    <path
       sodipodi:type="arc"
       style="fill:#ffffff;fill-opacity:1;stroke:none;stroke-opacity:1"
       id="path6740"
       sodipodi:cx="-203.09052"
       sodipodi:cy="208.38852"
       sodipodi:rx="427.37308"
       sodipodi:ry="427.37308"
       d="m 224.28256,208.38852 c 0,236.03163 -191.341442,427.37308 -427.37308,427.37308 -236.03163,0 -427.37307,-191.34145 -427.37307,-427.37308 0,-236.031634 191.34144,-427.37308 427.37307,-427.37308 236.031638,0 427.37308,191.341446 427.37308,427.37308 z"
       transform="matrix(0.9314582,0.02862463,-0.02862463,0.9314582,564.68082,202.15684)" />
    <path
       style="fill:#ffffff;fill-opacity:1;fill-rule:nonzero;stroke:none"
       d="m 363.27719,216.68817 c -54.90549,0.75967 -110.08486,13.62057 -158.05653,40.50259 -41.84218,-5.98951 -82.23748,-18.70637 -119.868376,-38.28458 7.863766,42.33613 13.205178,86.33595 32.402066,125.07584 -35.777835,67.76406 -6.25473,157.21985 56.31789,198.17338 106.19371,80.15183 262.02431,80.93879 374.35964,12.82582 56.33224,-35.26346 100.20282,-102.11941 86.3091,-170.97878 -2.16931,-14.18696 -8.01462,-28.08812 -13.21157,-40.88834 19.78446,-37.89751 23.95248,-81.11823 32.20921,-122.56854 -39.32553,16.2539 -78.73204,33.36182 -121.50777,35.68085 -51.26881,-28.2638 -110.41065,-40.71296 -168.95366,-39.53824 z"
       id="path2696"
       inkscape:export-filename="C:\Users\Nion\Desktop\thaiopensource-tshirt-design12.png"
       inkscape:export-xdpi="90"
       inkscape:export-ydpi="90" />
    <g
       id="g2735"
       transform="matrix(5.1276465,0,0,-5.1276465,621.32827,260.39579)"
       style="fill:#552200"
       inkscape:export-filename="C:\Users\Nion\Desktop\thaiopensource-tshirt-design04.png"
       inkscape:export-xdpi="90"
       inkscape:export-ydpi="90">
      <path
         d="m 0,0 c -5.261,-2.179 -11.784,-3.541 -18.045,-4.395 -8.316,5.033 -19.171,8.086 -31.058,8.086 -11.887,0 -22.741,-3.053 -31.059,-8.086 -6.259,0.854 -12.781,2.216 -18.044,4.395 0,0 2.011,-11.898 5.636,-16.163 -2.503,-4.016 -3.899,-8.444 -3.899,-13.1 0,-18.201 21.206,-32.955 47.366,-32.955 26.16,0 47.366,14.754 47.366,32.955 0,4.656 -1.396,9.084 -3.9,13.099 C -2.01,-11.899 0,0 0,0"
         style="fill:#552200;fill-opacity:1;fill-rule:nonzero;stroke:none"
         id="path2737" />
    </g>
    <text
       xml:space="preserve"
       style="font-size:40px;font-style:normal;font-weight:normal;line-height:100%;fill:#000000;fill-opacity:1;stroke:none;font-family:Bitstream Vera Sans"
       id="text1758"
       sodipodi:linespacing="100%"
       transform="translate(2.4172483,0)"><textPath
         xlink:href="#path1653"
         id="textPath1843"
         style="font-size:48px;font-style:normal;font-variant:normal;font-weight:normal;font-stretch:normal;text-align:start;line-height:100%;writing-mode:lr-tb;text-anchor:start;font-family:Bitstream Charter;-inkscape-font-specification:Bitstream Charter;fill:#000000">feel freedom with open source</textPath></text>
    <text
       xml:space="preserve"
       style="font-size:40px;font-style:normal;font-weight:normal;line-height:125%;fill:#000000;fill-opacity:1;stroke:none;font-family:Bitstream Vera Sans"
       id="text2108"
       sodipodi:linespacing="125%"
       transform="translate(-8.4083021,0)"><textPath
         xlink:href="#path2106"
         id="textPath2112"
         style="font-size:56px;font-style:normal;font-variant:normal;font-weight:normal;font-stretch:normal;text-align:start;line-height:125%;writing-mode:lr-tb;text-anchor:start;font-family:Bitstream Charter;-inkscape-font-specification:Bitstream Charter;fill:#000000">www.thaiopensource.org</textPath></text>
    <flowRoot
       xml:space="preserve"
       id="flowRoot2143"
       style="fill:black;fill-opacity:1;stroke:none;font-family:Bitstream Vera Sans;font-style:normal;font-weight:normal;font-size:40px"><flowRegion
         id="flowRegion2145"><rect
           id="rect2147"
           width="21.57037"
           height="61.39259"
           x="648.77039"
           y="590.06805" /></flowRegion><flowPara
         id="flowPara2149" /></flowRoot>  </g>
</svg>
