<?xml version="1.0" encoding="UTF-8" standalone="no"?>
<!-- Created with Inkscape (http://www.inkscape.org/) -->
<svg
   xmlns:dc="http://purl.org/dc/elements/1.1/"
   xmlns:cc="http://creativecommons.org/ns#"
   xmlns:rdf="http://www.w3.org/1999/02/22-rdf-syntax-ns#"
   xmlns:svg="http://www.w3.org/2000/svg"
   xmlns="http://www.w3.org/2000/svg"
   xmlns:sodipodi="http://sodipodi.sourceforge.net/DTD/sodipodi-0.dtd"
   xmlns:inkscape="http://www.inkscape.org/namespaces/inkscape"
   width="2125.9841"
   height="5669.291"
   id="svg2"
   sodipodi:version="0.32"
   inkscape:version="0.46"
   version="1.0"
   sodipodi:docname="rollup.svg"
   inkscape:output_extension="org.inkscape.output.svg.inkscape"
   inkscape:export-filename="/tmp/rollup.png"
   inkscape:export-xdpi="7.1628461"
   inkscape:export-ydpi="7.1628461">
  <defs
     id="defs4">
    <inkscape:perspective
       sodipodi:type="inkscape:persp3d"
       inkscape:vp_x="0 : 526.18109 : 1"
       inkscape:vp_y="0 : 1000 : 0"
       inkscape:vp_z="744.09448 : 526.18109 : 1"
       inkscape:persp3d-origin="372.04724 : 350.78739 : 1"
       id="perspective10" />
  </defs>
  <sodipodi:namedview
     id="base"
     pagecolor="#ffffff"
     bordercolor="#666666"
     borderopacity="1.0"
     gridtolerance="10000"
     guidetolerance="10"
     objecttolerance="10"
     inkscape:pageopacity="0.0"
     inkscape:pageshadow="2"
     inkscape:zoom="0.061871843"
     inkscape:cx="6958.3891"
     inkscape:cy="2903.2153"
     inkscape:document-units="px"
     inkscape:current-layer="layer1"
     showgrid="false"
     units="cm"
     inkscape:window-width="1279"
     inkscape:window-height="940"
     inkscape:window-x="1"
     inkscape:window-y="50" />
  <metadata
     id="metadata7">
    <rdf:RDF>
      <cc:Work
         rdf:about="">
        <dc:format>image/svg+xml</dc:format>
        <dc:type
           rdf:resource="http://purl.org/dc/dcmitype/StillImage" />
      </cc:Work>
    </rdf:RDF>
  </metadata>
  <g
     inkscape:label="Layer 1"
     inkscape:groupmode="layer"
     id="layer1">
    <rect
       style="opacity:1;fill:none;fill-opacity:1;fill-rule:evenodd;stroke:#000000;stroke-width:4.69999981;stroke-linecap:round;stroke-linejoin:round;stroke-miterlimit:4;stroke-dasharray:none;stroke-dashoffset:0;stroke-opacity:1"
       id="rect2383"
       width="2181.9294"
       height="5673.0166"
       x="2829.5518"
       y="23.865343" />
    <rect
       style="opacity:1;fill:none;fill-opacity:1;fill-rule:evenodd;stroke:#000000;stroke-width:4.69999981;stroke-linecap:round;stroke-linejoin:round;stroke-miterlimit:4;stroke-dasharray:none;stroke-dashoffset:0;stroke-opacity:1"
       id="rect3155"
       width="2181.9294"
       height="5673.0166"
       x="5470.9863"
       y="52.84293" />
    <rect
       style="opacity:1;fill:none;fill-opacity:1;fill-rule:evenodd;stroke:#000000;stroke-width:4.69999981;stroke-linecap:round;stroke-linejoin:round;stroke-miterlimit:4;stroke-dasharray:none;stroke-dashoffset:0;stroke-opacity:1"
       id="rect3157"
       width="2181.9294"
       height="5673.0166"
       x="8040.8145"
       y="36.680473" />
    <rect
       style="opacity:1;fill:none;fill-opacity:1;fill-rule:evenodd;stroke:#000000;stroke-width:4.69999981;stroke-linecap:round;stroke-linejoin:round;stroke-miterlimit:4;stroke-dasharray:none;stroke-dashoffset:0;stroke-opacity:1"
       id="rect3159"
       width="2181.9294"
       height="5673.0166"
       x="10562.155"
       y="36.680447" />
    <text
       xml:space="preserve"
       style="font-size:545.02484131px;font-style:normal;font-weight:normal;fill:#000000;fill-opacity:1;stroke:none;stroke-width:1px;stroke-linecap:butt;stroke-linejoin:miter;stroke-opacity:1;font-family:Bitstream Vera Sans"
       x="2956.9988"
       y="6509.4604"
       id="text3181"><tspan
         sodipodi:role="line"
         id="tspan3183"
         x="2956.9988"
         y="6509.4604">chantra</tspan></text>
    <text
       xml:space="preserve"
       style="font-size:545.02484131px;font-style:normal;font-weight:normal;fill:#000000;fill-opacity:1;stroke:none;stroke-width:1px;stroke-linecap:butt;stroke-linejoin:miter;stroke-opacity:1;font-family:Bitstream Vera Sans"
       x="5603.0112"
       y="6454.3257"
       id="text3185"><tspan
         sodipodi:role="line"
         id="tspan3187"
         x="5603.0112"
         y="6454.3257">TOS</tspan></text>
    <text
       xml:space="preserve"
       style="font-size:545.02484131px;font-style:normal;font-weight:normal;fill:#000000;fill-opacity:1;stroke:none;stroke-width:1px;stroke-linecap:butt;stroke-linejoin:miter;stroke-opacity:1;font-family:Bitstream Vera Sans"
       x="8342.0283"
       y="6482.0127"
       id="text3189"><tspan
         sodipodi:role="line"
         id="tspan3191"
         x="8342.0283"
         y="6482.0127">OO.o</tspan></text>
    <text
       xml:space="preserve"
       style="font-size:545.02484131px;font-style:normal;font-weight:normal;fill:#000000;fill-opacity:1;stroke:none;stroke-width:1px;stroke-linecap:butt;stroke-linejoin:miter;stroke-opacity:1;font-family:Bitstream Vera Sans"
       x="10814.882"
       y="6417.3628"
       id="text3193"><tspan
         sodipodi:role="line"
         id="tspan3195"
         x="10814.882"
         y="6417.3628">OSS dep</tspan></text>
    <flowRoot
       xml:space="preserve"
       id="flowRoot3197"
       style="font-size:12px;font-style:normal;font-weight:normal;fill:#000000;fill-opacity:1;stroke:none;stroke-width:1px;stroke-linecap:butt;stroke-linejoin:miter;stroke-opacity:1;font-family:Bitstream Vera Sans"
       transform="matrix(11.731183,0,0,11.731183,-94142.474,-95831.62)"><flowRegion
         id="flowRegion3199"><rect
           id="rect3201"
           width="3297.1379"
           height="1794.0309"
           x="8646.9062"
           y="8723.9922" /></flowRegion><flowPara
         id="flowPara3203">http://www.flickr.com/photos/gumara/2570118750/</flowPara><flowPara
         id="flowPara3205">http://www.flickr.com/photos/gumara/2569282777/</flowPara></flowRoot>    <path
       style="opacity:1;fill:#000000;fill-opacity:1;fill-rule:evenodd;stroke:none;stroke-width:4.69999981;stroke-linecap:round;stroke-linejoin:round;stroke-miterlimit:4;stroke-dasharray:none;stroke-dashoffset:0;stroke-opacity:1"
       id="path3170"
       d="M 3022.487,1810.8416 C 3093.1422,1846.6798 3170.3862,1866.301 3247.9227,1880.6363 C 3276.2929,1885.8815 3304.7135,1891.2075 3333.4138,1894.1532 C 3362.3928,1897.1275 3391.6084,1896.9645 3420.7058,1898.3701 C 3552.8226,1895.9369 3678.0251,1855.6971 3800.8234,1811.0164 L 3674.4036,1909.5089 C 3553.5132,1949.7006 3429.9869,1984.5655 3301.3244,1984.119 C 3271.9131,1982.3442 3242.3943,1981.8701 3213.0904,1978.7945 C 3101.1948,1967.0505 2991.1915,1939.6668 2884.608,1904.3911 L 3022.487,1810.8416 z" />
    <path
       style="opacity:1;fill:#000000;fill-opacity:1;fill-rule:evenodd;stroke:none;stroke-width:4.69999981;stroke-linecap:round;stroke-linejoin:round;stroke-miterlimit:4;stroke-dasharray:none;stroke-dashoffset:0;stroke-opacity:1"
       id="path3172"
       d="M 3810.9048,1790.1393 C 3794.2762,1830.0232 3784.2818,1872.3153 3776.1635,1914.6361 C 3766.5293,1971.3946 3765.2579,2029.066 3764.0759,2086.4841 C 3765.1478,2152.4547 3760.6476,2218.2143 3755.8538,2283.9594 C 3749.0786,2398.2058 3748.599,2512.5789 3750.0065,2626.9695 C 3752.4524,2731.628 3748.7209,2836.2654 3748.5741,2940.9261 C 3747.1783,3052.1662 3753.416,3163.1651 3758.5405,3274.2212 C 3763.2234,3395.855 3786.6992,3515.5391 3797.3902,3636.5447 C 3803.7201,3710.9218 3807.443,3785.5018 3810.4931,3860.0775 C 3813.5407,3911.5292 3809.9189,3962.3921 3803.5902,4013.4054 C 3797.7981,4062.4186 3789.2486,4111.1031 3780.6996,4159.7046 C 3773.1994,4195.156 3769.8409,4231.233 3764.168,4266.9782 C 3758.1953,4308.4555 3748.3908,4349.2135 3739.3999,4390.1001 C 3729.1103,4443.0172 3721.903,4496.492 3710.8991,4549.2651 C 3698.2081,4617.5345 3683.9844,4685.2697 3665.2764,4752.145 C 3648.397,4804.8217 3632.2402,4857.7443 3622.5603,4912.266 C 3616.5778,4941.765 3607.9451,4970.8693 3597.5002,4999.1056 C 3589.1056,5019.5016 3582.808,5040.5797 3578.9276,5062.2921 C 3577.9491,5067.7667 3576.1211,5073.2287 3576.3974,5078.7832 C 3576.6852,5084.5668 3579.1904,5090.0229 3580.5869,5095.6427 C 3584.4066,5101.4061 3587.3645,5107.8448 3592.0462,5112.9329 C 3627.7317,5151.7155 3685.056,5164.8797 3734.1267,5176.4741 C 3775.8694,5187.3965 3819.2273,5183.8464 3861.5785,5188.7415 C 3881.2528,5193.3553 3909.1364,5214.0502 3892.2433,5237.6336 C 3887.1581,5244.7327 3878.7768,5248.7544 3872.0435,5254.3148 C 3794.6423,5299.7537 3766.0978,5316.9569 3656.6775,5373.5967 C 3639.4743,5382.5017 3620.8224,5388.2779 3603.0128,5395.898 C 3539.0771,5423.254 3475.4967,5451.2355 3411.2529,5477.8868 C 3322.3047,5514.5058 3231.8249,5547.0613 3141.7339,5580.653 C 3108.612,5594.5429 3074.342,5602.0356 3038.6842,5604.1898 C 3012.8038,5610.0355 2986.6006,5612.9502 2960.1651,5614.4633 C 2927.2943,5617.7361 2913.9342,5607.0677 2902.5768,5577.1871 C 2896.1235,5547.6334 2896.5554,5517.0293 2896.2543,5486.9107 C 2894.3188,5457.1922 2897.4147,5428.7947 2904.6133,5400.0188 C 2906.6936,5391.4024 2908.4089,5382.6896 2910.8542,5374.1697 C 2924.6924,5325.9553 2942.4221,5278.6816 2957.9809,5231.0156 C 2983.1497,5153.9084 2975.4261,5178.2102 2997.6311,5100.5993 C 3030.9242,4977.8785 3041.7517,4850.9385 3046.8954,4724.368 C 3048.9846,4656.7143 3048.4588,4589.0287 3048.1058,4521.357 C 3046.7034,4428.1118 3059.5625,4335.4199 3065.7209,4242.4424 C 3067.7171,4218.1519 3069.2733,4193.8212 3071.7093,4169.5708 C 3072.934,4157.379 3089.3617,4021.0511 3090.4999,4010.842 C 3100.1338,3924.4309 3106.6838,3838.0252 3112.2415,3751.2731 C 3120.2123,3609.1937 3120.5271,3466.9498 3118.8822,3324.7168 C 3116.3568,3247.5784 3117.0699,3170.4524 3117.5177,3093.3016 C 3118.3993,3030.9003 3115.4015,2968.5395 3115.0236,2906.1538 C 3115.3821,2857.4059 3115.3255,2808.6622 3115.087,2759.9146 C 3115.0159,2711.0447 3114.6906,2662.1862 3117.9302,2613.4076 L 3265.7203,2539.6606 C 3260.7847,2588.0708 3261.5554,2636.4123 3262.0513,2685.0329 C 3261.8128,2733.7525 3261.7478,2782.4684 3262.1364,2831.1883 C 3261.8096,2894.3558 3258.9564,2957.5045 3259.9831,3020.6856 C 3260.6655,3098.3501 3261.8802,3176.0016 3258.6116,3253.6459 C 3254.9572,3397.6113 3251.1835,3541.6419 3243.4128,3685.441 C 3238.3989,3772.0811 3232.4918,3858.4402 3223.8055,3944.8029 C 3223.5923,3946.9226 3207.4038,4097.1279 3206.9776,4101.9338 C 3204.8545,4125.8749 3203.6437,4149.8882 3201.9767,4173.8654 C 3198.9888,4265.031 3192.3379,4356.1136 3193.2629,4447.3296 C 3193.4016,4516.0304 3193.5001,4584.822 3188.3223,4653.3728 C 3178.2116,4781.4257 3164.9257,4909.9242 3135.4137,5035.1351 C 3107.8821,5132.6805 3076.0607,5229.3375 3053.8401,5328.2039 C 3048.0886,5355.6116 3043.8864,5382.7336 3045.4557,5410.8637 C 3045.2476,5439.1054 3044.4571,5467.7178 3049.9002,5495.5623 C 3058.5621,5521.2749 3070.5911,5516.1895 3095.0521,5514.9543 C 3121.3391,5512.6196 3147.2092,5507.7119 3173.3953,5504.6012 C 3206.8533,5501.0348 3239.0305,5491.9463 3270.5177,5480.1139 C 3357.6307,5449.9714 3444.4732,5419.0482 3529.8879,5384.3035 C 3595.1257,5356.8535 3659.8783,5328.5132 3724.576,5299.8194 C 3742.9864,5291.6542 3794.992,5262.1321 3779.8413,5275.4011 C 3752.8525,5299.0381 3718.4056,5312.4823 3688.1334,5331.736 C 3678.265,5338.0125 3708.4493,5320.1434 3718.6073,5314.3471 C 3725.1725,5311.0451 3731.5671,5307.3794 3738.3029,5304.441 C 3741.6486,5302.9815 3746.0155,5303.5989 3748.7606,5301.1931 C 3755.6089,5295.1915 3726.9508,5282.8654 3725.3228,5285.5534 C 3683.3072,5281.5332 3640.6804,5281.2115 3599.863,5268.8863 C 3547.7429,5254.0227 3488.0734,5237.4721 3449.6988,5196.3997 C 3443.9204,5190.2151 3440.2036,5182.3855 3435.456,5175.3784 C 3432.5646,5167.6802 3428.0425,5160.4099 3426.7819,5152.2838 C 3425.8947,5146.5655 3428.3014,5140.8093 3429.2062,5135.0938 C 3432.701,5113.0169 3436.9646,5090.8724 3445.5034,5070.112 C 3455.166,5041.9151 3466.4618,5014.1808 3473.1228,4984.9586 C 3484.0725,4929.1442 3502.0845,4875.1716 3519.91,4821.2387 C 3538.7364,4755.2861 3552.4869,4688.1285 3564.0735,4620.5465 C 3573.6798,4567.5305 3582.5337,4514.3881 3592.1835,4461.3749 C 3599.9574,4421.0366 3607.5388,4380.6328 3614.4658,4340.1839 C 3620.681,4304.2124 3623.9362,4267.8613 3631.5473,4232.1225 C 3641.9314,4183.5987 3650.3029,4134.4281 3657.9857,4085.4315 C 3663.7122,4035.3126 3665.0351,3985.4298 3663.9753,3934.992 C 3664.8923,3859.6603 3663.8395,3784.2877 3658.0125,3709.1374 C 3646.9657,3587.5843 3633.4893,3466.2734 3622.1494,3344.7475 C 3617.9384,3287.7941 3611.0957,3230.3565 3609.5983,3173.2418 C 3608.1807,3119.1713 3613.061,3064.9552 3611.3064,3010.871 C 3611.1185,2906.6054 3607.1781,2802.3528 3610.271,2698.0961 C 3612.5776,2584.0729 3612.59,2470.0831 3612.9172,2356.054 C 3613.4537,2290.6322 3620.6873,2225.5356 3619.1377,2160.0561 C 3619.7086,2102.1672 3619.7809,2043.9617 3628.4855,1986.5908 C 3635.6091,1944.5057 3644.6582,1902.6041 3657.9127,1861.9902 L 3810.9048,1790.1393 z" />
    <path
       style="opacity:1;fill:#000000;fill-opacity:1;fill-rule:evenodd;stroke:none;stroke-width:4.69999981;stroke-linecap:round;stroke-linejoin:round;stroke-miterlimit:4;stroke-dasharray:none;stroke-dashoffset:0;stroke-opacity:1"
       id="path3174"
       d="M 2944.0966,1717.6443 C 2942.6556,1751.9423 2942.6956,1786.2988 2942.1199,1820.6253 C 2940.9026,1831.8875 2940.3993,1843.25 2938.4679,1854.4119 C 2930.2497,1901.9065 2921.089,1929.2839 2905.4024,1977.1777 C 2870.9918,2082.2385 2827.3286,2183.35 2785.2451,2285.4991 C 2708.3791,2459.5614 2638.2849,2636.833 2596.2406,2822.8944 C 2565.54,2958.7555 2566.2549,2983.8064 2550.0029,3121.7805 C 2544.777,3306.1712 2544.2291,3217.2505 2550.388,3388.5474 L 2428.7544,3450.7962 C 2428.731,3275.8193 2427.173,3366.3734 2434.1193,3179.1466 C 2449.7484,3042.9171 2449.7548,3013.3285 2478.6877,2879.1315 C 2518.6797,2693.6404 2587.6099,2517.2371 2661.1973,2342.8902 C 2716.587,2198.8674 2784.0879,2051.3568 2795.0229,1895.575 C 2794.4487,1861.9202 2794.503,1828.2326 2793.0463,1794.6083 L 2944.0966,1717.6443 z" />
    <path
       style="opacity:1;fill:#000000;fill-opacity:1;fill-rule:evenodd;stroke:none;stroke-width:4.69999981;stroke-linecap:round;stroke-linejoin:round;stroke-miterlimit:4;stroke-dasharray:none;stroke-dashoffset:0;stroke-opacity:1"
       id="path3176"
       d="M 3538.1328,1890.7988 C 3561.2664,1872.4791 3583.3614,1852.8149 3602.8114,1830.5882 C 3622.395,1806.0285 3634.8273,1776.9674 3646.2389,1747.9711 C 3666.798,1695.1917 3677.1559,1639.3325 3687.5437,1583.8761 C 3696.0249,1536.5174 3700.5107,1488.2025 3716.0787,1442.4184 C 3727.4963,1408.84 3745.6699,1367.733 3759.1161,1335.8688 C 3826.8552,1182.7165 3871.1496,1021.2403 3907.869,858.30133 C 3913.0521,833.81908 3918.2352,809.33683 3923.4183,784.85458 L 4058.823,719.64493 C 4052.7359,744.57022 4046.6488,769.4955 4040.5617,794.42079 C 4014.2853,906.82059 3988.3934,1019.6058 3951.2977,1129.0708 C 3942.8802,1153.9099 3933.1825,1178.2965 3924.0974,1202.8992 C 3915.678,1225.6987 3907.2219,1248.4847 3898.7842,1271.2774 C 3888.9007,1297.4491 3870.4902,1344.8581 3861.4008,1373.3611 C 3846.8359,1419.0348 3839.9614,1466.857 3831.2052,1513.841 C 3821.9023,1568.8325 3816.9412,1624.9311 3797.3462,1677.491 C 3787.1484,1708.0351 3774.1605,1737.748 3756.7431,1764.9177 C 3738.912,1788.7051 3716.6488,1807.4648 3695.6607,1828.1523 L 3538.1328,1890.7988 z" />
    <path
       style="opacity:1;fill:#000000;fill-opacity:1;fill-rule:evenodd;stroke:none;stroke-width:4.69999981;stroke-linecap:round;stroke-linejoin:round;stroke-miterlimit:4;stroke-dasharray:none;stroke-dashoffset:0;stroke-opacity:1"
       id="path3178"
       d="M 4066.0508,584.28436 C 4086.3295,637.55437 4110.515,689.24427 4131.1625,742.35521 C 4154.8363,813.10523 4168.3549,886.60397 4178.5318,960.34054 C 4187.7039,1027.1017 4186.4057,1094.4989 4186.0897,1161.6786 C 4186.5274,1247.3681 4186.0533,1333.018 4184.2591,1418.6876 C 4184.0489,1505.6985 4179.4152,1592.9618 4184.7117,1679.9131 C 4187.7753,1730.2085 4192.8282,1765.9777 4198.8452,1815.711 C 4219.1494,1972.7571 4231.8048,2130.3172 4239.4559,2288.4455 C 4245.8455,2393.089 4246.9302,2498.0766 4255.3471,2602.586 L 4113.1218,2675.8777 C 4111.7452,2569.145 4114.9754,2462.3355 4109.2008,2355.6633 C 4105.1786,2282.5452 4104.1948,2253.2495 4097.7581,2180.7702 C 4091.0152,2104.8426 4080.0208,2029.6278 4070.8137,1954.0051 C 4068.0844,1931.5876 4065.9047,1909.1067 4063.4501,1886.6575 C 4060.2995,1857.6211 4051.3869,1777.797 4049.3673,1749.5464 C 4043.1858,1663.0783 4047.4366,1576.396 4044.5895,1489.834 C 4042.9553,1404.7311 4043.0152,1319.6589 4043.244,1234.5421 C 4042.335,1168.1728 4041.2004,1101.6878 4035.3853,1035.5361 C 4027.2079,962.64073 4013.7785,890.74098 3989.3072,821.35369 C 3969.1576,768.90928 3946.5037,717.02567 3919.2944,667.84518 L 4066.0508,584.28436 z" />
    <path
       style="opacity:1;fill:#000000;fill-opacity:1;fill-rule:evenodd;stroke:none;stroke-width:4.69999981;stroke-linecap:round;stroke-linejoin:round;stroke-miterlimit:4;stroke-dasharray:none;stroke-dashoffset:0;stroke-opacity:1"
       id="path3180"
       d="M 4357.1801,2521.9285 C 4327.4001,2487.6331 4315.2335,2440.1006 4304.9013,2396.793 C 4289.6835,2331.9762 4296.1479,2268.1299 4309.6846,2203.8304 C 4320.8141,2149.0245 4336.6039,2095.2208 4345.351,2039.9215 C 4352.7304,1993.269 4353.8357,1971.1016 4358.2596,1922.3981 C 4364.412,1781.2126 4372.0265,1640.1037 4379.9131,1498.9845 C 4381.7735,1425.516 4387.538,1351.8108 4383.541,1278.2961 C 4381.0772,1232.9802 4376.998,1205.6523 4371.5314,1160.6393 C 4360.0057,1089.4799 4344.837,1017.7361 4316.3092,951.22775 C 4285.7272,882.93884 4260.0221,812.67111 4231.5875,743.47906 C 4208.9396,689.18737 4195.1369,631.9993 4184.4126,574.3489 L 4329.2713,497.63772 C 4336.861,555.06211 4348.8458,611.79536 4370.756,665.6783 C 4398.4627,734.95364 4426.9987,803.83966 4460.1697,870.72292 C 4487.5007,940.1846 4497.4899,1015.2653 4508.7058,1088.6242 C 4510.552,1103.5415 4521.6336,1191.7591 4522.8351,1206.7594 C 4528.8007,1281.2389 4519.1801,1355.7236 4516.8981,1430.1401 C 4509.1367,1571.276 4495.2527,1712.1077 4495.4961,1853.6249 C 4493.19,1907.4676 4491.5776,1961.3327 4481.6009,2014.4639 C 4478.1104,2033.0528 4466.8522,2074.8231 4462.6549,2092.9877 C 4459.5086,2106.6042 4456.8162,2120.3217 4453.8969,2133.9887 C 4441.0274,2198.5044 4435.2457,2253.9324 4449.3998,2318.9677 C 4458.2486,2358.2493 4468.1373,2404.2411 4500.4549,2431.3084 L 4357.1801,2521.9285 z" />
    <path
       style="opacity:1;fill:#000000;fill-opacity:1;fill-rule:evenodd;stroke:none;stroke-width:4.69999981;stroke-linecap:round;stroke-linejoin:round;stroke-miterlimit:4;stroke-dasharray:none;stroke-dashoffset:0;stroke-opacity:1"
       id="path3182"
       d="M 4202.8644,2539.0688 C 4210.6711,2534.6783 4234.1165,2521.5523 4226.2845,2525.8974 C 4195.3998,2543.0322 4167.0646,2565.8329 4133.706,2577.4378 C 4110.5239,2585.5025 4174.7305,2550.4766 4195.0802,2536.7529 C 4263.2777,2490.7609 4329.6276,2442.5991 4395.5279,2393.4006 C 4412.9527,2380.3422 4430.3776,2367.2838 4447.8024,2354.2255 L 4589.8541,2297.8494 C 4571.4231,2311.2906 4552.9922,2324.7318 4534.5613,2338.1729 C 4385.8906,2448.3605 4236.5774,2559.6021 4070.437,2642.7395 L 4202.8644,2539.0688 z" />
    <path
       style="opacity:1;fill:#000000;fill-opacity:1;fill-rule:evenodd;stroke:none;stroke-width:4.69999981;stroke-linecap:round;stroke-linejoin:round;stroke-miterlimit:4;stroke-dasharray:none;stroke-dashoffset:0;stroke-opacity:1"
       id="path3184"
       d="M 4452.668,2426.2157 C 4429.8476,2551.8649 4426.6759,2680.1819 4422.4043,2807.5022 C 4418.2154,2961.4622 4416.1932,3115.5882 4423.8197,3269.4579 L 4287.5676,3339.169 C 4289.8852,3183.5651 4295.2936,3028.0054 4294.452,2872.3529 C 4295.5689,2749.3078 4293.8616,2626.0339 4301.6177,2503.1797 L 4452.668,2426.2157 z" />
    <path
       style="opacity:1;fill:#000000;fill-opacity:1;fill-rule:evenodd;stroke:none;stroke-width:4.69999981;stroke-linecap:round;stroke-linejoin:round;stroke-miterlimit:4;stroke-dasharray:none;stroke-dashoffset:0;stroke-opacity:1"
       id="path3186"
       d="M 4194.4354,3217.4506 C 4245.3255,3234.4455 4297.5943,3250.9665 4351.2646,3256.4709 C 4393.2524,3260.7771 4418.8171,3257.2193 4460.5189,3254.31 C 4478.4675,3250.4968 4496.5882,3247.4186 4514.3649,3242.8704 C 4531.579,3238.4661 4548.3123,3232.3497 4565.3995,3227.476 C 4630.5685,3208.8881 4695.685,3192.1231 4759.5291,3169.2116 L 4633.3794,3267.3654 C 4587.8269,3282.1048 4541.9409,3295.0132 4495.813,3307.8368 C 4487.882,3310.0416 4399.7309,3334.7749 4390.0047,3336.9501 C 4371.6662,3341.0513 4353.0139,3343.5955 4334.5184,3346.9183 C 4289.7033,3348.7336 4268.2456,3351.2516 4223.04,3346.2119 C 4167.0085,3339.9653 4107.6381,3324.6126 4053.2748,3309.2108 L 4194.4354,3217.4506 z" />
    <path
       style="opacity:1;fill:#000000;fill-opacity:1;fill-rule:evenodd;stroke:none;stroke-width:4.69999981;stroke-linecap:round;stroke-linejoin:round;stroke-miterlimit:4;stroke-dasharray:none;stroke-dashoffset:0;stroke-opacity:1"
       id="path3188"
       d="M 4793.7423,3035.4993 C 4759.2549,3089.8576 4735.377,3151.1701 4715.3403,3212.199 C 4687.199,3310.9753 4671.3301,3412.5438 4659.0727,3514.3378 C 4645.2785,3634.7965 4645.2219,3756.1261 4637.2481,3876.9593 C 4628.9678,3989.5837 4605.5702,4100.1974 4589.3294,4211.7535 C 4576.6998,4298.5042 4576.2029,4310.9787 4566.8606,4398.2447 C 4554.4568,4530.8503 4552.1888,4664.0742 4549.0298,4797.1324 C 4545.9634,4909.7607 4548.8645,5022.4203 4550.5709,5135.0436 C 4551.7696,5207.4574 4551.7481,5279.8818 4552.2725,5352.3013 C 4550.4541,5416.2108 4552.1593,5480.1467 4553.6305,5544.0445 C 4554.364,5572.7529 4554.7547,5601.4675 4554.9142,5630.1843 C 4555.7401,5641.2762 4551.4132,5652.0233 4550.9489,5662.9583 C 4550.8717,5664.7782 4553.3518,5667.5662 4551.7166,5668.3686 C 4394.2868,5745.6195 4403.3508,5794.2547 4395.898,5726.9524 C 4392.9019,5672.1432 4384.766,5617.7479 4380.0292,5563.0465 C 4372.4527,5501.6315 4366.7111,5440.0682 4363.8313,5378.2562 C 4364.0089,5301.2629 4362.687,5224.2795 4362.1133,5147.2914 C 4364.2139,5060.9619 4347.666,4976 4337.9367,4890.6216 C 4321.0843,4765.9128 4299.4428,4641.8326 4277.4887,4517.9246 C 4259.2527,4404.0077 4239.8028,4290.263 4218.4534,4176.8868 C 4207.8302,4124.9598 4199.2162,4072.693 4190.2174,4020.4694 C 4181.1646,3974.2378 4172.1919,3927.9646 4164.4994,3881.4805 C 4158.1601,3839.8045 4153.3423,3797.8071 4145.6292,3756.3564 C 4138.6776,3725.5344 4134.947,3694.1332 4129.9772,3662.9594 C 4124.6488,3629.0978 4116.6699,3595.8677 4112.8394,3561.7738 C 4109.628,3528.9479 4108.8299,3495.9339 4108.202,3462.9737 C 4108.6895,3435.7945 4104.1244,3408.9873 4097.5019,3382.7408 C 4093.4793,3363.75 4095.3558,3373.2814 4091.8737,3354.1465 L 4239.7264,3275.5384 C 4242.8461,3293.9192 4241.0827,3284.7862 4245.0119,3302.9383 C 4251.8984,3330.3449 4257.6895,3358.4402 4257.3374,3386.824 C 4257.2768,3419.4101 4257.3802,3452.0419 4260.3772,3484.5212 C 4264.1258,3518.3109 4271.4874,3551.3256 4277.3018,3584.7685 C 4282.8275,3615.8539 4286.5639,3647.1286 4292.5822,3678.1355 C 4299.9367,3719.8921 4303.4997,3762.3523 4310.3724,3804.2074 C 4317.6002,3850.7489 4326.5207,3897.0417 4335.7852,3943.2131 C 4344.4636,3995.9666 4353.4273,4048.7022 4360.2663,4101.7268 C 4376.0745,4216.746 4390.1736,4332.0426 4412.2033,4446.1079 C 4436.6209,4569.454 4454.8821,4693.8799 4476.7216,4817.6896 C 4488.6035,4902.7302 4507.0664,4987.7006 4506.1685,5073.8714 C 4505.7715,5150.4221 4504.4647,5227.0559 4508.8936,5303.5247 C 4511.5384,5365.2618 4516.1947,5426.8425 4523.8905,5488.1765 C 4526.6854,5520.5892 4529.6966,5552.8613 4534.7269,5585.0222 C 4536.1852,5594.3455 4537.9619,5603.6163 4539.5794,5612.9133 C 4541.1512,5620.4447 4543.0611,5627.9134 4544.2947,5635.5075 C 4545.0005,5639.8523 4545.023,5644.2808 4545.3872,5648.6674 C 4552.7622,5713.1124 4548.158,5651.6479 4394.5152,5734.8951 C 4393.2194,5735.5972 4397.6708,5737.376 4398.7004,5736.3214 C 4405.082,5729.7842 4401.2483,5714.2321 4405.087,5706.5246 C 4405.2496,5677.3708 4405.6491,5648.2193 4406.3771,5619.0737 C 4407.8262,5554.7273 4409.5514,5490.3409 4407.6827,5425.9846 C 4408.1181,5353.104 4407.933,5280.22 4408.7564,5207.3415 C 4409.9506,5093.9472 4412.1925,4980.5519 4411.117,4867.1464 C 4411.8899,4731.9087 4422.0944,4597.2553 4436.7893,4462.8097 C 4446.0851,4373.0161 4446.1337,4365.2562 4458.3758,4276.0062 C 4473.4698,4165.9643 4494.5737,4056.5596 4500.9801,3945.4801 C 4505.8653,3824.2893 4505.7255,3702.7029 4521.8777,3582.2307 C 4533.4666,3481.314 4542.885,3379.407 4569.1264,3281.0003 C 4588.7084,3220.1547 4614.6719,3162.0238 4638.0554,3102.5906 L 4793.7423,3035.4993 z" />
    <path
       style="opacity:1;fill:#000000;fill-opacity:1;fill-rule:evenodd;stroke:none;stroke-width:4.69999981;stroke-linecap:round;stroke-linejoin:round;stroke-miterlimit:4;stroke-dasharray:none;stroke-dashoffset:0;stroke-opacity:1"
       id="path3190"
       d="M 3749.0947,42.445765 C 3827.5055,110.12851 3867.0684,208.43538 3907.4087,301.19288 C 3926.4419,348.43851 3946.2295,395.63271 3960.106,444.74311 C 3969.2981,477.27475 3974.4376,510.56962 3980.1081,543.82448 C 3981.4334,553.43203 3982.7588,563.03958 3984.0841,572.64713 L 3839.4898,648.69998 C 3838.3181,639.16482 3837.1463,629.62965 3835.9746,620.09449 C 3824.1571,536.54649 3807.875,454.16567 3774.1028,376.12159 C 3735.1349,285.57081 3693.4366,187.90418 3607.1869,132.66395 L 3749.0947,42.445765 z" />
    <path
       style="opacity:1;fill:#000000;fill-opacity:1;fill-rule:evenodd;stroke:none;stroke-width:4.69999981;stroke-linecap:round;stroke-linejoin:round;stroke-miterlimit:4;stroke-dasharray:none;stroke-dashoffset:0;stroke-opacity:1"
       id="path3192"
       d="M 5482.1027,2632.2523 C 5634.8987,2588.0275 5794.3193,2576.9467 5952.2112,2564.9137 C 6138.2031,2552.2481 6324.6878,2552.3463 6510.9156,2546.547 C 6706.4061,2540.4593 6735.522,2537.0481 6929.7293,2524.7128 L 6838.1029,2592.1436 C 6649.1761,2603.2873 6609.187,2606.5597 6418.509,2614.065 C 6227.8454,2621.5696 6036.8675,2624.7237 5846.7737,2642.9955 C 5678.6286,2660.7986 5508.864,2678.3309 5348.4646,2735.1472 L 5482.1027,2632.2523 z" />
    <path
       style="opacity:1;fill:#000000;fill-opacity:1;fill-rule:evenodd;stroke:none;stroke-width:4.69999981;stroke-linecap:round;stroke-linejoin:round;stroke-miterlimit:4;stroke-dasharray:none;stroke-dashoffset:0;stroke-opacity:1"
       id="path3194"
       d="M 6328.0525,3471.0084 C 6423.8554,3489.0746 6514.596,3524.9498 6605.0542,3560.2196 C 6743.2859,3616.3472 6880.3153,3676.3088 7023.7958,3718.1861 C 7053.8557,3726.9595 7084.3618,3734.1246 7114.6447,3742.0939 C 7254.9801,3774.8525 7398.6165,3788.9211 7542.3711,3793.6929 C 7594.8379,3795.4996 7647.2959,3793.5007 7699.7466,3792.4463 L 7564.9156,3890.6773 C 7514.5447,3890.9815 7464.1859,3889.1217 7413.9156,3885.9756 C 7272.9731,3875.4365 7132.6391,3857.187 6994.9663,3824.3739 C 6964.5697,3816.1847 6933.9662,3808.7285 6903.7767,3799.8063 C 6759.2235,3757.0851 6620.901,3696.888 6479.7233,3644.6699 C 6386.321,3612.0287 6291.3119,3573.7532 6191.2093,3570.4308 L 6328.0525,3471.0084 z" />
    <path
       style="opacity:1;fill:#000000;fill-opacity:1;fill-rule:evenodd;stroke:none;stroke-width:4.69999981;stroke-linecap:round;stroke-linejoin:round;stroke-miterlimit:4;stroke-dasharray:none;stroke-dashoffset:0;stroke-opacity:1"
       id="path3196"
       d="M 6173.0082,3583.8391 C 6165.8329,3585.1836 6158.5253,3585.9521 6151.4823,3587.8727 C 6109.7193,3599.2616 6069.0869,3616.3332 6028.5633,3631.3084 C 5945.5328,3661.9918 6019.543,3633.7711 5942.1605,3663.5969 C 5861.2624,3698.7402 5790.5685,3701.7474 5703.5139,3698.9363 C 5601.1978,3693.8817 5503.9384,3674.4957 5405.9716,3645.7383 L 5536.7902,3556.5974 C 5631.6526,3587.9208 5729.1815,3606.7892 5829.4821,3607.5659 C 5848.6816,3607.2593 5867.907,3607.6904 5887.0805,3606.6461 C 5949.4533,3603.2491 6009.6873,3588.0413 6067.6781,3565.292 C 6146.9619,3536.0144 6225.6895,3502.7243 6307.976,3483.1914 L 6173.0082,3583.8391 z" />
    <path
       style="opacity:1;fill:#000000;fill-opacity:1;fill-rule:evenodd;stroke:none;stroke-width:4.69999981;stroke-linecap:round;stroke-linejoin:round;stroke-miterlimit:4;stroke-dasharray:none;stroke-dashoffset:0;stroke-opacity:1"
       id="path3198"
       d="M 5514.3989,4302.4828 C 5526.1742,4300.2019 5563.8437,4292.8696 5569.4702,4292.0243 C 5613.185,4285.4567 5657.1942,4281.0036 5700.9746,4274.8889 C 5918.6627,4244.4848 5652.8669,4280.2704 5884.0795,4249.4644 C 6009.8673,4238.228 6137.7268,4208.7103 6264.377,4211.3895 C 6273.4197,4213.3018 6282.8043,4214.008 6291.5051,4217.1263 C 6313.2928,4224.9349 6337.5377,4243.4619 6356.0047,4255.161 C 6372.8326,4265.8218 6389.5833,4276.6296 6406.8376,4286.5858 C 6481.3485,4329.5805 6477.3904,4324.8437 6562.0582,4361.977 C 6811.0691,4455.7409 7074.2615,4501.1689 7335.9939,4542.657 C 7380.191,4548.5277 7424.388,4554.3985 7468.5851,4560.2693 L 7358.7716,4637.7636 C 7315.0538,4631.4388 7271.336,4625.1139 7227.6182,4618.7891 C 6962.6505,4575.6606 6696.7166,4529.2085 6441.9738,4442.181 C 6349.1892,4405.4763 6359.8357,4412.2513 6277.2915,4370.7845 C 6238.3887,4351.2413 6199.0677,4323.5023 6156.7797,4310.9582 C 6148.983,4308.6454 6140.8068,4307.8903 6132.8203,4306.3563 C 6010.877,4301.3507 5889.3033,4324.031 5768.3888,4335.9849 C 5638.1353,4354.8307 5506.9472,4372.3272 5379.2717,4404.7937 L 5514.3989,4302.4828 z" />
    <path
       style="opacity:1;fill:#000000;fill-opacity:1;fill-rule:evenodd;stroke:none;stroke-width:4.69999981;stroke-linecap:round;stroke-linejoin:round;stroke-miterlimit:4;stroke-dasharray:none;stroke-dashoffset:0;stroke-opacity:1"
       id="path3202"
       d="M 5390.6741,4769.3952 C 5508.3748,4748.3701 5626.8995,4730.696 5745.6937,4716.499 C 5821.132,4708.1112 5896.6399,4700.2467 5972.3271,4694.4434 C 5991.6841,4692.9592 6011.0186,4690.4989 6030.4324,4690.4636 C 6074.6373,4690.383 6099.2562,4696.5796 6142.8829,4704.0433 C 6292.9784,4735.8099 6430.3727,4808.2222 6566.5831,4876.2714 C 6719.4359,4954.9804 6875.1326,5029.3283 7036.5287,5089.0531 C 7159.8065,5134.6721 7216.9807,5149.697 7342.7635,5187.4756 C 7498.3854,5229.5109 7656.1911,5262.716 7814.1529,5294.5396 L 7692.5492,5378.7379 C 7541.0396,5338.931 7389.2975,5300.0074 7238.1328,5258.9032 C 7118.1474,5222.4856 7048.063,5202.6474 6929.5579,5160.8944 C 6764.2738,5102.6598 6603.5077,5032.3852 6445.9142,4955.9279 C 6307.0146,4891.5412 6167.6429,4821.3621 6015.8485,4793.3769 C 5969.7766,4786.9254 5951.1276,4782.603 5905.1524,4782.621 C 5886.4404,4782.6284 5867.7656,4784.3133 5849.085,4785.3975 C 5775.1762,4789.6874 5701.3658,4795.8136 5627.8279,4804.4157 C 5503.4143,4820.947 5378.2908,4839.4894 5257.0361,4872.2901 L 5390.6741,4769.3952 z" />
    <path
       style="opacity:1;fill:#000000;fill-opacity:1;fill-rule:evenodd;stroke:none;stroke-width:4.69999981;stroke-linecap:round;stroke-linejoin:round;stroke-miterlimit:4;stroke-dasharray:none;stroke-dashoffset:0;stroke-opacity:1"
       id="path3206"
       d="M 5487.0071,5418.4564 C 5616.2075,5477.3911 5747.9134,5530.2071 5880.1577,5581.8677 C 6038.5136,5643.6028 6197.2195,5706.5842 6361.586,5750.721 L 6231.7496,5839.4321 C 6072.9075,5787.3495 5920.896,5716.3428 5763.4034,5660.4176 C 5413.3843,5532.774 5887.1422,5705.3612 5564.0329,5588.2028 C 5502.4412,5565.8698 5441.2032,5540.31 5378.4021,5521.3959 C 5368.747,5518.488 5358.8197,5516.5755 5349.0284,5514.1653 L 5487.0071,5418.4564 z" />
    <path
       style="opacity:1;fill:#000000;fill-opacity:1;fill-rule:evenodd;stroke:none;stroke-width:4.69999981;stroke-linecap:round;stroke-linejoin:round;stroke-miterlimit:4;stroke-dasharray:none;stroke-dashoffset:0;stroke-opacity:1"
       id="path3208"
       d="M 6677.17,1035.4988 C 6671.632,1035.8386 6666.0695,1037.1384 6660.5559,1036.518 C 6615.3539,1031.4321 6564.5503,1010.3247 6527.1909,985.3146 C 6512.8844,975.73715 6499.8501,964.3838 6486.1798,953.9184 C 6472.8057,939.37292 6457.9837,926.0365 6446.0577,910.28196 C 6403.706,854.33425 6374.2277,784.64479 6367.0879,714.59713 C 6359.7971,643.0674 6370.2361,618.59027 6384.0902,548.0114 C 6395.2442,520.28728 6404.0649,491.50605 6417.5523,464.83905 C 6478.0812,345.16253 6578.189,253.95451 6687.8223,179.83844 C 6711.0247,164.15276 6735.6032,150.60563 6759.4937,135.98922 C 6851.4262,89.037617 6920.4104,26.209668 7021.8273,27.26998 C 7087.2777,27.954263 7152.3235,57.843492 7198.8775,103.12658 C 7215.0828,118.88945 7227.257,138.32491 7241.4467,155.92408 C 7292.8269,246.83545 7320.7154,350.294 7303.1449,455.12643 C 7291.3764,525.34139 7270.1682,561.88432 7241.4965,626.83772 C 7225.0478,656.23897 7209.9643,686.44678 7192.1503,715.04146 C 7157.9531,769.93425 7110.6101,832.17138 7069.936,882.50609 C 7042.2925,916.71534 6992.9507,974.08419 6960.7072,1006.8417 C 6946.3453,1021.4325 6930.7852,1034.7933 6915.8243,1048.7691 C 6842.6279,1089.6385 6774.9112,1163.0931 6685.5844,1150.7385 C 6667.1032,1148.1824 6649.8974,1139.839 6632.0539,1134.3892 L 6760.8254,1045.7818 C 6778.0369,1049.517 6794.8721,1056.0629 6812.46,1056.9874 C 6872.5968,1060.1486 6917.8934,1013.0408 6773.3155,1106.9025 C 6789.6031,1092.8212 6806.5617,1079.4804 6822.1785,1064.6585 C 6908.7533,982.48995 6997.8263,874.47965 7061.0124,773.64033 C 7078.5016,745.72914 7093.1768,716.15055 7109.259,687.40567 C 7136.6387,625.93055 7158.089,588.28142 7170.035,521.88915 C 7188.262,420.58843 7161.4155,321.77019 7110.1376,234.61446 C 7096.4524,218.19625 7084.6912,199.961 7069.082,185.35984 C 7040.2269,158.36828 6999.9705,135.57602 6961.4992,125.96948 C 6941.2205,120.90575 6920.0603,118.57261 6899.1669,119.15099 C 6877.9697,119.73778 6837.4972,150.60916 6836.3873,129.43289 C 6835.0501,103.91951 6876.9726,98.389076 6897.2652,82.867169 C 6872.2386,97.47693 6846.5132,110.95052 6822.1855,126.69645 C 6712.1861,197.89255 6612.7012,285.86491 6550.9035,403.34313 C 6537.382,429.04771 6528.2478,456.83094 6516.92,483.57485 C 6503.5944,550.06426 6493.0266,575.82021 6499.8814,643.3094 C 6506.7072,710.51235 6536.0837,777.20804 6578.6129,829.42863 C 6590.605,844.1534 6605.5077,856.24633 6618.955,869.65518 C 6632.7717,879.15698 6646.0013,889.57489 6660.4051,898.1606 C 6705.3345,924.94165 6759.7442,943.3617 6812.2627,934.38873 L 6677.17,1035.4988 z" />
    <path
       style="opacity:1;fill:#000000;fill-opacity:1;fill-rule:evenodd;stroke:none;stroke-width:4.69999981;stroke-linecap:round;stroke-linejoin:round;stroke-miterlimit:4;stroke-dasharray:none;stroke-dashoffset:0;stroke-opacity:1"
       id="path3210"
       d="M 5583.9821,2282.3252 C 5588.243,2282.5078 5592.5562,2283.5636 5596.7647,2282.8729 C 5604.0088,2281.6841 5610.8843,2278.8468 5617.9212,2276.7555 C 5654.0719,2266.0123 5654.4149,2267.1872 5691.3762,2247.5388 C 5707.3345,2239.0555 5754.2027,2211.8031 5738.2025,2220.2073 C 5709.2469,2235.4165 5681.0597,2252.0458 5652.4883,2267.9651 C 5687.5752,2247.4302 5718.0537,2219.5552 5753.6195,2199.78 C 5807.5173,2169.8119 5860.4943,2137.9397 5916.2243,2111.5345 C 5922.3124,2108.6499 5930.2633,2110.3416 5936.3669,2113.1934 C 5944.0162,2116.7673 5949.0835,2124.303 5955.4418,2129.8578 C 5994.289,2176.775 6027.3315,2241.3527 6090.6121,2259.2415 C 6105.8366,2263.5453 6121.9888,2263.332 6137.6772,2265.3773 C 6213.5748,2262.9143 6282.2523,2232.3245 6348.2124,2197.594 L 6225.6613,2295.6659 C 6157.1883,2328.4344 6086.2628,2357.6277 6008.783,2356.0259 C 5991.6616,2352.9799 5973.9423,2352.3099 5957.419,2346.8879 C 5893.8705,2326.035 5861.0232,2262.1518 5815.4127,2218.5982 C 5810.8671,2216.1244 5806.8633,2212.1253 5801.7757,2211.1769 C 5796.6723,2210.2255 5791.479,2212.5102 5786.3307,2213.1769 C 5825.9449,2189.1964 5865.5591,2165.2159 5905.1733,2141.2354 C 5914.7061,2135.3746 5885.5178,2151.9743 5876.0849,2157.9945 C 5849.4208,2175.0118 5824.7124,2194.9778 5797.8265,2211.6664 C 5737.5197,2247.2205 5677.3906,2283.0775 5616.9063,2318.3287 C 5564.8746,2348.6536 5508.5164,2379.8853 5446.8313,2381.9711 L 5583.9821,2282.3252 z" />
    <path
       style="opacity:1;fill:#000000;fill-opacity:1;fill-rule:evenodd;stroke:none;stroke-width:4.69999981;stroke-linecap:round;stroke-linejoin:round;stroke-miterlimit:4;stroke-dasharray:none;stroke-dashoffset:0;stroke-opacity:1"
       id="path3212"
       d="M 6463.9821,2225.1824 C 6518.0502,2204.6333 6571.677,2182.5417 6626.4671,2163.7972 C 6637.5118,2160.5124 6655.9033,2153.2572 6668.5221,2155.6348 C 6698.1271,2161.2129 6723.3542,2190.9258 6743.5745,2210.8727 C 6788.6195,2257.5387 6828.0087,2250.0913 6888.3492,2242.3607 C 6899.0565,2239.9488 6909.7637,2237.5368 6920.471,2235.1248 L 6791.1182,2333.078 C 6780.2665,2334.9937 6769.4149,2336.9094 6758.5633,2338.825 C 6692.9327,2344.7612 6650.2552,2348.7358 6602.9251,2297.2872 C 6564.751,2260.3621 6550.502,2245.2616 6497.1376,2264.4583 C 6446.8431,2281.7865 6398.1463,2304.9806 6347.2767,2320.4093 C 6340.6044,2322.4331 6333.6465,2323.3553 6326.8313,2324.8282 L 6463.9821,2225.1824 z" />
    <path
       style="opacity:1;fill:#000000;fill-opacity:1;fill-rule:evenodd;stroke:none;stroke-width:4.69999981;stroke-linecap:round;stroke-linejoin:round;stroke-miterlimit:4;stroke-dasharray:none;stroke-dashoffset:0;stroke-opacity:1"
       id="path3214"
       d="M 7101.9796,2197.0637 C 7131.3443,2189.1026 7160.0922,2178.7096 7188.9637,2169.0047 C 7218.3547,2159.0315 7239.1629,2156.8589 7267.6198,2169.978 C 7310.9269,2192.5233 7357.5497,2196.3734 7405.6398,2196.6079 L 7275.7781,2290.7645 C 7224.7187,2290.0333 7174.9309,2286.0276 7128.2488,2263.6988 C 7103.724,2256.6722 7080.5555,2263.3487 7056.9619,2271.6482 C 7027.5733,2281.6463 6997.7638,2290.4647 6968.8338,2301.7644 L 7101.9796,2197.0637 z" />
    <path
       style="opacity:1;fill:#000000;fill-opacity:1;fill-rule:evenodd;stroke:none;stroke-width:4.69999981;stroke-linecap:round;stroke-linejoin:round;stroke-miterlimit:4;stroke-dasharray:none;stroke-dashoffset:0;stroke-opacity:1"
       id="path3216"
       d="M 5870.0668,1857.0991 C 5902.2123,1854.0336 5934.4447,1849.3442 5966.7298,1851.7437 C 5972.7931,1852.9403 5978.94,1853.7723 5984.9198,1855.3335 C 5993.0024,1857.4437 6000.8799,1860.2732 6008.86,1862.743 C 6017.8757,1865.2372 6026.8383,1867.9319 6035.9071,1870.2256 C 6065.8031,1877.787 6095.9113,1882.5996 6126.3999,1886.9627 C 6178.6209,1893.8194 6231.3276,1894.7418 6283.9105,1895.5343 L 6151.1179,1991.7345 C 6098.2742,1991.074 6045.3552,1989.1705 5993.077,1980.7388 C 5938.8303,1971.7352 5885.7323,1957.5749 5831.4934,1949.2869 C 5799.1135,1949.5266 5766.7291,1952.6684 5734.9093,1958.7489 L 5870.0668,1857.0991 z" />
    <path
       style="opacity:1;fill:#000000;fill-opacity:1;fill-rule:evenodd;stroke:none;stroke-width:4.69999981;stroke-linecap:round;stroke-linejoin:round;stroke-miterlimit:4;stroke-dasharray:none;stroke-dashoffset:0;stroke-opacity:1"
       id="path3218"
       d="M 5417.6042,1684.558 C 5505.2367,1668.9199 5593.3605,1655.0724 5681.3543,1641.1934 C 5752.5859,1630.0464 5824.4257,1624.3747 5896.401,1621.31 C 5938.4635,1619.8166 5980.5525,1620.1287 6022.6313,1620.3407 C 6059.2392,1624.9743 6096.4025,1625.8359 6132.7837,1631.9774 C 6169.6447,1638.9643 6207.1235,1641.0005 6244.5315,1642.4238 C 6284.2281,1643.5072 6323.9472,1643.4943 6363.6561,1643.5933 C 6411.1325,1643.9371 6458.611,1643.7937 6506.0882,1643.7362 C 6556.2776,1643.727 6606.4669,1643.8894 6656.6563,1643.9103 C 6711.1451,1644.0616 6765.634,1643.9262 6820.123,1644.0456 C 6881.2925,1644.3638 6942.4625,1644.2646 7003.6325,1644.3409 C 7067.2382,1644.4076 7130.8446,1644.4506 7194.4503,1644.2915 C 7290.072,1645.4998 7385.701,1646.3479 7481.3314,1646.3969 C 7571.134,1647.2982 7660.9403,1646.5417 7750.7324,1645.1263 L 7621.2923,1739.17 C 7532.6665,1737.7096 7444.0259,1737.0139 7355.389,1737.8994 C 7257.8268,1737.9493 7160.2662,1738.8179 7062.7123,1740.0048 C 6999.152,1739.8447 6935.5909,1739.8895 6872.0304,1739.9554 C 6810.5898,1740.0317 6749.1492,1739.9333 6687.709,1740.2499 C 6633.096,1740.3684 6578.4831,1740.2327 6523.8702,1740.3859 C 6473.5013,1740.4108 6423.1325,1740.5765 6372.7636,1740.6128 C 6325.0648,1740.6046 6277.365,1740.5588 6229.6673,1740.9266 C 6189.714,1740.9664 6149.7499,1741.0356 6109.8211,1739.4013 C 6071.8507,1737.5324 6033.918,1734.5514 5996.4266,1728.0037 C 5960.612,1723.4324 5924.569,1719.9258 5888.5383,1717.705 C 5846.9944,1717.6703 5805.443,1717.4635 5763.9055,1718.2885 C 5694.0739,1720.2166 5624.3492,1725.4629 5555.2224,1735.8291 C 5464.4062,1749.6367 5373.2134,1763.5923 5284.0225,1785.6987 L 5417.6042,1684.558 z" />
    <path
       style="opacity:1;fill:#000000;fill-opacity:1;fill-rule:evenodd;stroke:none;stroke-width:4.69999981;stroke-linecap:round;stroke-linejoin:round;stroke-miterlimit:4;stroke-dasharray:none;stroke-dashoffset:0;stroke-opacity:1"
       id="path3220"
       d="M 5850.7389,2812.4934 C 5831.5497,2832.1864 5841.2472,2822.1247 5821.6575,2842.689 L 5668.8665,2906.286 C 5688.0265,2886.7386 5679.0733,2896.6486 5695.8366,2876.656 L 5850.7389,2812.4934 z" />
    <path
       style="opacity:1;fill:#000000;fill-opacity:1;fill-rule:evenodd;stroke:none;stroke-width:4.69999981;stroke-linecap:round;stroke-linejoin:round;stroke-miterlimit:4;stroke-dasharray:none;stroke-dashoffset:0;stroke-opacity:1"
       id="path3222"
       d="M 6467.5385,2767.6853 C 6429.7564,2808.201 6392.6966,2849.3634 6354.5814,2889.5791 L 6204.4471,2952.1064 C 6242.0943,2913.5499 6279.2218,2874.5457 6313.3227,2832.7696 L 6467.5385,2767.6853 z" />
    <path
       style="opacity:1;fill:#000000;fill-opacity:1;fill-rule:evenodd;stroke:none;stroke-width:4.69999981;stroke-linecap:round;stroke-linejoin:round;stroke-miterlimit:4;stroke-dasharray:none;stroke-dashoffset:0;stroke-opacity:1"
       id="path3224"
       d="M 7111.5829,2831.8608 C 7087.1609,2850.3884 7064.7536,2871.349 7042.2447,2892.1019 L 6890.521,2954.2932 C 6911.8264,2934.3575 6932.897,2914.1327 6954.7465,2894.8005 L 7111.5829,2831.8608 z" />
    <path
       style="opacity:1;fill:#000000;fill-opacity:1;fill-rule:evenodd;stroke:none;stroke-width:4.69999981;stroke-linecap:round;stroke-linejoin:round;stroke-miterlimit:4;stroke-dasharray:none;stroke-dashoffset:0;stroke-opacity:1"
       id="path3226"
       d="M 7524.7243,2842.0689 C 7502.0487,2859.5023 7479.8297,2877.5316 7457.5688,2895.4923 L 7304.3662,2957.097 C 7325.4811,2939.8665 7347.6244,2923.692 7367.1964,2904.7154 L 7524.7243,2842.0689 z" />
    <path
       style="opacity:1;fill:#000000;fill-opacity:1;fill-rule:evenodd;stroke:none;stroke-width:4.69999981;stroke-linecap:round;stroke-linejoin:round;stroke-miterlimit:4;stroke-dasharray:none;stroke-dashoffset:0;stroke-opacity:1"
       id="path3228"
       d="M 6213.9752,3313.607 C 6202.4102,3320.9435 6208.7233,3317.3758 6194.8965,3324.0597 L 6325.8862,3218.8752 C 6340.0131,3210.9066 6333.129,3214.6565 6346.5169,3207.5861 L 6213.9752,3313.607 z" />
    <path
       style="opacity:1;fill:#d6cda8;fill-opacity:1;fill-rule:evenodd;stroke:none;stroke-width:4.69999980999999956;stroke-linecap:round;stroke-linejoin:round;stroke-miterlimit:4;stroke-dasharray:none;stroke-dashoffset:0;stroke-opacity:1"
       id="path3230"
       d="M 5846.5919,3358.6612 C 5825.5739,3368.1262 5803.8469,3375.508 5782.8731,3385.0424 L 5913.0521,3282.0923 C 5935.3752,3272.928 5957.6869,3263.7668 5979.7376,3253.9605 L 5846.5919,3358.6612 z" />
    <path
       style="opacity:1;fill:#d6cda8;fill-opacity:1;fill-rule:evenodd;stroke:none;stroke-width:4.69999981;stroke-linecap:round;stroke-linejoin:round;stroke-miterlimit:4;stroke-dasharray:none;stroke-dashoffset:0;stroke-opacity:1"
       id="path3232"
       d="M 5544.6251,3776.2163 C 5651.2946,3758.3243 5752.819,3717.9024 5853.9751,3680.7949 C 5900.4072,3664.5072 5946.0494,3645.6134 5993.1648,3631.2717 C 5997.2034,3630.0424 6036.315,3618.5585 6044.7311,3620.7731 C 6051.2453,3622.4872 6055.241,3629.2012 6060.496,3633.4153 C 6061.6898,3641.7968 6065.5603,3650.2246 6064.0773,3658.5598 C 6059.8077,3682.5574 6037.0228,3707.798 6022.3341,3724.1544 C 5979.7165,3771.6108 5930.6442,3812.7714 5882.5229,3854.3869 C 5819.6245,3905.7721 5755.7166,3956.0765 5696.8933,4012.1788 C 5694.1667,4015.2113 5692.5379,4022.692 5688.7135,4021.2763 C 5677.2531,4017.0339 5689.5012,4000.3463 5698.0327,3995.2968 C 5709.4952,3988.5127 5722.4668,3984.6842 5734.6974,3979.4093 C 5818.9061,3943.0911 5784.3415,3957.8674 5883.9404,3916.6666 C 5996.0425,3872.9159 6107.04,3826.4418 6218.3195,3780.6683 C 6226.8183,3777.1724 6374.2222,3716.7206 6393.2246,3710.4456 C 6411.852,3704.2945 6431.3453,3701.1678 6450.4056,3696.5289 C 6461.3322,3697.3365 6473.7203,3693.4332 6483.1854,3698.9518 C 6506.5937,3712.5998 6487.0003,3742.9667 6478.3047,3754.3585 C 6467.3957,3768.6501 6453.4566,3780.3941 6440.1354,3792.4688 C 6396.6899,3831.849 6363.1193,3855.4617 6315.4831,3891.6142 C 6175.5451,3993.5753 6035.8613,4096.4605 5904.3734,4209.2519 C 5897.1855,4215.8088 5889.9977,4222.3657 5882.8098,4228.9227 C 5882.5388,4229.5141 5881.6482,4231.2464 5881.9968,4230.697 C 5885.6996,4224.8616 5887.1053,4216.8456 5892.8812,4213.0506 C 5905.6149,4204.6841 5921.0727,4201.4826 5935.1886,4195.748 C 5959.0627,4186.049 5982.9533,4176.3905 6006.8509,4166.7497 C 6039.9586,4153.3935 6073.0866,4140.0879 6106.2045,4126.757 C 6329.2168,4030.9568 6554.9618,3941.7017 6778.3447,3846.8003 C 6828.9023,3826.0779 6879.4032,3805.2028 6930.0375,3784.6864 C 6943.3831,3779.279 6965.8599,3768.5756 6970.7489,3775.7973 C 6975.4749,3782.7783 6972.8999,3792.52 6973.9755,3800.8813 C 6966.4,3809.2791 6959.3627,3818.1956 6951.2491,3826.0748 C 6907.785,3868.2829 6858.9554,3905.9356 6812.5198,3944.7102 C 6740.7132,4004.6703 6762.2857,3986.5739 6690.7315,4048.0938 C 6637.8942,4095.6806 6581.9538,4140.9354 6536.1767,4195.7364 C 6523.5828,4210.8129 6523.899,4218.7006 6524.0039,4209.7554 C 6527.5266,4205.1487 6529.5688,4198.8678 6534.572,4195.9353 C 6546.5447,4188.9178 6560.3602,4185.6658 6573.3657,4180.8235 C 6595.0024,4172.7675 6616.9844,4165.6385 6638.4917,4157.2429 C 6668.3217,4145.5985 6697.6008,4132.5826 6727.3434,4120.7166 C 6764.6204,4105.8446 6802.1423,4091.5938 6839.5418,4077.0325 C 6881.9057,4060.0831 6924.2695,4043.1338 6966.6334,4026.1844 C 7089.9061,3975.9451 7212.27,3923.5252 7335.0578,3872.1278 C 7381.7661,3852.5763 7442.4524,3826.1616 7492.6145,3810.9317 C 7506.8919,3806.5969 7521.7181,3804.3345 7536.2699,3801.0359 C 7543.5567,3804.0977 7554.9648,3802.979 7558.1302,3810.2213 C 7569.9328,3837.2253 7538.0111,3868.1237 7524.9965,3882.567 C 7473.7569,3939.4317 7412.6066,3987.3705 7353.8468,4035.9587 C 7263.5249,4114.5669 7168.1336,4189.5502 7090.347,4281.2061 C 7098.223,4270.3382 7070.1863,4310.1241 7076.5825,4307.4569 C 7079.6896,4306.1612 7081.8248,4303.0037 7084.9933,4301.8666 C 7094.092,4298.6012 7103.7294,4297.082 7113.0119,4294.3831 C 7128.9727,4289.7425 7144.8125,4284.6951 7160.7127,4279.8511 C 7355.1382,4206.2379 7546.1651,4123.7054 7736.148,4039.3323 C 7759.2435,4029.3315 7853.4301,3987.6729 7883.4997,3977.5431 C 7896.8059,3973.0605 7910.5018,3966.8988 7924.5063,3967.9098 C 7953.8846,3970.0306 7937.4082,4005.0072 7930.9098,4014.6111 C 7921.1252,4029.0718 7906.2368,4039.3224 7893.9003,4051.678 C 7778.3683,4151.7389 7659.904,4248.0933 7548.7458,4353.1199 C 7497.0169,4404.1435 7521.0535,4379.5024 7476.3528,4426.7659 L 7330.2899,4487.6002 C 7378.5603,4438.2004 7352.7552,4463.8487 7407.9599,4410.9121 C 7518.4427,4307.9175 7635.2238,4212.3206 7747.9862,4111.9375 C 7758.8781,4101.5493 7769.1535,4090.4738 7780.6619,4080.773 C 7785.9771,4076.2926 7793.2931,4074.4406 7798.251,4069.5677 C 7799.3615,4068.4762 7797.9995,4065.1529 7796.4461,4065.2593 C 7785.1782,4066.0308 7774.0029,4068.5626 7763.2334,4071.9653 C 7732.1492,4081.7866 7650.0258,4116.8529 7625.214,4127.1602 C 7429.8429,4211.8153 7234.7322,4297.4751 7036.7339,4375.7703 C 7022.8622,4380.1666 6969.3414,4399.794 6948.2919,4398.6482 C 6941.0822,4398.2557 6933.9953,4394.4096 6928.6126,4389.5971 C 6913.8364,4376.3861 6934.0372,4354.1473 6940.4358,4344.5364 C 7023.3786,4251.0195 7122.9759,4173.9589 7216.3277,4091.4052 C 7272.654,4044.8244 7329.1705,3998.7843 7378.9016,3944.9651 C 7388.2716,3934.825 7395.892,3923.1364 7405.4464,3913.17 C 7409.5241,3908.9165 7418.3021,3908.2957 7419.5714,3902.5417 C 7420.4151,3898.7172 7412.4253,3899.3344 7408.8523,3897.7308 C 7341.2578,3910.8187 7291.1796,3931.7155 7226.4333,3957.8047 C 7104.6132,4006.8916 6983.7455,4058.3392 6862.2887,4108.3081 C 6779.712,4142.1294 6696.8757,4175.3229 6614.5433,4209.7348 C 6494.9666,4259.7134 6552.3532,4238.3467 6448.3934,4278.776 C 6433.079,4284.7316 6418.4883,4293.6505 6402.2385,4296.088 C 6392.7818,4297.5065 6383.5636,4291.9635 6374.2261,4289.9012 C 6373.4898,4285.5597 6370.3566,4280.9551 6372.0172,4276.8767 C 6374.4551,4270.8894 6411.39,4232.0414 6412.0986,4231.3257 C 6456.5691,4186.4109 6505.1159,4145.7514 6552.5943,4104.1331 C 6642.2089,4026.3973 6734.3041,3951.3581 6820.4746,3869.776 C 6825.1575,3871.4331 6830.8701,3871.3814 6834.5234,3874.7473 C 6836.383,3876.4606 6829.4301,3875.0629 6827.0107,3875.7978 C 6819.1105,3878.1976 6811.4175,3881.2366 6803.6794,3884.1165 C 6756.4085,3901.7092 6709.2265,3919.5838 6662.3597,3938.2299 C 6439.3028,4027.9574 6215.3829,4115.6004 5995.8321,4213.7794 C 5960.5858,4228.8191 5925.2928,4243.7499 5890.0931,4258.8985 C 5863.8011,4270.2137 5837.7433,4282.074 5811.3582,4293.1705 C 5787.4569,4303.2223 5756.7535,4326.1858 5729.9149,4304.615 C 5717.5555,4294.6816 5767.7156,4253.856 5759.8409,4267.6383 C 5895.8017,4156.0584 6037.1996,4051.1532 6178.3491,3946.2858 C 6230.8951,3905.9222 6281.5364,3865.9095 6328.9984,3819.6746 C 6335.1256,3813.7058 6341.7058,3808.1255 6347.1076,3801.4931 C 6348.8247,3799.3848 6352.4495,3795.0803 6350.0141,3793.8711 C 6342.8794,3790.3285 6334.1862,3792.0556 6326.2723,3791.1479 C 6309.5114,3794.8844 6292.3877,3797.2592 6275.9896,3802.3574 C 6248.1594,3811.0099 6128.282,3858.8524 6109.5237,3866.3952 C 5996.299,3911.9234 5883.7312,3959.0874 5771.0317,4005.8918 C 5686.671,4043.1352 5684.8542,4043.2162 5609.8578,4078.6051 C 5608.1719,4079.4006 5558.8677,4107.9457 5544.5482,4102.866 C 5521.7028,4094.7619 5538.1505,4082.002 5543.7884,4075.0577 C 5606.2032,4016.9632 5674.0799,3965.0929 5740.6252,3911.8973 C 5787.5938,3871.9313 5833.6586,3832.0347 5875.4578,3786.5539 C 5891.3494,3769.2626 5904.9471,3754.6558 5915.834,3734.2109 C 5917.6055,3730.8841 5918.071,3727.0122 5919.1895,3723.4129 C 5916.8002,3722.2604 5914.6738,3720.0151 5912.0218,3719.9553 C 5901.8672,3719.7259 5873.3373,3727.6915 5866.2463,3729.7732 C 5821.2863,3742.9721 5777.4783,3759.8726 5733.2145,3775.1334 C 5627.3071,3813.2499 5521.6833,3854.0247 5411.1643,3876.8976 L 5544.6251,3776.2163 z" />
    <path
       style="opacity:1;fill:#d6cda8;fill-opacity:1;fill-rule:evenodd;stroke:none;stroke-width:4.69999981;stroke-linecap:round;stroke-linejoin:round;stroke-miterlimit:4;stroke-dasharray:none;stroke-dashoffset:0;stroke-opacity:1"
       id="path3234"
       d="M 5500.3105,4962.1179 C 5573.5943,4932.6331 5647.5983,4904.8959 5721.5753,4877.0518 C 5795.0669,4849.8485 5869.9214,4825.5487 5947.2407,4812.0827 C 5981.5828,4808.825 6000.4743,4818.7115 6013.0552,4850.4615 C 6012.3568,4857.6758 6012.5292,4865.0284 6010.9601,4872.1046 C 6003.3736,4906.3156 5978.5451,4938.4217 5958.6331,4965.9551 C 5931.253,5003.815 5911.3253,5027.1291 5881.4979,5063.737 C 5826.7492,5129.0994 5773.3927,5195.5042 5723.828,5264.8902 C 5723.2553,5269.6801 5709.0225,5282.8407 5711.7264,5290.0225 C 5712.1901,5291.2541 5720.3133,5285.2787 5722.2632,5284.5714 C 5731.1269,5281.3562 5740.3715,5279.3088 5749.4257,5276.6774 C 5912.3132,5226.2253 6069.8133,5160.201 6226.9113,5094.3066 C 6288.5979,5070.4222 6347.4167,5038.7864 6410.049,5017.2109 C 6414.1004,5015.8153 6455.1053,4997.8907 6464.7777,5014.2136 C 6470.2077,5023.3771 6466.9349,5035.407 6468.0135,5046.0037 C 6460.0451,5058.7269 6453.4658,5072.434 6444.1084,5084.1734 C 6418.9891,5115.6874 6367.3706,5162.7447 6339.6166,5188.398 C 6280.8783,5242.6905 6220.4838,5295.1422 6160.7983,5348.3809 C 6131.219,5376.105 6099.6179,5402.8653 6075.9442,5436.1794 C 6074.7595,5437.8467 6061.2956,5455.705 6066.6952,5460.5018 C 6142.7607,5458.811 6215.6871,5429.1903 6286.3617,5404.16 C 6320.2578,5392.1553 6353.9891,5379.6903 6387.8027,5367.4554 C 6577.7387,5294.2547 6768.259,5222.6657 6957.3134,5147.2089 C 6967.1235,5145.2078 7047.8686,5105.5285 7058.1816,5123.3459 C 7080.2976,5161.555 7016.5885,5209.4868 6997.9219,5228.4209 C 6865.4288,5340.2922 6724.4084,5441.5198 6588.2674,5548.8696 C 6560.5207,5576.7865 6502.5029,5610.6563 6487.0981,5647.0826 C 6553.9295,5634.8678 6622.1095,5629.1472 6688.5218,5613.2097 C 6719.3472,5605.8123 6749.6301,5596.3134 6780.1843,5587.8652 C 6937.4666,5536.6657 7089.3267,5470.8629 7243.1984,5410.5554 C 7284.1577,5396.2432 7324.0536,5379.1641 7364.6522,5363.9049 C 7391.8601,5353.6786 7405.7008,5347.0161 7434.4879,5347.6631 C 7438.1561,5352.29 7444.8207,5355.6776 7445.4927,5361.5438 C 7449.8134,5399.262 7393.0003,5452.0752 7372.063,5475.6952 C 7285.2462,5573.6356 7362.6412,5484.8544 7277.9758,5582.5899 C 7239.6206,5630.386 7194.92,5674.5572 7164.1748,5728.0967 C 7154.3249,5745.2491 7152.6027,5740.3958 7160.4187,5749.242 C 7275.6208,5749.0011 7389.7372,5729.6657 7502.7458,5709.1725 C 7569.6781,5697.4266 7634.6706,5676.4749 7701.4069,5663.8916 C 7722.9664,5659.8264 7750.1896,5655.2629 7772.7015,5659.5903 C 7780.2345,5661.0384 7786.9668,5665.2358 7794.0994,5668.0585 C 7812.032,5682.7206 7816.0875,5700.0846 7819.7727,5721.6217 L 7672.2685,5799.2591 C 7670.8829,5783.3752 7670.4645,5771.0292 7656.6342,5760.7195 C 7651.0549,5758.8719 7645.7042,5756.0764 7639.8962,5755.1766 C 7602.818,5749.4325 7561.6915,5761.1491 7526.0565,5768.5372 C 7504.4852,5773.0095 7482.9826,5777.8074 7461.4457,5782.4424 C 7435.9252,5787.6574 7410.4048,5792.8724 7384.8844,5798.0874 C 7305.2582,5812.6163 7225.7242,5826.6136 7145.3092,5836.1476 C 7131.2774,5837.8113 7061.7478,5845.7526 7042.5253,5843.3341 C 7032.9323,5842.1272 7024.451,5836.4604 7015.4139,5833.0235 C 7012.0226,5826.3819 7005.3528,5820.5551 7005.24,5813.0986 C 7005.1209,5805.2222 7031.6734,5768.5911 7032.678,5767.235 C 7065.2336,5723.291 7102.7001,5683.2423 7138.1449,5641.6987 C 7143.4119,5635.5984 7223.5878,5542.7475 7229.37,5536.0087 C 7276.432,5481.1608 7253.8222,5508.8324 7289.9651,5461.2399 C 7300.6659,5447.1493 7302.7108,5452.9793 7299.7858,5446.297 C 7277.8484,5448.7703 7258.4222,5455.8734 7237.647,5463.4191 C 7198.2083,5477.7434 7159.2068,5493.248 7119.6923,5507.3689 C 6968.4056,5563.6615 6819.2631,5625.8196 6665.7207,5675.8978 C 6566.846,5703.8871 6582.0954,5701.6746 6487.2116,5721.0285 C 6465.7929,5725.3974 6379.8001,5745.5423 6353.391,5739.9615 C 6348.3328,5738.8925 6344.5476,5734.6036 6340.1258,5731.9247 C 6338.1996,5728.1497 6335.04,5724.7807 6334.347,5720.5997 C 6332.6292,5710.2359 6340.9579,5699.8923 6346.7686,5693.1057 C 6376.0747,5658.8777 6414.7182,5633.7605 6448.6061,5604.7024 C 6584.4521,5500.2207 6723.4491,5399.4748 6853.7803,5288.0795 C 6975.3096,5169.8611 6833.5956,5312.2835 6910.2324,5224.5633 C 6912.7573,5221.6732 6919.0742,5222.328 6920.0986,5218.6295 C 6920.8079,5216.0685 6914.8374,5216.848 6912.2288,5217.3552 C 6894.8605,5220.7315 6849.4808,5237.2588 6837.1023,5241.5279 C 6650.105,5311.6801 6462.6468,5380.6426 6276.9313,5454.1565 C 6237.503,5468.9751 6125.6768,5511.5248 6081.7034,5526.209 C 6044.3735,5538.6746 5977.1332,5563.4453 5934.8076,5554.0405 C 5929.2869,5552.8138 5925.1545,5548.1457 5920.3279,5545.1983 C 5918.0664,5540.91 5914.3775,5537.1093 5913.5434,5532.3335 C 5911.694,5521.7444 5920.6708,5507.4694 5925.7701,5500.2585 C 5951.6616,5463.6456 5987.7198,5435.357 6020.4716,5405.4578 C 6124.5254,5315.1427 6232.9675,5227.388 6320.0634,5119.9288 C 6322.2786,5116.0966 6327.7171,5112.7424 6326.7091,5108.4323 C 6325.9408,5105.1472 6320.1802,5105.6593 6316.8447,5106.1662 C 6306.254,5107.7756 6296.0083,5111.2552 6285.8455,5114.6421 C 6226.7531,5134.3356 6170.7014,5162.2983 6112.5726,5184.437 C 5949.5907,5250.9254 5787.1407,5319.4814 5620.2059,5375.5623 C 5609.0128,5378.0726 5598.0865,5382.5835 5586.6267,5383.0932 C 5550.0262,5384.7212 5558.4324,5348.6243 5572.5317,5330.2817 C 5625.7993,5259.3852 5683.8442,5192.3347 5740.2744,5123.9703 C 5780.5379,5073.9779 5824.6321,5022.9726 5853.6132,4965.078 C 5854.8798,4962.5478 5863.549,4938.1032 5865.6202,4932.3045 C 5857.1687,4907.0882 5839.0719,4908.9922 5815.2934,4911.4408 C 5741.4305,4924.0925 5669.7083,4946.3224 5599.5965,4972.5834 C 5521.3997,5002.1667 5443.3146,5032.2157 5367.7688,5068.1388 L 5500.3105,4962.1179 z" />
  </g>
</svg>
