<?xml version="1.0" encoding="UTF-8" standalone="no"?>
<!-- Created with Inkscape (http://www.inkscape.org/) -->

<svg
   xmlns:i="http://ns.adobe.com/AdobeIllustrator/10.0/"
   xmlns:dc="http://purl.org/dc/elements/1.1/"
   xmlns:cc="http://creativecommons.org/ns#"
   xmlns:rdf="http://www.w3.org/1999/02/22-rdf-syntax-ns#"
   xmlns:svg="http://www.w3.org/2000/svg"
   xmlns="http://www.w3.org/2000/svg"
   xmlns:sodipodi="http://sodipodi.sourceforge.net/DTD/sodipodi-0.dtd"
   xmlns:inkscape="http://www.inkscape.org/namespaces/inkscape"
   id="svg2910"
   version="1.1"
   inkscape:version="0.47 r22583"
   width="64"
   height="64"
   sodipodi:docname="computer.svg"
   inkscape:export-filename="/home/kwwii/bzr/u-art/distributor-logo2.png"
   inkscape:export-xdpi="90"
   inkscape:export-ydpi="90">
  <metadata
     id="metadata2916">
    <rdf:RDF>
      <cc:Work
         rdf:about="">
        <dc:format>image/svg+xml</dc:format>
        <dc:type
           rdf:resource="http://purl.org/dc/dcmitype/StillImage" />
        <dc:title></dc:title>
      </cc:Work>
    </rdf:RDF>
  </metadata>
  <defs
     id="defs2914">
    <inkscape:perspective
       sodipodi:type="inkscape:persp3d"
       inkscape:vp_x="0 : 32 : 1"
       inkscape:vp_y="0 : 1000 : 0"
       inkscape:vp_z="64 : 32 : 1"
       inkscape:persp3d-origin="32 : 21.333333 : 1"
       id="perspective9" />
    <inkscape:perspective
       id="perspective2830"
       inkscape:persp3d-origin="0.5 : 0.33333333 : 1"
       inkscape:vp_z="1 : 0.5 : 1"
       inkscape:vp_y="0 : 1000 : 0"
       inkscape:vp_x="0 : 0.5 : 1"
       sodipodi:type="inkscape:persp3d" />
  </defs>
  <sodipodi:namedview
     pagecolor="#ffffff"
     bordercolor="#666666"
     borderopacity="1"
     objecttolerance="10"
     gridtolerance="10"
     guidetolerance="10"
     inkscape:pageopacity="0"
     inkscape:pageshadow="2"
     inkscape:window-width="1366"
     inkscape:window-height="721"
     id="namedview2912"
     showgrid="false"
     inkscape:zoom="4.0887097"
     inkscape:cx="70.5"
     inkscape:cy="20"
     inkscape:window-x="0"
     inkscape:window-y="25"
     inkscape:window-maximized="1"
     inkscape:current-layer="svg2910"
     showguides="true"
     inkscape:guide-bbox="true">
    <sodipodi:guide
       orientation="1,0"
       position="8,-33"
       id="guide2830" />
    <sodipodi:guide
       orientation="1,0"
       position="51,-35"
       id="guide2832" />
  </sodipodi:namedview>
  <path
     id="path24"
     style="fill:#e13f20;fill-opacity:1;fill-rule:nonzero;stroke:none"
     d="M 61,32.000512 C 61,48.016176 48.016455,61 32.000032,61 15.983609,61 3,48.016176 3,32.000512 3,15.983824 15.983609,3 32.000032,3 48.016455,3 61,15.983824 61,32.000512" />
  <g
     id="g2497"
     transform="matrix(0.17826443,0,0,0.17797204,-0.11100792,10.670878)"
     style="fill:#ffffff">
    <path
       i:knockout="Off"
       d="m 217.84,131.359 c -8.162,-2.875 -16.542,-3.702 -24.601,-2.773 8.316,6.644 15.109,15.436 19.417,25.999 13.451,32.987 -2.396,70.635 -35.38,84.083 -0.886,0.361 -1.788,0.668 -2.681,0.983 22.263,0.566 43.623,-4.996 62.211,-15.285 6.521,-5.954 11.714,-13.564 14.854,-22.476 10.143,-28.817 -4.998,-60.393 -33.82,-70.531 z m -71.185,-30.828 c 7.419,4.458 15.464,6.954 23.544,7.66 -6.816,-8.18 -11.699,-18.151 -13.796,-29.368 -6.552,-35.022 16.533,-68.711 51.557,-75.255 0.938,-0.182 1.879,-0.306 2.816,-0.434 -21.693,-5.021 -43.731,-3.874 -64.01,2.479 -7.589,4.526 -14.207,10.927 -19.068,19.032 -15.723,26.193 -7.236,60.168 18.957,75.886 z m 20.921,-17.792 c 2.672,8.232 7.096,15.398 12.72,21.237 0.235,-10.641 3.108,-21.374 8.89,-31.208 18.063,-30.708 57.597,-40.952 88.308,-22.893 0.818,0.48 1.612,1.013 2.405,1.531 -13.062,-18.042 -30.435,-31.644 -49.894,-40.174 -8.696,-1.574 -17.892,-1.085 -26.887,1.834 -29.052,9.419 -44.968,40.615 -35.542,69.673 z m 28.098,0.574 c -3.534,7.904 -5.045,16.19 -4.781,24.296 7.303,-7.752 16.625,-13.801 27.508,-17.221 33.978,-10.71 70.192,8.165 80.896,42.147 0.293,0.905 0.524,1.829 0.768,2.746 2.382,-22.141 -1.407,-43.88 -10.143,-63.255 -5.405,-6.983 -12.562,-12.782 -21.186,-16.64 -27.891,-12.467 -60.599,0.039 -73.062,27.927 z m 20.598,19.496 c -7.941,3.449 -14.647,8.532 -19.925,14.701 10.619,-0.79 21.577,1.042 31.916,5.855 32.297,15.046 46.273,53.423 31.229,85.712 -0.401,0.867 -0.852,1.702 -1.293,2.547 16.712,-14.726 28.589,-33.321 35.222,-53.505 0.729,-8.813 -0.632,-17.922 -4.392,-26.586 -12.16,-28.024 -44.74,-40.881 -72.757,-28.724 z"
       id="path2499"
       style="fill:#ffffff" />
    <path
       i:knockout="Off"
       d="M 180.992,130.58 C 172.898,123.547 163.441,119.11 153.629,117.178 138.68,114.47 124.764,106.042 115.442,92.554 96.824,65.62 103.573,28.696 130.506,10.077 c 0.722,-0.501 1.463,-0.954 2.207,-1.413 -0.626,0.119 -1.239,0.274 -1.861,0.406 -42.047,18.847 -71.353,61.036 -71.353,110.096 0,48.847 29.048,90.88 70.799,109.847 9.756,2.13 19.953,3.021 30.412,2.431 0.218,-0.011 0.436,-0.042 0.655,-0.056 9.545,-3.266 18.388,-9.002 25.49,-17.17 21.474,-24.716 18.854,-62.157 -5.863,-83.638 z"
       id="path2501"
       style="fill:#ffffff" />
  </g>
</svg>
