<?xml version="1.0" encoding="UTF-8" standalone="no"?>
<svg
   xmlns:dc="http://purl.org/dc/elements/1.1/"
   xmlns:cc="http://creativecommons.org/ns#"
   xmlns:rdf="http://www.w3.org/1999/02/22-rdf-syntax-ns#"
   xmlns:svg="http://www.w3.org/2000/svg"
   xmlns="http://www.w3.org/2000/svg"
   xmlns:sodipodi="http://sodipodi.sourceforge.net/DTD/sodipodi-0.dtd"
   xmlns:inkscape="http://www.inkscape.org/namespaces/inkscape"
   width="300pt"
   height="150pt"
   viewBox="0 0 300 150"
   version="1.1"
   id="svg2872"
   inkscape:version="0.47 r22583"
   sodipodi:docname="OpenOffice.org.svg">
  <metadata
     id="metadata2912">
    <rdf:RDF>
      <cc:Work
         rdf:about="">
        <dc:format>image/svg+xml</dc:format>
        <dc:type
           rdf:resource="http://purl.org/dc/dcmitype/StillImage" />
      </cc:Work>
    </rdf:RDF>
  </metadata>
  <defs
     id="defs2910">
    <inkscape:perspective
       sodipodi:type="inkscape:persp3d"
       inkscape:vp_x="0 : 93.75 : 1"
       inkscape:vp_y="0 : 1000 : 0"
       inkscape:vp_z="375 : 93.75 : 1"
       inkscape:persp3d-origin="187.5 : 62.5 : 1"
       id="perspective2914" />
  </defs>
  <sodipodi:namedview
     pagecolor="#ffffff"
     bordercolor="#666666"
     borderopacity="1"
     objecttolerance="10"
     gridtolerance="10"
     guidetolerance="10"
     inkscape:pageopacity="0"
     inkscape:pageshadow="2"
     inkscape:window-width="1366"
     inkscape:window-height="705"
     id="namedview2908"
     showgrid="false"
     inkscape:zoom="1.2586667"
     inkscape:cx="184.95661"
     inkscape:cy="75.990596"
     inkscape:window-x="-4"
     inkscape:window-y="-4"
     inkscape:window-maximized="1"
     inkscape:current-layer="svg2872" />
  <g
     id="#008bcdff">
    <path
       fill="#008bcd"
       opacity="1.00"
       d=" M 90.73 38.70 C 96.84 34.35 105.15 34.97 111.67 38.05 C 118.12 34.87 126.26 34.32 132.44 38.42 C 125.04 37.81 116.86 38.92 111.70 44.84 C 106.31 39.22 98.16 37.99 90.73 38.70 Z"
       id="path2875" />
    <path
       fill="#008bcd"
       opacity="1.00"
       d=" M 88.49 58.92 C 94.58 54.95 101.68 52.29 109.03 52.46 C 114.33 52.43 120.02 53.00 124.50 56.08 C 117.12 56.17 109.48 56.51 102.70 59.79 C 97.54 62.12 93.04 65.85 89.84 70.53 C 82.11 63.47 71.21 60.93 60.98 61.95 C 58.18 62.31 55.42 63.01 52.59 63.11 C 62.40 54.93 76.97 54.02 88.49 58.92 Z"
       id="path2877" />
    <path
       fill="#008bcd"
       opacity="1.00"
       d=" M 28.24 76.28 C 32.90 74.80 38.47 75.40 42.26 78.66 C 48.18 83.75 48.80 93.33 44.80 99.77 C 39.87 107.52 26.92 107.69 21.75 100.15 C 16.43 92.50 18.73 79.37 28.24 76.28 M 30.39 81.57 C 24.97 83.96 24.48 91.57 26.77 96.33 C 28.79 100.85 35.64 101.53 38.64 97.68 C 41.32 94.15 41.36 89.08 39.60 85.14 C 38.17 81.69 33.77 80.14 30.39 81.57 Z"
       id="path2879" />
    <path
       fill="#008bcd"
       opacity="1.00"
       d=" M 49.75 84.00 C 51.60 84.00 53.44 84.00 55.28 84.00 C 55.23 84.54 55.14 85.62 55.09 86.15 C 58.55 82.81 64.52 82.51 67.93 86.09 C 71.56 90.13 71.78 96.65 69.29 101.33 C 66.63 106.30 59.14 106.93 55.43 102.81 C 55.52 105.95 55.51 109.10 55.49 112.24 C 53.58 112.24 51.67 112.24 49.76 112.24 C 49.75 102.83 49.76 93.42 49.75 84.00 M 58.38 88.40 C 53.74 90.85 54.19 100.56 60.06 101.04 C 67.68 101.07 66.16 85.65 58.38 88.40 Z"
       id="path2881" />
    <path
       fill="#008bcd"
       opacity="1.00"
       d=" M 75.86 85.80 C 79.93 82.49 86.71 82.64 90.15 86.81 C 92.41 89.29 92.74 92.77 92.88 95.97 C 87.83 96.03 82.78 95.97 77.72 96.02 C 78.15 97.96 78.78 100.36 81.04 100.85 C 83.62 101.72 85.98 100.15 87.59 98.27 C 89.29 98.26 90.99 98.27 92.70 98.29 C 91.06 104.50 83.91 107.08 78.22 104.80 C 70.74 101.99 69.82 90.54 75.86 85.80 M 77.60 92.21 C 80.77 92.28 83.93 92.26 87.10 92.19 C 86.12 90.48 85.29 88.00 82.90 88.04 C 80.23 87.67 78.39 89.95 77.60 92.21 Z"
       id="path2883" />
    <path
       fill="#008bcd"
       opacity="1.00"
       d=" M 94.75 84.00 C 96.69 84.00 98.62 84.00 100.56 84.00 C 100.50 84.62 100.38 85.85 100.32 86.47 C 103.65 82.54 111.55 82.13 113.70 87.41 C 115.20 93.14 114.23 99.15 114.50 105.00 C 112.50 105.00 110.49 105.00 108.49 104.99 C 108.37 100.33 108.82 95.63 108.24 90.99 C 107.80 87.10 101.61 87.50 101.05 91.10 C 100.37 95.69 100.90 100.37 100.75 105.00 C 98.75 105.00 96.75 105.00 94.75 105.00 C 94.75 98.00 94.75 91.00 94.75 84.00 Z"
       id="path2885" />
  </g>
  <g
     id="#1a171cff">
    <path
       fill="#1a171c"
       opacity="1.00"
       d=" M 125.34 76.51 C 131.32 74.18 139.06 75.90 142.56 81.54 C 145.94 87.13 145.99 94.85 142.20 100.25 C 136.95 107.71 124.06 107.48 119.19 99.71 C 114.38 92.23 116.48 79.94 125.34 76.51 M 128.36 81.50 C 122.94 83.59 122.28 90.99 124.23 95.74 C 125.80 100.24 132.07 101.64 135.57 98.52 C 138.98 95.20 139.19 89.66 137.49 85.44 C 136.19 81.92 131.80 80.09 128.36 81.50 Z"
       id="path2888" />
    <path
       fill="#1a171c"
       opacity="1.00"
       d=" M 151.72 77.68 C 153.95 75.83 157.02 76.36 159.69 76.21 C 159.73 77.70 159.77 79.19 159.81 80.69 C 158.55 80.77 157.29 80.87 156.03 80.97 C 155.86 81.72 155.54 83.24 155.38 83.99 C 157.60 83.99 159.83 83.99 162.05 84.00 C 162.42 81.95 162.28 79.49 163.99 77.99 C 166.22 75.80 169.56 76.35 172.39 76.23 C 172.46 77.73 172.52 79.23 172.59 80.72 C 171.34 80.75 170.09 80.78 168.85 80.81 C 168.55 81.84 168.25 82.86 167.96 83.89 C 169.30 83.94 170.65 83.99 172.01 84.04 C 172.00 85.44 172.00 86.84 171.99 88.24 C 170.74 88.24 169.49 88.25 168.25 88.26 C 168.24 93.84 168.25 99.42 168.25 105.00 C 166.24 104.99 164.25 104.99 162.25 105.00 C 162.25 99.41 162.26 93.82 162.24 88.24 C 159.99 88.25 157.74 88.25 155.49 88.26 C 155.51 93.82 155.46 99.38 155.54 104.94 C 153.61 104.97 151.68 104.99 149.75 105.02 C 149.75 99.43 149.75 93.85 149.75 88.26 C 148.59 88.25 147.42 88.24 146.26 88.23 C 146.25 86.83 146.24 85.42 146.24 84.02 C 147.35 84.01 148.46 84.00 149.58 84.00 C 149.85 81.80 149.77 79.16 151.72 77.68 Z"
       id="path2890" />
    <path
       fill="#1a171c"
       opacity="1.00"
       d=" M 176.20 76.09 C 180.50 74.25 182.46 81.63 178.04 82.23 C 174.37 83.11 172.70 77.42 176.20 76.09 Z"
       id="path2892" />
    <path
       fill="#1a171c"
       opacity="1.00"
       d=" M 174.50 84.00 C 176.50 84.00 178.50 84.00 180.50 84.00 C 180.50 91.00 180.50 98.00 180.50 105.00 C 178.50 105.00 176.50 105.00 174.50 105.00 C 174.50 98.00 174.50 91.00 174.50 84.00 Z"
       id="path2894" />
    <path
       fill="#1a171c"
       opacity="1.00"
       d=" M 185.95 85.94 C 191.51 81.06 202.58 83.59 203.16 91.75 C 201.25 91.76 199.35 91.77 197.45 91.77 C 196.66 90.23 195.90 88.26 193.89 88.11 C 186.85 87.33 186.21 100.57 192.98 101.05 C 195.62 101.34 196.74 98.69 197.67 96.75 C 199.53 96.75 201.40 96.76 203.27 96.78 C 202.54 99.01 202.06 101.56 200.13 103.13 C 195.17 107.36 185.93 106.03 183.37 99.68 C 181.62 95.17 182.16 89.28 185.95 85.94 Z"
       id="path2896" />
    <path
       fill="#1a171c"
       opacity="1.00"
       d=" M 209.29 85.15 C 213.51 82.48 219.85 82.96 222.95 87.12 C 225.07 89.56 225.26 92.92 225.37 95.99 C 220.30 96.02 215.23 95.95 210.16 96.06 C 210.87 98.02 211.53 100.68 214.04 100.93 C 216.56 101.71 218.60 99.97 220.21 98.30 C 221.89 98.26 223.56 98.25 225.25 98.24 C 223.56 105.24 214.66 107.52 208.98 103.89 C 202.78 99.75 203.01 89.13 209.29 85.15 M 210.10 92.18 C 213.28 92.27 216.46 92.28 219.63 92.19 C 218.76 90.54 218.04 88.24 215.82 88.10 C 213.01 87.41 211.02 89.85 210.10 92.18 Z"
       id="path2898" />
    <path
       fill="#1a171c"
       opacity="1.00"
       d=" M 236.27 89.46 C 240.81 87.64 246.47 91.03 246.48 96.06 C 247.51 101.05 243.26 106.37 237.97 105.27 C 230.02 104.90 229.01 91.74 236.27 89.46 M 236.44 92.46 C 232.80 95.14 233.91 102.73 238.93 102.86 C 242.42 103.06 244.19 99.01 243.53 96.02 C 243.42 92.70 239.16 90.03 236.44 92.46 Z"
       id="path2900" />
    <path
       fill="#1a171c"
       opacity="1.00"
       d=" M 248.02 89.49 C 248.71 89.49 250.09 89.50 250.78 89.50 C 250.73 90.06 250.63 91.18 250.58 91.75 C 252.22 90.19 254.22 89.16 256.43 88.70 C 256.46 89.42 256.53 90.88 256.57 91.61 C 254.81 92.34 252.31 92.43 251.50 94.47 C 250.31 97.83 250.85 101.50 250.75 104.99 C 250.06 105.00 248.69 105.00 248.00 105.00 C 248.00 99.83 247.99 94.66 248.02 89.49 Z"
       id="path2902" />
    <path
       fill="#1a171c"
       opacity="1.00"
       d=" M 261.10 104.87 C 254.29 102.69 254.87 90.66 261.89 89.20 C 263.88 88.57 265.80 89.46 267.49 90.45 C 268.29 90.15 269.90 89.55 270.70 89.25 C 270.62 94.86 271.13 100.52 270.43 106.10 C 269.66 112.96 257.67 113.12 256.62 106.31 C 259.73 106.05 261.64 109.90 264.79 108.78 C 267.39 108.34 267.70 105.39 268.32 103.35 C 266.12 104.48 263.63 105.92 261.10 104.87 M 261.40 92.23 C 258.34 94.53 258.49 100.21 261.70 102.29 C 264.64 103.93 267.77 101.04 267.84 98.04 C 268.90 94.45 265.08 89.59 261.40 92.23 Z"
       id="path2904" />
    <path
       fill="#1a171c"
       opacity="1.00"
       d=" M 226.38 101.23 C 228.81 98.33 232.39 104.04 228.91 105.06 C 226.61 106.36 224.41 102.79 226.38 101.23 Z"
       id="path2906" />
  </g>
  <flowRoot
     xml:space="preserve"
     id="flowRoot2936"
     style="fill:black;stroke:none;stroke-opacity:1;stroke-width:1px;stroke-linejoin:miter;stroke-linecap:butt;fill-opacity:1;font-family:Verdana;font-style:normal;font-weight:normal;font-size:6;-inkscape-font-specification:Verdana"><flowRegion
       id="flowRegion2938"><rect
         id="rect2940"
         width="32.864735"
         height="11.516702"
         x="340.3045"
         y="99.15847" /></flowRegion><flowPara
       id="flowPara2942"></flowPara></flowRoot>  <path
     style="fill:none;stroke:#000000;stroke-width:1px;stroke-linecap:butt;stroke-linejoin:miter;stroke-opacity:1"
     d="m 340.76096,111.02629 0.10533,-3.65164 -2.10671,0.0351 4.10809,0.0351 -2.10671,0 0,3.58141 z"
     id="path2960"
     transform="scale(0.8,0.8)" />
  <path
     style="fill:none;stroke:#000000;stroke-width:1px;stroke-linecap:butt;stroke-linejoin:miter;stroke-opacity:1"
     d="m 344.66036,110.98053 0.14896,-4.02211 -0.14896,4.02211 z"
     id="path2988"
     transform="scale(0.8,0.8)" />
  <path
     style="fill:none;stroke:#000000;stroke-width:1px;stroke-linecap:butt;stroke-linejoin:miter;stroke-opacity:1"
     d="m 344.66036,107.05773 2.6814,3.57521 -2.43313,-3.22762 -0.24827,-0.34759 z"
     id="path2992"
     transform="scale(0.8,0.8)" />
  <path
     style="fill:none;stroke:#000000;stroke-width:1px;stroke-linecap:butt;stroke-linejoin:miter;stroke-opacity:1"
     d="m 347.29211,110.78191 2.23451,-3.32693 -2.23451,3.32693 z"
     id="path2994"
     transform="scale(0.8,0.8)" />
  <path
     style="fill:none;stroke:#000000;stroke-width:1px;stroke-linecap:butt;stroke-linejoin:miter;stroke-opacity:1"
     d="m 349.62593,107.35567 -0.0993,3.67452 0.0993,-3.67452 z"
     id="path2998"
     transform="scale(0.8,0.8)" />
  <path
     style="fill:none;stroke:#000000;stroke-width:1px;stroke-linecap:butt;stroke-linejoin:miter;stroke-opacity:1"
     d="m 347.04383,110.78191 0.59587,-0.0496 -0.59587,0.0496 z"
     id="path3002"
     transform="scale(0.8,0.8)" />
</svg>
